<?xml version="1.0" encoding="utf-8"?>
<!-- Generator: Adobe Illustrator 26.0.0, SVG Export Plug-In . SVG Version: 6.00 Build 0)  -->
<svg version="1.1" id="图层_1" xmlns="http://www.w3.org/2000/svg" xmlns:xlink="http://www.w3.org/1999/xlink" x="0px" y="0px"
	 width="320px" height="180px" viewBox="0 0 320 180" style="enable-background:new 0 0 320 180;" xml:space="preserve">
<style type="text/css">
	.st0{fill:#E6E1DA;}
	.st1{fill:none;stroke:#807B78;stroke-linecap:round;stroke-miterlimit:10;}
	.st2{fill:none;stroke:#E6E1DA;stroke-width:3;stroke-miterlimit:10;}
	.st3{fill:#FFFAF2;}
	.st4{fill:#384737;}
	.st5{fill:#B98566;}
	.st6{fill:#F1BC9C;}
	.st7{fill:#886F5F;}
	.st8{fill:#1A1715;}
	.st9{fill:#D8D5CE;}
	.st10{fill:none;stroke:#262524;stroke-width:1.5;stroke-miterlimit:10;}
	.st11{fill:#4D4A45;}
	.st12{fill:#AA7A4C;}
	.st13{fill:#E69981;}
	.st14{fill:#FFCAA8;}
	.st15{fill:#FFFFFF;}
	.st16{fill:#F0CD2A;}
	.st17{fill:#D3ECF3;}
	.st18{fill:#4A4328;}
	.st19{fill:#D47D72;}
	.st20{fill:#EEAD8D;}
	.st21{fill:#4657A1;}
	.st22{fill:#0D1331;}
	.st23{fill:#D6DCF5;}
	.st24{fill:#EC876C;}
	.st25{fill:#F8BB9E;}
	.st26{fill:#9D836D;}
	.st27{fill:#98673B;}
	.st28{fill:#60474B;}
	.st29{fill:#96765F;}
	.st30{fill:#845659;}
	.st31{fill:#D1AD93;}
	.st32{fill:#3D3125;}
	.st33{fill:#9C8671;}
	.st34{fill:#3E2C2A;}
	.st35{fill:#F79C81;}
	.st36{fill:#FFF3E6;}
	.st37{fill:#FFDBC5;}
	.st38{fill:#1C1716;}
	.st39{fill:#C4F1FF;}
	.st40{fill:#736F36;}
	.st41{fill:#2C2A31;}
	.st42{fill:#C67A58;}
	.st43{fill:#F4AF86;}
	.st44{fill:#39291C;}
	.st45{fill:#BF8967;}
	.st46{fill:#375E63;}
	.st47{fill:#132022;}
	.st48{fill:#855E56;}
	.st49{fill:#4E1010;}
	.st50{fill:#73713D;}
	.st51{fill:#6A5E46;}
	.st52{fill:#C1AC80;}
	.st53{fill:#F19775;}
	.st54{fill:#542859;}
	.st55{fill:#693120;}
	.st56{fill:#FCCEB4;}
	.st57{fill:#28162B;}
	.st58{fill:#BFA6C2;}
	.st59{fill:#8C7231;}
	.st60{fill:#EEEAE8;}
	.st61{fill:#997467;}
	.st62{fill:#BDA362;}
	.st63{fill:#C98D7B;}
	.st64{fill:#8F2D2D;}
	.st65{fill:#FCD2B3;}
	.st66{fill:#2F0A0A;}
	.st67{fill:#D8AE4E;}
	.st68{fill:#F2EEEB;}
	.st69{fill:#FCDB81;}
	.st70{fill:#FCF6E6;}
	.st71{fill:#DE9278;}
	.st72{fill:#FED1B0;}
	.st73{fill:#211010;}
	.st74{fill:#F5D987;}
	.st75{fill:#8E5338;}
	.st76{fill:#A85C3E;}
	.st77{fill:#D2734D;}
	.st78{fill:#294F34;}
	.st79{fill:#BF6F52;}
	.st80{fill:#1E1212;}
	.st81{fill:#E2885C;}
	.st82{enable-background:new    ;}
	.st83{fill:#99938F;}
	.st84{fill:#E6E1DA;fill-opacity:0.302;}
	.st85{fill:#992E2E;stroke:#E6E1DA;stroke-miterlimit:11.1876;}
	.st86{fill:#992E2E;}
</style>
<path class="st0" d="M0,180V0h320v180H0z"/>
<g>
	<path class="st1" d="M199.9,30.9c0,0-53.5,9.6-83.2,9.8C87,41,41,32.2,41,32.2"/>
	<path class="st1" d="M116.8,19.9c6.7-4.5,24-3.8,24-3.8"/>
	<path class="st1" d="M140.4,162c0,0,3.2-26.3,21.1-46.8"/>
	<path class="st1" d="M235.6,61.5c0,0,7.4,34.8,1.3,55.7s-29.8,40.3-29.8,40.3"/>
	<path class="st1" d="M239.4,60.8l36.4-37.9"/>
	<path class="st1" d="M273.2,20.3c0,0-44.7,18.8-69.6,26.2s-65.1,14-65.1,14"/>
	<path class="st1" d="M53.4,87.9c0,0,12.7-21.3,25.4-36S114.1,17,114.1,17"/>
	<path class="st1" d="M215.7,126.4c0,0-42.6,9.8-77.8,15s-90.6,9.8-90.6,9.8"/>
	<path class="st1" d="M274.7,158.7L59.4,91.9"/>
	<path class="st1" d="M94.2,128.3c0,0,31.4-32.3,56.6-44.7c25.3-12.5,78.8-22,78.8-22"/>
	<path class="st1" d="M170.5,114.2c37.4-15.5,110.9-18.9,110.9-18.9"/>
</g>
<g>
	<rect x="35.7" y="140.3" class="st2" width="19.9" height="19.9"/>
	<rect x="267.1" y="11.5" class="st2" width="19.9" height="19.9"/>
	<rect x="225.3" y="53.3" class="st2" width="19.9" height="19.9"/>
	<rect x="87.3" y="119.4" class="st2" width="19.9" height="19.9"/>
	<rect x="157.9" y="102.5" class="st2" width="19.9" height="19.9"/>
	<rect x="130.3" y="153.1" class="st2" width="19.9" height="19.9"/>
	<rect x="44.5" y="78.7" class="st2" width="19.9" height="19.9"/>
	<rect x="208.6" y="117.1" class="st2" width="19.9" height="19.9"/>
	<rect x="131.6" y="48" class="st2" width="19.9" height="19.9"/>
	<rect x="263.7" y="149.5" class="st2" width="19.9" height="19.9"/>
	<rect x="194.9" y="148.6" class="st2" width="19.9" height="19.9"/>
	<rect x="28.9" y="20" class="st2" width="19.9" height="19.9"/>
	<rect x="194.1" y="17.7" class="st2" width="19.9" height="19.9"/>
	<rect x="273.2" y="85" class="st2" width="19.9" height="19.9"/>
	<rect x="102.4" y="10.7" class="st2" width="19.9" height="19.9"/>
</g>
<g>
	<g>
		<path class="st3" d="M35.7,160.2v-19.9h19.9v19.9H35.7z"/>
		<g>
			<path class="st4" d="M40.3,159.8l3.8-2l5.4-3.8l2.4-0.2l3,3.5l0.2,2.5H40.3z"/>
			<path class="st5" d="M49.7,156.2l-3.7,2.3l-1.6-0.2l-0.5-1.9l6.9-6l0.5,3L49.7,156.2z"/>
			<path class="st6" d="M49.9,151.6l-1.6,3.2l-2.7,1.9l-2.5,0.2l-1.6-2.5l-0.7-2.8l-0.4-2.8l0.1-0.8l0.2-2.6l1.6-2.2l3-1.2l3.3,0.9
				l1.7,1.9l0.5,3.7L49.9,151.6z"/>
			<path class="st7" d="M49.6,152.2l-1,2.4l-2.5,2.1l-2.9,0.1l-1-1.5l0.3-0.6l1.5,1.6l2.2-2l0.1-0.7l0.2,0.3l1.9-0.5l0.6-4.3
				l-0.5-1.8l-0.7-0.4l0.5-1.4l-0.4-1.6l-1.6-1.4l2.4,0.4l1.7,1.9l0.4,3.1l-1.2,0.8V152.2z"/>
			<path class="st8" d="M49.9,147.8l-2.8,1.1l-0.2,1.3l-1,0.5l-1.5-0.5l-1-1.1l-0.2-0.4l-0.7,0.1l0.1,0.5l-0.4,1.4l-1,0.8l-1-0.6
				l-0.3-0.8h-0.3l-0.1-0.3l0.3-0.1v-0.2l0.5-0.7l4.1-0.8l2-0.1l0.7,0.6l2.9-1.1l0.5,0.3l-0.3,0.3L49.9,147.8z"/>
			<path class="st6" d="M50.5,151.7l-0.8-0.3l0.2-3.3l1.2-0.8l0.7,1.7L50.5,151.7z"/>
			<path class="st9" d="M48.4,159.7h-2.3l-0.6-1.2l-0.5-0.1l-0.7,1.1h-0.4l0.2-2.7l1.1,1.3h0.4l5.1-4.1l0.6-1.1h0.2l0.5,1
				L48.4,159.7z"/>
			<path class="st7" d="M43.7,152.9l-1.8,0.9l0.3-0.9l1.6-0.8l1.7,0.4l0.6,0.8L43.7,152.9z"/>
		</g>
		<path class="st10" d="M35.7,160.2v-19.9h19.9v19.9H35.7z"/>
	</g>
	<g>
		<path class="st11" d="M267.1,31.4V11.5H287v19.9H267.1z"/>
		<g>
			<path class="st12" d="M282.6,17.8l-2.5-3.7l2.5,0.3l0.8,0.6h-0.7l0.6,0.7l-0.6-0.3l0.4,0.4v0.9l-0.4-0.4L282.6,17.8z"/>
			<path class="st13" d="M272.6,26.8l0.2-1.9l-0.2-2.7l3.8,0.7l2.9,4.8l-0.2,2.4l-1.7,0.6l-1.9-0.3L272.6,26.8z"/>
			<path class="st14" d="M273.4,23.6l-1-8.3l5.3-1.5l3.7,1.4l1,2l0.1,1.3l0.5,0.9l-0.7,1l0.1,1l-0.4,1.5l-6.8,3.1L273.4,23.6z"/>
			<path class="st12" d="M272,20.5l-0.7-3.4l0.4-1h-0.3l0.8-1.3l-0.6,0.1l1.6-1.4l4.5-0.8l3.3,0.4l-0.8,0.1l1.1,0.1l1.4,0.6l0.8,0.6
				l-0.3,0.1l-0.9,1l-2,0.1l-1.5-0.3l-3.1,1l-0.3,1.3l-0.8,0.6l-0.2,1.7l-0.7,0.8L272,20.5z"/>
			<path class="st15" d="M272.6,19.9l0.6,2.9l0.5,0.9l1,1.4l-0.2,0.2l-0.8-1l-0.7-1.5l-0.7-3.5l0.5-0.1l1.5,1.6l1.1,0.8v0.5
				l-1.5-1.2L272.6,19.9z"/>
			<path class="st14" d="M272.8,23.2l-1-0.6l-0.9-1.9l0.4-1.2l0.8-0.1l1.1,1.2l0.2,2.3L272.8,23.2z"/>
			<path class="st16" d="M271.3,27.6l1.4-1.1l1.9,2.2l2,1.1l2.1-0.1l0.5-1.6l0.7,0.4l3,1.6l1,0.8h-16.4l0.1-1.6L271.3,27.6z"/>
			<path class="st17" d="M274.1,25.3l0.9-1l-0.1-2.9l3.8-0.4l1.7-0.5L281,21l1.5,0.5l-0.2,1l0.3,1.2l-0.2,0.9l-0.5,0.4l-0.2,0.8
				l-2.1,2.2l-2.5,0.1L274.1,25.3z"/>
		</g>
		<path class="st10" d="M267.1,31.4V11.5H287v19.9H267.1z"/>
	</g>
	<g>
		<path class="st3" d="M225.3,73.2V53.3h19.9v19.9H225.3z"/>
		<g>
			<path class="st15" d="M239.8,71.5l0.5-0.1l0.2,0.5L239.8,71.5z"/>
			<path d="M240.4,62.9l-0.1-0.2h1.4l-0.1,0.3l-0.3-0.1H240.4z"/>
			<path class="st18" d="M232,66.9l-0.4-1.5l0.7,0.2l0.3,1.6L232,66.9z"/>
			<path class="st19" d="M232.2,68.7l0.1-3.6l6.4,4.4l-0.4,0.6l0.2,0.8l-0.8,1.4l-2.8-0.1L232.2,68.7z"/>
			<path class="st20" d="M233.1,67.2l-0.7-3.5l-0.6-1.4l0.3-1.4l1.1-1.6l7.3,1.1l0.3,1.8l-0.3,0.9l0.2,1l-0.3,1.4l-0.3,2l-0.3,0.5
				l-0.4,1.4h-2.3l-1-0.5l-1-0.1l-1.6-1.1L233.1,67.2z"/>
			<path class="st18" d="M232.6,63.6l-1.6-0.3l-0.2-2.7h3.2l-0.1,0.9l-0.5,0.9l-0.2,1.2L232.6,63.6z"/>
			<path class="st15" d="M239.6,64.1l-0.3-1.2l0.5-0.5l1.5,0.2l-0.1,1.4l-0.7,0.5L239.6,64.1z"/>
			<path class="st15" d="M235.8,62.9l0.4-0.5l1.8,0.2v0.9l-0.8,0.8l-1.1-0.3L235.8,62.9z"/>
			<path d="M232.2,62.9l-0.5,0.2v-0.2l0.4-0.2l3.5-0.1l0.5-0.4l2,0.1l0.2,0.4l0.4-0.2l0.4,0.1l0.4-0.5l1.6,0.1l0.4,0.4l-0.3,1.4
				l-0.8,0.5l-1.1-0.3l-0.3-1.3l-0.4-0.1l-0.4,0.2l-0.3,1l-0.8,0.5l-1.1-0.2l-0.5-1.5L232.2,62.9z M236.2,64l1.1,0.3l0.7-0.8v-0.9
				l-1.7-0.1l-0.4,0.4L236.2,64z M240.5,64.4l0.7-0.4l0.1-1.3l-1.4-0.1l-0.5,0.4l0.3,1.1L240.5,64.4z"/>
			<path class="st20" d="M232.6,66.5l-1.3-1.1l-0.6-1.8l0.4-0.8l0.7,0.1l0.7,0.6l0.6,2.7L232.6,66.5z"/>
			<path class="st21" d="M229,60.5v-1.1l2.3-2.1l4.7-1.5l4.3,0.1l1.8,1.4l-1.2,1.9v0.3l0.2,0.4l-0.1,0.6l1.6,1.1V62l-6.8-0.3
				l-2.7-0.7l-2,1l-0.2,0.7h-0.3l-0.2-1.4L229,60.5z"/>
			<path class="st15" d="M233.6,73l-1.9-3.8l0.4-1l0.8,1.2l3.8,2.5l0.8-0.3l0.7-1.7l0.9,3.1L233.6,73z"/>
			<path class="st22" d="M236.2,72.9l0.3-0.8l0.8-0.1l0.8,0.9H236.2z"/>
			<path class="st21" d="M226,72.7l-0.1-0.9l2.2-0.8l1.9-0.4l0.1-0.3l1.4-1.8l0.6-0.2l-0.3,0.8l2.3,3.7L226,72.7z"/>
			<path class="st21" d="M238.5,72.9l-0.2-2.7l1.2,1.1l3.1,1.3l0.1,0.4L238.5,72.9z"/>
			<path d="M225.8,73v-1.4l3.8-1.1l0.4,0.2l-0.2,0.9l-2.1,1.1L225.8,73z"/>
			<path class="st15" d="M228.7,71l0.5-0.1l-0.2,0.4h-0.6L228.7,71z"/>
			<path d="M239.9,71.7l-0.4-0.3h0.5l2.7,1v0.3L239.9,71.7z"/>
			<path class="st23" d="M230.9,61.7l-0.2-1l2.1-1.9l4.2-1l3.7,0.4l0.1,1.5l-3-0.7l-4.8,0.9L230.9,61.7z"/>
		</g>
		<path class="st10" d="M225.3,73.2V53.3h19.9v19.9H225.3z"/>
	</g>
	<g>
		<path class="st3" d="M87.3,139.3v-19.9h19.9v19.9H87.3z"/>
		<g>
			<path class="st24" d="M98.1,136.9l-6.2-3.5l0.2-1.8l8.3,3.2l0.4,2L98.1,136.9z"/>
			<path class="st21" d="M87.9,136.2l3.7-2.8l0.4-1.2c0,0,3.9,2.3,5.3,3.1c0.9,0.5,2.2,1.1,2.2,1.1l0.7-0.6l0.5-0.8l2.2,1.5l2.6,2.4
				L87.9,139V136.2z"/>
			<path d="M101.2,126.4l-0.2-0.8l2,0.7l-0.1,0.1l-0.5,0.2L101.2,126.4z"/>
			<path class="st25" d="M92,131.7l0.8-6.3l3.5-1.2l4.8,1l0.7,1.9l-0.3,1l0.4,0.9l-0.1,0.6l0.4,1.5v1.1l-0.7,2.1l-1.3,1.4l-1.5,0.5
				L96,135l-3.3-2.2L92,131.7z"/>
			<path class="st26" d="M92.6,127.2l0.3-2.2l2.6-0.3v1.4l-0.6,0.4l-0.2,1.2l-0.5,0.4L92.6,127.2z"/>
			<path class="st25" d="M93.2,130.6l-0.7-0.6l-0.6-1.7l0.4-1.1l0.6-0.2l0.9,0.5v3L93.2,130.6z"/>
			<path class="st27" d="M98,131.3l-0.1-0.3l0.4-0.6l1.3-0.5l0.7,0.2l0.4-0.1l0.8,0.8v0.7l-1.2-0.7l-0.4,0.2l-0.7,0.1L98,131.3z"/>
			<path d="M92.5,126.4l-0.1-0.8l-1.3-0.8v-1l2.6-2.2l3.6-0.8l3.3,0.1l1.7,1l0.2,1.1l-1.2,1.2l0.2,0.8l1.5,1.1l-0.1,0.2l-1.8-0.6
				l-3.7-0.2L95,125L92.5,126.4z"/>
			<path d="M100.9,135.8l-0.4-0.8l0.6,0.1l2.3,1.2l0.6,0.7l-0.2,0.1l-1.5-0.6L100.9,135.8z"/>
			<path d="M89.6,136l1.7-1.3h1.1l0.5,0.2l0.5,1l-1.9,2.8l-3.2-1.3L89.6,136z"/>
			<path d="M99.9,138.9v-0.5l-0.9-0.8l0.3-1l0.9-0.1l0.4,0.6l0.1,1l0.6,0.7L99.9,138.9z"/>
			<path class="st15" d="M91.9,135.4l-0.2-0.3l0.4-0.1l0.4,0.2l-0.2,0.3L91.9,135.4z"/>
			<path class="st15" d="M101.2,135.6l-0.2-0.3h0.3l0.1,0.1l0.1,0.2H101.2z"/>
			<path class="st15" d="M92.6,126l-0.2-0.9l1.6-1.4l3.1-0.8l3.1,0.1l1.1,0.6v0.8l-2.5-0.6l-3.8,0.6L92.6,126z"/>
		</g>
		<path class="st10" d="M87.3,139.3v-19.9h19.9v19.9H87.3z"/>
	</g>
	<g>
		<path class="st3" d="M157.9,122.4v-19.9h19.9v19.9H157.9z"/>
		<g>
			<path class="st28" d="M172.6,111.3l-0.1-1.8l2.8-0.5l-0.9,1.2L172.6,111.3z"/>
			<path class="st29" d="M171.3,118.5l-6.8,3.5l0.3-1.1l1.7-1.9l4.6-2.7l1.7,0.3l0.4,1.3L171.3,118.5z"/>
			<path class="st30" d="M167.2,119.3l0.8-4.4l3.5-0.2l0.2,2.9l0.2,1.4l-2.1,2.7l-2.7,0.7L167.2,119.3z"/>
			<path class="st29" d="M164.6,122.2l2.5-3.1l0.9,2.2l3.8-3.5l1.4-0.2l0.2,0.5l1.1,0.9l-0.2,0.6l2,1.2l1.1,1.1L164.6,122.2z"/>
			<path class="st31" d="M171,116.8l-1.2,1l-1.4,1.4l-1.8,0.1l-0.5-0.9l-0.7-0.8l-0.6-1.7l-0.6-0.7l-0.1-1.4l-0.4-1.1l1.9-3.3
				l3.7-0.3l2.3,3.9l0.5,1.2l-0.8,1.1L171,116.8z"/>
			<path class="st32" d="M171.2,113.8l-0.7-1.9l-1.1-0.8l2-1.8l2.2,2.4h-0.5v0.3l-0.6,0.1l-1,0.7L171.2,113.8z"/>
			<path class="st31" d="M171.6,112.7l0.5-0.8l0.7-0.4l0.4,1v1.1l-0.7,0.8l-0.3,0.7l-0.9-0.1L171.6,112.7z"/>
			<path class="st28" d="M160.2,112.8l0.2-0.7l3-1.5l9.3-1.9l1.7-0.8l1,0.3l-0.1,1l-6.8,2.9l-6.3,1.1L160.2,112.8z"/>
			<path class="st33" d="M163,111.2l0.2-2.1l0.3-0.3l0.4-1.4l-0.1-1.5l0.9-1.1l1.5,0.3l3.3-0.9l1.6,0.9l0.3,1.6l0.6,1.5l0.5,0.1
				l0.1,0.5l-2.1,1.3l-5.4,1.2L163,111.2z"/>
		</g>
		<path class="st10" d="M157.9,122.4v-19.9h19.9v19.9H157.9z"/>
	</g>
	<g>
		<path class="st3" d="M130.3,173v-19.9h19.9V173H130.3z"/>
		<g>
			<path class="st34" d="M133.1,172.8l1-1.9l1.2-4.6l0.4-3.8l0.6-1.8l7-1.6l2.2,4.1l-0.5,1.1l-0.1,1.5l0.5,2.8l-0.1,2.4l-0.2-2.7
				l-0.3-1l-0.1,3.8l0.5,1.8l-1.8-0.1l-0.2-2.6l-0.1-2.2l-0.1,1.3l0.6,3.7L133.1,172.8z"/>
			<path class="st35" d="M135.7,169.7l1.3-1.6l1-1.8l0.1-2.3l3.2,2.7l-0.7,1.5l-0.1,0.8l1,0.9l-0.5,0.6L135.7,169.7z"/>
			<path class="st36" d="M134.4,172.8l0.3-1.9l1.3-1.5l0.9-0.3l2.1,0.4l2,0.8l0.3-0.2l-0.8-0.9l1.1,0.7l1.7,3L134.4,172.8z"/>
			<path class="st37" d="M141.8,167.8l-0.8-0.1l-1.4-1l-1.1-1.2l-0.4-1.3l-0.2-2.7l1.1-3l4.9,0.2l1.4,2.3l-0.1,1.8l-0.6,1l-0.6,1.9
				l-0.7,0.9L141.8,167.8z"/>
			<path class="st34" d="M136.9,168.1l-0.8-2.2l0.2-6.5l5.1-1.3l4.3,1.8l0.3,2.8l-0.4,1.2l-0.5-0.3l-0.1-0.9l-0.4,0.4l-0.1-1.3
				l-0.5,1l-1.1-0.2l0.5-0.7l0.1-0.8l-0.7,0.9l-0.6,0.2l0.6-0.9l0.1-0.8l-1.3,1.3l-2-0.2l0.7-0.5l0.5-0.8l-1.8,1.6l-0.7,0.3
				l-0.9,1.8l1.5,4l1.8,2.8l1,1.8l-1.4,0.1l-1-2L136.9,168.1z"/>
			<path class="st37" d="M137.7,164.3l-0.7-0.6l-0.5-1.2l0.2-1l0.5-0.4l0.5,0.2l0.2,0.5l0.2,0.2l0.1,2.2L137.7,164.3z"/>
			<path class="st38" d="M136.3,161.3l-1-1.4v-1.4l1.2-1.2l0.7-0.9l1.1-0.5l1.2-0.1l1.1-0.4l1.6,0.3l0.9,0.5l0.5-0.4l0.4,0.2
				l-0.4,0.4l1.4,0.5l0.7,0.7l0.5,1.2l0.8,1l0.4,1.4l-0.5,0.9l-0.9,0.5l-0.4-1.6l-1.3-1.3l-1.9-0.7l-2.3-0.1l-2.4,0.7l-1.3,0.9
				L136.3,161.3z"/>
			<path class="st39" d="M137.5,164.3v-0.2l0.1-0.3h0.1l-0.1,0.3l0.1,0.2l0.1,0.2l-0.2,0.2l-0.2-0.2L137.5,164.3z"/>
		</g>
		<path class="st10" d="M130.3,173v-19.9h19.9V173H130.3z"/>
	</g>
	<g>
		<path class="st3" d="M44.5,98.6V78.7h19.9v19.9H44.5z"/>
		<g>
			<path class="st40" d="M55.7,98l-0.1-2.6l0.6,0.4l1.4,1.6l0.8,0.6H55.7z"/>
			<path class="st41" d="M49.6,94.7l0.8-1.5l5.5,2l0.5,1.9l-0.1,1l-2.8,0.1L49.6,94.7z"/>
			<path class="st42" d="M50.4,93.2l0.3-1l0.2-1.8l5.2-0.2l0.1,4.5L55.9,96l-0.5,0.9L50.4,93.2z"/>
			<path class="st43" d="M52.4,93.1l-0.4-2l-0.2-2.7l0.5-3.1l6.7,0.4l0.5,2.9l-0.5,1v1.1l-0.4,0.9l-0.2,0.9l-0.6,1.3l-0.1,0.7L57,95
				l-1.6-0.2L52.4,93.1z"/>
			<path class="st44" d="M50.2,88.8l0.4-2.5l3.6-0.3l-0.7,1.4l-0.6,0.3l-0.4,1.6l-0.4-0.1l-0.3-0.7L51.2,89L51,91.1l-0.2,0.7
				l-0.2-0.4L50.2,88.8z"/>
			<path class="st43" d="M50.1,89.2l0.4-1.1L51,88l0.6,0.4l0.3,0.1l0.3,2.4l-0.8,0.2l-0.9-0.9L50.1,89.2z"/>
			<path class="st45" d="M52.4,93.1l-0.2-1.9l0.1-1.8l0.3,0.1l0.4,1.4l2,1.9l0.6,0.8l1.1,0.5l0.8-0.4l0.9-1.1l-0.6,1.3l-0.1,0.7
				L57,95l-1.7-0.2L52.4,93.1z"/>
			<path class="st40" d="M44.8,98.3l-0.1-0.8l2.6-1.8l1.2-0.6l-0.2-0.4l0.7-0.9l0.5-1.2l1-0.1L50.4,93l-0.2,0.3l2.1,2l2,2.8
				L44.8,98.3z"/>
			<path d="M45.8,97.6l1.2-0.8l1.1-0.9l1.1,0.1l0.4,0.7l-1.7,1.6h-0.8L45.8,97.6z"/>
			<path class="st15" d="M48.3,96.5l-0.2-0.3l0.5-0.1l0.2,0.3L48.3,96.5z"/>
			<path class="st46" d="M50.7,85.3l0.9-3.2l2.3-0.8l1.9,0.3l2.6,0.1l1.1,1.9l-0.1,2.3l1.7,1.2l0.2,1.2l-1,0.5L57.5,88L54,87.5
				l-3.4,0.1l-0.2,0.9l-1.3,0.4l-0.5-1.4l0.4-0.9L50.7,85.3z"/>
			<path class="st47" d="M52.6,85.8l-1.2-0.6l3.5,0.3l3.6-0.2l0.5,0.6l-0.7-0.1L55.8,86L52.6,85.8z"/>
		</g>
		<path class="st10" d="M44.5,98.6V78.7h19.9v19.9H44.5z"/>
	</g>
	<g>
		<path class="st3" d="M208.6,137v-19.9h19.9V137H208.6z"/>
		<g>
			<path class="st48" d="M223.9,133.6l-5,3h-3.3l-0.6-3l2.4-8.1h7.8l0.6,2.7L223.9,133.6z"/>
			<path class="st31" d="M223.5,130.8l-7.9,2.2l-1.4-2.5l0.1-1.8l-0.4-1.6l0.2-1.1l-0.9-1.3l0.6-0.9l0.2-1.2l0.8-1.7l3-1.4l4.7,0.3
				l1.9,2.8l0.7,3.1L223.5,130.8z"/>
			<path class="st49" d="M216.9,136.7l-5.9-0.2l4.3-2.1l0.6,2.1h2l5.7-4.4l2.1-4.7l0.7,2.5l1.9,3.5l-0.1,3.2L216.9,136.7z"/>
			<path class="st50" d="M219.8,135l-3.8,0.6l-2.2-1.7l0.4-3.1l2-0.2l1.5,0.2l0.8-0.2l-0.2-0.9l-2.2-0.4l-2.1,0.8V129l1.1-0.9
				l1.8-0.5l2.9,1.6l2.4-5.9l1.6,0.3l-0.1,4.1l0.2,3.1L219.8,135z"/>
			<path class="st50" d="M222.8,123.9l-2-1.5v-2L219,120l-3.3,1.3l-0.9-0.1l-0.6,0.4v-0.8l2.6-1.9h4.3l2.9,1.8l0.8,3.5L222.8,123.9z
				"/>
			<path class="st31" d="M223.7,127.9l-0.3-3.4l0.9-1l0.9,0.1l0.7,1.9l-1.3,2.7L223.7,127.9z"/>
			<path class="st51" d="M215.6,130.5l-3.3,1.2l-0.3-1.4l3.7-0.9l1,0.4L215.6,130.5z"/>
			<path class="st52" d="M212.3,131.8l-0.8-0.5l0.5-0.9l1,0.4L212.3,131.8z"/>
		</g>
		<path class="st10" d="M208.6,137v-19.9h19.9V137H208.6z"/>
	</g>
	<g>
		<path class="st3" d="M131.6,67.9V48h19.9v19.9H131.6z"/>
		<g>
			<path class="st53" d="M140.3,66.8l-4.1-2.9l0.8-1.5l0.6-3.6l1.6,0.3l3.7,3.9l-0.4,0.8l-0.1,0.9l-0.8,1.1l0.5,1.4L140.3,66.8z"/>
			<path class="st54" d="M145.5,55.8l-8.8,1.9l-1.8-0.5v-0.6l5.9-2.8l6.5,0.1l0.3,0.5L145.5,55.8z"/>
			<path class="st55" d="M145.6,55.8l-0.8-1.2l0.3-0.4l0.8,0.2l0.2,0.7L145.6,55.8z"/>
			<path d="M145.1,57.3l0.1-0.3h1.1l0.2-0.1L147,57l-0.1,0.4L145.1,57.3z"/>
			<path class="st56" d="M142.6,63.6l-3.5-1.6l-1.8-5.6l2.1-2.6l5.3-0.3l1.1,2.9l-0.4,1.2l0.1,2.1l-0.8,2.3l-0.3,1.6L142.6,63.6z"/>
			<path class="st55" d="M137.9,57.1l-1.6-0.3l0.2-1l3.9-1.5l-0.4,1.3l-0.8,0.6L139,58L137.9,57.1z"/>
			<path class="st56" d="M138,60l-1.1-0.7l-0.7-1.6l0.7-1.1l1,0.5l0.8,2.6L138,60z"/>
			<path class="st54" d="M146.2,54.7l-2.5-0.5l-5.6,1.2l-2,1.5l-1.2,0.2l-0.3-1l1.7-1.2l0.1-3.5l2.7-1.8l2.7,0.1l1.1-0.2l2.2,3.7
				l2.3,0.5l0.1,0.8L146.2,54.7z"/>
			<path class="st55" d="M144.1,60.6l-2.2,0.4l-0.4-0.8l0.6,0.1l2.2-0.5l1.1,0.8l0.4-0.2l-0.5,0.7L144.1,60.6z"/>
			<path class="st57" d="M132.3,67.3l3.1-3l0.4-0.7l0.5-0.1l0.3-0.5l2.1,1.1l2.6,2.3l0.3-0.5l0.9,1.4L132.3,67.3z"/>
			<path class="st15" d="M142.6,58.5l-0.9-0.3l-0.2-1.1l1.2-0.5l0.9,0.5l-0.1,0.9L142.6,58.5z"/>
			<path class="st15" d="M145.5,58.6l-0.8-0.5l0.1-1l0.8-0.4l0.7,0.2V58L145.5,58.6z"/>
			<path d="M145.5,58.9l-1.1-0.4v-1.2h-0.8l-0.2,0.9l-0.8,0.6l-1-0.1L141,58l-0.1-0.8l-3.7-0.4v-0.3l3.7,0.2l1.5-0.5l1.1,0.6h0.8
				l1.1-0.4l0.9,0.4l-0.1,1.4L145.5,58.9z M146.2,58.1v-1l-0.7-0.2l-0.8,0.3l-0.1,0.9l0.8,0.5L146.2,58.1z M143.3,58.1l0.1-0.9
				l-0.8-0.5l-1.1,0.4l0.2,1.1l0.9,0.3L143.3,58.1z"/>
			<path class="st58" d="M141.6,53.2l-5.2,1.8l0.1-0.6l5.2-2.2l2.8,0.1l0.5,0.9H141.6z"/>
		</g>
		<path class="st10" d="M131.6,67.9V48h19.9v19.9H131.6z"/>
	</g>
	<g>
		<path class="st11" d="M263.7,169.4v-19.9h19.9v19.9H263.7z"/>
		<g>
			<path class="st59" d="M272.8,169v-3.3l1.4-0.1l1.7,2.2l-0.5,0.6l0.6,0.6H272.8z"/>
			<path class="st59" d="M267.9,162.1l0.3-0.9l1.5-0.2l0.2,1.1L267.9,162.1z"/>
			<path class="st60" d="M279.3,159l-0.4-0.6l-0.4,0.8l-1.1-3.4l0.9-0.3l1.2,2.1l-0.6-0.5L279.3,159z"/>
			<path class="st60" d="M269.3,161.6l-0.4-0.6l-0.2-0.3l-0.2,0.3l-0.5-1.3l0.8-0.1l-0.1-1.4l-0.6,0.5l0.7-1.8l-0.6,0.1l-0.1-0.8
				l2.1-1.9l2-1.1l-0.5,7.8L269.3,161.6z"/>
			<path class="st61" d="M268.8,162.8l1-2.1l1.6,0.5l3.5,4.1l-1.4,1.3l0.2,1.6l-0.8-0.5L268.8,162.8z"/>
			<path class="st31" d="M271,162.7l-1-5l1.3-3.1l3-0.6l2.9,1l1.1,1.7l0.2,2.2l0.1,0.8l-0.6,0.9l-0.3,1.6l-1.1,1.4l-0.8,2h-1.4
				l-2-1.1L271,162.7z"/>
			<path class="st60" d="M271.2,160.2l-1.2-1.6l-0.1-1.2l0.4-2.5l1.7-1.6l-2,0.2l1.5-0.9h1.5l1.9,0.2l-1.4-0.6l2.1-0.1l1,1l0.7-0.1
				l0.5,0.3l-0.1,0.8l1,0.4l0.7,0.6l-1.3-0.2l1,0.5l0.5,0.8l-1.6-0.5l-0.6,0.3l-3.3-1.3l-2.1,1l0.3,1L271.2,160.2z"/>
			<path class="st31" d="M270.3,161.5l-1.1-1.6v-1.8l0.6-0.3l0.5,0.3v0.3l-0.2,0.3l0.3,0.4l0.5,2.2L270.3,161.5z"/>
			<path class="st62" d="M264,168.8v-3.2l3.2-2.8l-0.1-0.4l0.7-0.4l0.5-0.8l1.9,1.8l3.2,4.6v0.3l1,0.2v0.8L264,168.8z"/>
		</g>
		<path class="st10" d="M263.7,169.4v-19.9h19.9v19.9H263.7z"/>
	</g>
	<g>
		<path class="st3" d="M194.9,168.5v-19.9h19.9v19.9H194.9z"/>
		<g>
			<path class="st63" d="M200.3,168l0.4-3l-0.5-3.6l2.2,0.3l4.6,4.1l-0.4,2.2H200.3z"/>
			<path class="st64" d="M199.6,160.1l-2.3-1.1l0.1-1l9.3-2.9l5.6,1.4v0.4l-2.4,1.3L199.6,160.1z"/>
			<path class="st65" d="M200,157.7l3.4-2.2l6.1,0.4l0.7,2.7l-0.7,1.5l0.2,0.9l-1,4.7l-0.6,0.7l-1.6-0.2l-4-2L200,157.7z"/>
			<path d="M199.8,159.2l0.1-1.4l4.3-2l-0.3,1.5l-1,0.8l-0.6,2.3l-0.7-1.1L199.8,159.2z"/>
			<path class="st15" d="M208.8,159.7l0.4-0.6l1.1,0.1l0.4,0.5l-0.4,0.8l-0.9,0.2L208.8,159.7z"/>
			<path class="st15" d="M205.4,159.1l0.7-0.6l1,0.2l0.5,0.7l-0.8,0.9l-1.1-0.2L205.4,159.1z"/>
			<path d="M205.5,160.1l-0.3-1.2h-0.5l-4.2,0.2l-0.2-0.3l4.4-0.3l0.6,0.1l0.8-0.4l1,0.1l0.8,0.7l0.5-0.1l0.4,0.3l0.8-0.4l0.9,0.3
				l0.4,0.4h0.3v0.4h-0.3l-0.4,1l-0.9,0.4l-1-1v-0.8l-0.3-0.1l-0.5,0.1l-0.3,0.8l-1.2,0.6L205.5,160.1z M205.8,160.1l1,0.2l0.8-0.8
				l-0.5-0.7l-1-0.2l-0.7,0.6L205.8,160.1z M209.6,160.6l0.9-0.1l0.3-0.7l-0.4-0.5l-1.1-0.1l-0.4,0.6L209.6,160.6z"/>
			<path class="st65" d="M201.2,162.4l-1.3-1.5l-0.5-1.5l0.7-0.7l1.5,0.4l0.5,2.8L201.2,162.4z"/>
			<path class="st64" d="M197.3,157.9l2.5-1.7l0.2-2.5l2.1-1.7l3.6-1.1l2.2,0.6l1.8,3.6l1.8,0.4l1.2,0.8l-0.3,0.7l-2.5-0.1l-1.9-0.7
				l-4.1,0.4l-6.5,2.6L197.3,157.9z"/>
			<path class="st66" d="M201.8,154.8l4.3-0.8l2.7,0.2l0.3,0.5l-4.2-0.1L200,156L201.8,154.8z"/>
		</g>
		<path class="st10" d="M194.9,168.5v-19.9h19.9v19.9H194.9z"/>
	</g>
	<g>
		<path class="st11" d="M28.9,39.9V20h19.9v19.9H28.9z"/>
		<g>
			<path class="st67" d="M33.6,32.2l-1-3.3l0.4-0.6l1.8,0.1l0.9,2.8l-0.6,1.6L33.6,32.2z"/>
			<path class="st68" d="M32.7,30.6V29l0.8,0.5l1-0.1l-0.1,1.5l-1,0.1L32.7,30.6z"/>
			<path class="st67" d="M42.7,30.2l-0.6-6l1.8,0.5l1.3,1l-0.8,1.9l0.8,1.4L45,29.6L42.7,30.2z"/>
			<path class="st69" d="M43.7,29.5l-0.1-1.1l0.7-0.7l0.7,1.5L43.7,29.5z"/>
			<path class="st68" d="M43.9,30.6l-0.6-1.2l0.9-0.6l0.7,0.4L44.8,30L43.9,30.6z"/>
			<path class="st70" d="M39.8,39.3l-0.4-3.8l4.7,2l1.6,1.9L39.8,39.3z"/>
			<path class="st70" d="M32.8,35.1l0.4-1l1.7-0.4l0.1,1.6L32.8,35.1z"/>
			<path class="st71" d="M33.4,35.8l1-1.6l0.5-2.6l4.1-0.9l1,5.3l-0.2,1l0.5,1.3v1.1h-4.2L33.4,35.8z"/>
			<path class="st72" d="M35.9,33.2V32l-0.5,0.2l-0.8-0.7l-0.4-1.6l0.8-1.1l0.9,0.4l2.3-4.1l4,0.2l1.5,2.2l0.2,2.6L43.3,31l0.1,1.7
				l-0.8,1.6l-1,1.1L41,36.3l-1.5,0.1l-2.2-1.1L35.9,33.2z"/>
			<path class="st70" d="M29.4,39.5l-0.1-2l2.9-1.6v-0.6l1-1.3l0.6,0.4l2.4,3.8l1.4,1.3L29.4,39.5z"/>
			<path class="st67" d="M36.5,30.6L33,28.4l-0.3-1.3l1.2-1.1l-0.6-1.3l1-0.9l0.9-0.8l1.7-0.2l1.1-1.2l3.5,0.5l0.6,1l1.2,0.2l1,1.6
				l-0.9,1.7L40,26.3l-1.3,1.6l-0.9,0.5L36.5,30.6z"/>
			<path class="st69" d="M38.1,23.8L37.6,22l3.8,0.4l0.4,0.7l-0.2,0.6L38.1,23.8z"/>
			<path class="st69" d="M34.1,25.1l0.3-1.5l1.2-0.6l2.4,2l-1,1.6L34.1,25.1z"/>
			<path class="st68" d="M37.7,26.8l-0.9-0.2l-0.1-1.1L38,25l0.7,0.9L37.7,26.8z"/>
			<path class="st68" d="M36.7,23.4l0.1-1l0.8-0.3l0.6,0.7L38,23.9L36.7,23.4z"/>
			<path class="st69" d="M38.9,25.3l0.1-2.2l4.4,0.5L44,25l-0.5,1L38.9,25.3z"/>
			<path class="st68" d="M38.4,24l0.7-0.9l0.9,0.3l-0.1,1.3L39,25.3L38.4,24z"/>
			<path class="st68" d="M44.2,27.6l-0.4-1l0.3-0.7h1.1l0.2,1.3L44.2,27.6z"/>
			<path class="st68" d="M33.3,25.7l0.3-1.7l0.6,0.1L34,24.8l0.3,0.6L33.7,26L33.3,25.7z"/>
			<path class="st69" d="M32.7,28.3l-0.3-1.2l0.7-0.6l3,1.5L35,29.7L32.7,28.3z"/>
			<path class="st68" d="M35.1,29.7v-1.3l1.1-0.5l0.5,0.6l-0.5,1.2L35.1,29.7z"/>
		</g>
		<path class="st10" d="M28.9,39.9V20h19.9v19.9H28.9z"/>
	</g>
	<g>
		<path class="st3" d="M194.1,37.6V17.7H214v19.9H194.1z"/>
		<g>
			<path class="st73" d="M205,37l0.9-0.7l0.6,0.8L205,37z"/>
			<path class="st42" d="M213.5,36.9l-7.2,0.2l-1.2-1.4l-0.9-1.9l4-7.7l1.9,3.3l1.5,3.2l2,1.9L213.5,36.9z"/>
			<path class="st43" d="M203.9,35.1l-2,0.1l-0.5-1.4l-1.3-2.1l-0.4-0.4l0.1-0.5l-0.3-0.6l-0.1-1.1l-1-0.8l0.2-1.1l-0.2-2.6l7.2-3
				l2.1,2.2l0.4,8L203.9,35.1z"/>
			<path class="st74" d="M208.9,27.9l-0.5-2.4l-1.2,0.7l-0.3,1.7l-1.3-2l-1.5-0.6l-0.3-1.9l-5.6,2l0.1-1.9l2.5-2.7l3.6-1.1l2.8,0.6
				l2,2l0.8,3.4l0.5,4.4L208.9,27.9z"/>
			<path class="st43" d="M207.4,29.3l-0.1-3.1l0.9-0.9l0.9,0.1l0.8,1.4l-1.2,2.6L207.4,29.3z"/>
			<path class="st73" d="M207.5,37l3.3-2.5l2.7-0.1l-0.1,2.5L207.5,37z"/>
			<path class="st75" d="M204.7,29.3l-1.1-0.4l1.3,0.2l1.1,0.6L204.7,29.3z"/>
		</g>
		<path class="st10" d="M194.1,37.6V17.7H214v19.9H194.1z"/>
	</g>
	<g>
		<path class="st3" d="M273.2,104.9V85h19.9v19.9H273.2z"/>
		<g>
			<path class="st76" d="M283.6,103.4l-5.8-3.6l0.5-6.2l7.1-5.8h1.8l1.4,1.3l1.8,5.1l-0.1,4l-1,1.3l0.1-1.4l-1.4,2.8l0.4,1.5
				l0.8,0.2l-1.2,1.6L283.6,103.4z"/>
			<path class="st35" d="M277.6,104.6l1.4-2.3l0.4-5.3l3-0.5l2,3.9l-0.6,3.9L277.6,104.6z"/>
			<path class="st76" d="M276.1,96.3l1.1-4.4l1.6-2.7l2.4-0.7l-2.6,8.3l0.8,4.3l0.8,0.8v1.3h-2.3l-2.6-1.2l1.2-0.8l0.3-1l-0.2-3
				l-0.4,2.1L276.1,96.3z"/>
			<path class="st37" d="M280.3,99l-0.7-2.4l-0.4-2.5l0.2-2.7l3.8-3.1l3.9,1.3l0.9,2.3l0.3,2.4l-0.5,1l0.1,1.7l-0.5,1.3l-1.2,1.7
				l-0.7,1.3l-0.7,0.2l-2.3-0.7L280.3,99z"/>
			<path class="st37" d="M279,97.2l-1.1-1.3l-0.1-1.5l0.5-0.8h0.5l0.7,0.6l0.4,2.8L279,97.2z"/>
			<path class="st77" d="M279.1,94.5l-0.1-1.8l-1.2-1.2l1-2.3l2.2-1.8l1.8-0.1l1.5-0.3l2.9,0.9l1.4,1.3l0.9,2.6l-0.1,1.2h-1
				l-0.7-1.5l-2.3-0.8l-2.6,0.3l-1,1.5l-1.2,0.9l-0.9,2.8L279.1,94.5z"/>
		</g>
		<path class="st10" d="M273.2,104.9V85h19.9v19.9H273.2z"/>
	</g>
	<g>
		<path class="st3" d="M102.4,30.6V10.7h19.9v19.9C122.3,30.6,102.4,30.6,102.4,30.6z"/>
		<g>
			<path class="st78" d="M106.2,30.1l3.3-2l1.2-2h0.7V30L106.2,30.1z"/>
			<path class="st79" d="M112.2,30l-1.2,0.1l-0.2-0.9l0.3-1.2l-0.4-1l-0.2-1.5l3.4-4.1l2.1,0.4l0.3,2.5l0.6,1.3L112.2,30z"/>
			<path class="st80" d="M117.1,22.5l-0.4,0.2l-0.1,0.6l-0.8,0.2l-8-3.3l-0.3-0.3l0.2-0.4l-0.4-0.4l0.2-0.6l-0.9-0.6l0.9-0.6
				l-0.8-0.3l-0.1-0.8l0.4,0.5v-0.5l0.3-0.4h9.7l0.2,1.6l-0.1,0.5l0.5,0.2l-0.3,0.7l0.1,0.5l-1,1.5v0.5l0.4,0.9l0.5-0.2L117.1,22.5z
				"/>
			<path class="st81" d="M111.9,26.4l-1.9-0.3l-0.5-1l-1-1.2l-0.7-2l0.2-1.2l-0.4-0.9l0.3-0.8l0.1-1.1l0.5-2.1l4.1-1.1l3.8,2.1
				l-0.6,2.9l0.6-0.7l0.5,0.1l0.4,1.2l-0.8,1.9l-0.6,0.4l-0.4-0.4l-0.4,1.9L111.9,26.4z"/>
			<path class="st80" d="M114.9,21l-0.2-2.1l-0.8-0.6l0.1-1.7l-0.5-0.2l-0.8,0.2l-0.6-0.8l-0.7-0.1l-0.8,0.5l-1-0.1l-1.2,0.6l-1-1.1
				v-1.2h1.2l0.2-1.1l1.2,0.1l1-0.9l1,0.6l1.4-0.4l0.9,0.8l1.3,0.1l0.2,1l1.2,1.1l-0.9,3.4l0.2,0.4l-0.7,0.6l-0.1,0.9L114.9,21z"/>
			<path class="st78" d="M111.8,30.1v-1l1-0.4l3.6-3.8l-0.1-0.7l0.6,0.2l0.8,1.6l0.7,0.2l3.4,2.2l-0.1,1.8L111.8,30.1z"/>
		</g>
		<path class="st10" d="M102.4,30.6V10.7h19.9v19.9C122.3,30.6,102.4,30.6,102.4,30.6z"/>
	</g>
</g>
<g>
	<g class="st82">
		<path class="st83" d="M145.6,15c0,0.3,0,0.6-0.2,0.8c-0.1,0.2-0.3,0.4-0.6,0.5l-0.4,0.2c-0.2,0.1-0.3,0.2-0.4,0.3
			c-0.1,0.1-0.1,0.2-0.1,0.3v0.5h-0.2l-0.1-0.3c-0.1-0.1-0.1-0.3-0.1-0.4s0-0.2-0.1-0.3c0-0.2,0-0.3,0.1-0.4s0.3-0.2,0.5-0.4
			l0.5-0.2c0.2-0.1,0.4-0.3,0.5-0.4c0.1-0.1,0.1-0.3,0.1-0.5s-0.1-0.4-0.2-0.5c-0.1-0.2-0.3-0.3-0.6-0.5l0.9,0.5l-1.7-0.1
			c-0.2,0-0.4-0.1-0.5-0.1c-0.1-0.1-0.1-0.2-0.1-0.3s0-0.2,0.1-0.3s0.2-0.1,0.3-0.2c0.2,0,0.5,0.1,0.7,0.2c0.3,0.1,0.5,0.2,0.7,0.4
			c0.2,0.1,0.4,0.3,0.6,0.5C145.5,14.5,145.5,14.7,145.6,15z M144,19.5c-0.2,0-0.3,0-0.4-0.1c-0.1-0.1-0.2-0.2-0.2-0.4
			c0-0.2,0-0.3,0.1-0.4s0.2-0.2,0.4-0.2s0.3,0,0.5,0.1c0.1,0.1,0.2,0.2,0.2,0.4c0,0.2,0,0.3-0.1,0.4C144.3,19.5,144.2,19.5,144,19.5
			z"/>
		<path class="st83" d="M149.3,14.8c0,0.3,0,0.6-0.2,0.8c-0.1,0.2-0.3,0.4-0.6,0.5l-0.4,0.2c-0.2,0.1-0.3,0.2-0.4,0.3
			c-0.1,0.1-0.1,0.2-0.1,0.3v0.5h-0.2l-0.1-0.3c-0.1-0.1-0.1-0.3-0.1-0.4s0-0.2-0.1-0.3c0-0.2,0-0.3,0.1-0.4s0.3-0.2,0.5-0.4
			l0.5-0.2c0.2-0.1,0.4-0.3,0.5-0.4c0.1-0.1,0.1-0.3,0.1-0.5s-0.1-0.4-0.2-0.5c-0.1-0.2-0.3-0.3-0.6-0.5l0.9,0.5l-1.7-0.1
			c-0.2,0-0.4-0.1-0.5-0.1c-0.1-0.1-0.1-0.2-0.1-0.3s0-0.2,0.1-0.3s0.2-0.1,0.3-0.2c0.2,0,0.5,0.1,0.7,0.2c0.3,0.1,0.5,0.2,0.7,0.4
			c0.2,0.1,0.4,0.3,0.6,0.5C149.2,14.2,149.3,14.5,149.3,14.8z M147.7,19.3c-0.2,0-0.3,0-0.4-0.1c-0.1-0.1-0.2-0.2-0.2-0.4
			s0-0.3,0.1-0.4s0.2-0.2,0.4-0.2s0.3,0,0.5,0.1c0.1,0.1,0.2,0.2,0.2,0.4s0,0.3-0.1,0.4C148.1,19.2,147.9,19.3,147.7,19.3z"/>
		<path class="st83" d="M153.1,14.5c0,0.3,0,0.6-0.2,0.8c-0.1,0.2-0.3,0.4-0.6,0.5l-0.4,0.2c-0.2,0.1-0.3,0.2-0.4,0.3
			c-0.1,0.1-0.1,0.2-0.1,0.3v0.5h-0.2l-0.1-0.3c-0.1-0.1-0.1-0.3-0.1-0.4s0-0.2-0.1-0.3c0-0.2,0-0.3,0.1-0.4
			c0.1-0.1,0.3-0.2,0.5-0.4l0.5-0.2c0.2-0.1,0.4-0.3,0.5-0.4c0.1-0.1,0.1-0.3,0.1-0.5s-0.1-0.4-0.2-0.5c-0.1-0.2-0.3-0.3-0.6-0.5
			l0.9,0.5l-1.7-0.1c-0.2,0-0.4-0.1-0.5-0.1c-0.1-0.1-0.1-0.2-0.1-0.3s0-0.2,0.1-0.3s0.2-0.1,0.3-0.2c0.2,0,0.5,0.1,0.7,0.2
			c0.3,0.1,0.5,0.2,0.7,0.4c0.2,0.1,0.4,0.3,0.6,0.5C153,14,153,14.2,153.1,14.5z M151.5,19c-0.2,0-0.3,0-0.4-0.1
			c-0.1-0.1-0.2-0.2-0.2-0.4c0-0.2,0-0.3,0.1-0.4s0.2-0.2,0.4-0.2s0.3,0,0.5,0.1c0.1,0.1,0.2,0.2,0.2,0.4c0,0.2,0,0.3-0.1,0.4
			C151.8,19,151.7,19,151.5,19z"/>
	</g>
	<g class="st82">
		<path class="st83" d="M31.4,53.8c0-0.1,0-0.2-0.1-0.4c0-0.2-0.1-0.3-0.1-0.5s-0.1-0.3-0.1-0.5L31,51.9c0-0.2-0.1-0.4-0.1-0.5
			s-0.1-0.3-0.1-0.4h-0.5v-0.2l1-0.5h0.1l0.2,0.7l0,0l0.2,1.1c0,0.1,0.1,0.3,0.1,0.5S32,53,32,53.1c0,0.2,0.1,0.3,0.1,0.4L31.4,53.8
			z M30.9,53.8v-0.2l0.6-0.2l0.3-0.1l0.7-0.1v0.2L30.9,53.8z M33.5,53.3c0-0.1,0-0.2-0.1-0.4c0-0.2-0.1-0.3-0.1-0.5
			s-0.1-0.3-0.1-0.5L33,51.1c-0.1-0.3-0.1-0.5-0.3-0.6c-0.1-0.1-0.2-0.1-0.4-0.1c-0.1,0-0.3,0.1-0.4,0.2c-0.2,0.1-0.3,0.3-0.5,0.6
			L31.3,51h0.1c0.2-0.3,0.3-0.6,0.5-0.7c0.2-0.2,0.4-0.3,0.6-0.3c0.3-0.1,0.5,0,0.7,0.1s0.3,0.4,0.4,0.8l0.2,0.7
			c0,0.1,0.1,0.3,0.1,0.5s0.1,0.4,0.1,0.5c0,0.2,0.1,0.3,0.1,0.4L33.5,53.3z M33,53.4v-0.2l0.6-0.2l0.3-0.1l0.7-0.1V53L33,53.4z"/>
		<path class="st83" d="M35.5,52.9c0-0.1,0-0.2-0.1-0.4c0-0.2-0.1-0.3-0.1-0.5s-0.1-0.3-0.1-0.5l0-0.5c0-0.2-0.1-0.4-0.1-0.5
			c0-0.2-0.1-0.3-0.1-0.5l-0.5,0.1v-0.2l1.1-0.5h0.1l0.2,0.9l0.2,0.9c0,0.1,0.1,0.3,0.1,0.5s0.1,0.4,0.1,0.5c0,0.2,0.1,0.3,0.1,0.4
			L35.5,52.9z M35,48.8c-0.1,0-0.2,0-0.3-0.1s-0.2-0.1-0.2-0.3c0-0.1,0-0.2,0.1-0.3s0.2-0.2,0.3-0.2s0.2,0,0.3,0.1s0.2,0.1,0.2,0.3
			c0,0.1,0,0.2-0.1,0.3C35.2,48.7,35.1,48.8,35,48.8z M35.1,53v-0.2l0.6-0.2l0.3-0.1l0.7-0.1v0.2L35.1,53z"/>
		<path class="st83" d="M37.6,52.4c0-0.1,0-0.2-0.1-0.4c0-0.2-0.1-0.3-0.1-0.5s-0.1-0.3-0.1-0.5l-0.1-0.4c0-0.2-0.1-0.4-0.1-0.5
			S37,49.8,37,49.7l-0.5,0.1v-0.1l1-0.5h0.1l0.2,0.7l0,0L38,51c0,0.1,0.1,0.3,0.1,0.5s0.1,0.4,0.1,0.5c0,0.2,0.1,0.3,0.1,0.4
			L37.6,52.4z M37.2,52.5v-0.2l0.6-0.2l0.3-0.1l0.7-0.1v0.2L37.2,52.5z M39.7,52c0-0.1,0-0.2-0.1-0.4c0-0.2-0.1-0.3-0.1-0.5
			s-0.1-0.3-0.1-0.5l-0.2-0.7c-0.1-0.3-0.1-0.5-0.3-0.6c-0.1-0.1-0.2-0.1-0.4-0.1s-0.3,0.1-0.5,0.3c-0.1,0.1-0.3,0.3-0.4,0.6
			l-0.1-0.2h0.1c0.1-0.3,0.3-0.5,0.5-0.7s0.4-0.3,0.6-0.3c0.3-0.1,0.5,0,0.7,0.1c0.2,0.2,0.3,0.4,0.4,0.8l0.2,0.7
			c0,0.1,0.1,0.3,0.1,0.5s0.1,0.4,0.1,0.5c0,0.2,0.1,0.3,0.1,0.4L39.7,52z M39.2,52.1v-0.2l0.6-0.2l0.3-0.1l0.7-0.1v0.2L39.2,52.1z
			 M41.7,51.6c0-0.1,0-0.2-0.1-0.4c0-0.2-0.1-0.3-0.1-0.5s-0.1-0.3-0.1-0.5l-0.2-0.7c-0.1-0.3-0.1-0.5-0.3-0.6
			c-0.1-0.1-0.2-0.1-0.4-0.1s-0.3,0.1-0.4,0.2c-0.1,0.1-0.3,0.3-0.4,0.6l-0.1-0.3h0.1c0.1-0.3,0.3-0.5,0.5-0.7s0.4-0.3,0.6-0.3
			c0.3-0.1,0.6,0,0.7,0.1s0.3,0.4,0.4,0.8l0.2,0.7c0,0.1,0.1,0.3,0.1,0.5s0.1,0.4,0.1,0.5c0,0.2,0.1,0.3,0.1,0.4L41.7,51.6z
			 M41.2,51.7v-0.2l0.6-0.2l0.3-0.1l0.7-0.1v0.2L41.2,51.7z"/>
		<path class="st83" d="M43,49.7l-0.1-0.4l1.7-0.4l0.1,0.4L43,49.7z"/>
		<path class="st83" d="M47.1,50.5c-0.3,0.1-0.6,0.1-0.9,0c-0.3-0.1-0.5-0.2-0.7-0.5c-0.2-0.2-0.3-0.5-0.4-0.9s-0.1-0.7,0-1
			s0.3-0.5,0.5-0.7s0.5-0.3,0.7-0.4c0.3-0.1,0.6-0.1,0.8,0c0.3,0.1,0.5,0.2,0.7,0.5c0.2,0.2,0.3,0.5,0.4,0.9c0.1,0.4,0.1,0.7,0,1
			s-0.2,0.5-0.5,0.7C47.7,50.3,47.4,50.5,47.1,50.5z M47.1,50.3c0.3-0.1,0.5-0.2,0.6-0.5s0.1-0.7,0-1.2s-0.3-0.9-0.5-1.1
			c-0.2-0.2-0.4-0.3-0.7-0.2s-0.5,0.2-0.6,0.5s-0.1,0.7,0,1.2s0.3,0.9,0.5,1.1C46.6,50.3,46.8,50.4,47.1,50.3z"/>
		<path class="st83" d="M50,51.5c0-0.2-0.1-0.3-0.1-0.5s-0.1-0.3-0.1-0.5s-0.1-0.3-0.1-0.5l-0.4-2c0-0.2-0.1-0.4-0.1-0.5
			c0-0.2-0.1-0.3-0.1-0.4l-0.5,0.1V47l1-0.5h0.1l0.1,0.5l0,0l0.5,2.3v0.1l0.1,0.5c0,0.1,0.1,0.3,0.1,0.5s0.1,0.3,0.1,0.5
			s0.1,0.3,0.1,0.5L50,51.5z M49.5,51.6v-0.2l0.7-0.2l0.4-0.1l0.7-0.1v0.2L49.5,51.6z M51.3,49.7c-0.2,0-0.4,0-0.6,0
			c-0.2-0.1-0.4-0.2-0.6-0.3H50l0.1-0.2c0.2,0.1,0.3,0.2,0.4,0.2c0.1,0,0.3,0,0.4,0c0.2,0,0.3-0.1,0.4-0.2c0.1-0.1,0.2-0.3,0.2-0.5
			s0-0.5-0.1-0.8c-0.1-0.5-0.3-0.8-0.5-1s-0.4-0.2-0.7-0.2c-0.1,0-0.3,0.1-0.4,0.2c-0.1,0.1-0.2,0.2-0.4,0.5l-0.1-0.1h0.1
			c0.1-0.3,0.2-0.5,0.4-0.6c0.2-0.2,0.4-0.2,0.6-0.3c0.2-0.1,0.5,0,0.7,0.1s0.4,0.3,0.6,0.5c0.2,0.2,0.3,0.5,0.4,0.9
			c0.1,0.4,0.1,0.7,0,1s-0.2,0.5-0.4,0.7C51.8,49.5,51.6,49.6,51.3,49.7z"/>
		<path class="st83" d="M54.5,49c-0.3,0.1-0.5,0-0.7-0.1s-0.3-0.3-0.3-0.6c0-0.1,0-0.2-0.1-0.3c0-0.1,0-0.2-0.1-0.3L53,46.1
			l-0.6,0.1V46l0.7-0.2L53,45.9v-1.1l0.4-0.1l0.2,1.1v0.1l0.5,2.3c0,0.2,0.1,0.3,0.2,0.4c0.1,0.1,0.2,0.1,0.3,0.1s0.2,0,0.2-0.1
			c0.1,0,0.1-0.1,0.2-0.2l0.1,0.1c-0.1,0.1-0.1,0.3-0.3,0.4C54.8,48.9,54.7,48.9,54.5,49z M53.3,46v-0.2l1.2-0.2v0.2L53.3,46z"/>
	</g>
	<g class="st82">
		<path class="st83" d="M225,16.5c-0.3,0-0.6,0-0.8-0.2s-0.3-0.4-0.3-0.8c0-0.1,0-0.2,0-0.3s0-0.2,0-0.4l-0.2-2l-0.7,0.1v-0.2
			l0.8-0.2l-0.1,0.1l0.2-1.3l0.5-0.1l0.1,1.3v0.1l0.3,2.8c0,0.2,0.1,0.4,0.2,0.5c0.1,0.1,0.2,0.1,0.4,0.1c0.1,0,0.2,0,0.3-0.1
			c0.1,0,0.2-0.1,0.3-0.2l0.1,0.1c-0.1,0.2-0.2,0.3-0.4,0.4C225.5,16.4,225.3,16.5,225,16.5z M224,12.8v-0.3l1.4-0.2v0.3L224,12.8z"
			/>
		<path class="st83" d="M226.9,16.2c0-0.1,0-0.3,0-0.5s0-0.4-0.1-0.6c0-0.2,0-0.4-0.1-0.6l-0.1-0.5c0-0.3-0.1-0.5-0.1-0.6
			c0-0.2,0-0.4-0.1-0.5h-0.6v-0.2l1.3-0.5l0.1,0.1l0.2,1l0,0l0.1,1.2c0,0.2,0,0.4,0.1,0.6c0,0.2,0.1,0.4,0.1,0.6
			c0,0.2,0,0.4,0.1,0.5H226.9z M226.4,16.2V16l0.8-0.2l0.5-0.1h0.8v0.2L226.4,16.2z M227.5,13.7l-0.3-0.4h0.2c0-0.3,0.1-0.5,0.2-0.7
			c0.1-0.2,0.2-0.4,0.4-0.5s0.3-0.2,0.5-0.2s0.3,0,0.4,0.1s0.2,0.2,0.3,0.3c0,0.1,0,0.3-0.1,0.4c-0.1,0.1-0.2,0.2-0.3,0.2
			s-0.2,0-0.3-0.1c-0.1,0-0.2-0.1-0.3-0.2l-0.2-0.2h0.3c-0.2,0.1-0.4,0.3-0.5,0.5C227.7,13,227.6,13.3,227.5,13.7z"/>
		<path class="st83" d="M231.8,15.7c-0.4,0-0.7,0-1-0.1s-0.6-0.3-0.8-0.6s-0.3-0.7-0.4-1.1s0-0.8,0.1-1.1s0.4-0.6,0.6-0.8
			c0.3-0.2,0.6-0.3,0.9-0.3c0.3,0,0.7,0,1,0.1s0.6,0.3,0.8,0.6s0.3,0.7,0.4,1.1c0,0.4,0,0.8-0.1,1.2c-0.1,0.3-0.3,0.6-0.6,0.8
			S232.2,15.7,231.8,15.7z M231.8,15.5c0.3,0,0.6-0.2,0.7-0.6s0.2-0.8,0.1-1.4c-0.1-0.6-0.2-1-0.4-1.3s-0.5-0.4-0.8-0.4
			s-0.6,0.2-0.7,0.5s-0.2,0.8-0.1,1.4c0.1,0.6,0.2,1,0.4,1.3C231.2,15.4,231.4,15.5,231.8,15.5z"/>
		<path class="st83" d="M235.1,17.2c0-0.2,0-0.4-0.1-0.6c0-0.2,0-0.4-0.1-0.6c0-0.2,0-0.4-0.1-0.6l-0.3-2.4c0-0.3-0.1-0.5-0.1-0.7
			s-0.1-0.4-0.1-0.5h-0.6v-0.2l1.3-0.5l0.1,0.1l0.1,0.6l0,0l0.3,2.7v0.1l0.1,0.6c0,0.2,0,0.4,0.1,0.6c0,0.2,0.1,0.4,0.1,0.6
			c0,0.2,0.1,0.4,0.1,0.6L235.1,17.2z M234.5,17.2V17l0.8-0.2l0.5-0.1h0.8v0.2L234.5,17.2z M236.9,15.1c-0.2,0-0.5,0-0.7-0.1
			s-0.4-0.2-0.7-0.5h-0.1l0.1-0.2c0.2,0.2,0.3,0.3,0.5,0.3s0.3,0.1,0.5,0c0.2,0,0.4-0.1,0.5-0.2c0.2-0.1,0.3-0.3,0.3-0.6
			c0.1-0.3,0.1-0.6,0-1c-0.1-0.6-0.2-1-0.4-1.2s-0.5-0.3-0.8-0.3c-0.2,0-0.3,0.1-0.5,0.2c-0.2,0.1-0.3,0.3-0.5,0.5l-0.1-0.1h0.1
			c0.2-0.3,0.3-0.5,0.6-0.7c0.2-0.2,0.5-0.3,0.8-0.3s0.6,0,0.8,0.2c0.3,0.1,0.5,0.3,0.6,0.6c0.2,0.3,0.3,0.6,0.3,1.1
			c0,0.4,0,0.8-0.1,1.1s-0.3,0.6-0.5,0.8C237.5,15,237.2,15.1,236.9,15.1z"/>
		<path class="st83" d="M240.8,14.7c-0.4,0-0.7,0-0.9-0.2s-0.4-0.6-0.4-1.1l-0.2-2.3l0.2,0.1h-0.8V11l1.3-0.3l0.1,0.1l0.1,1l0.2,1.5
			c0,0.4,0.1,0.6,0.3,0.7c0.1,0.1,0.3,0.2,0.5,0.2s0.4-0.1,0.6-0.3c0.2-0.2,0.3-0.3,0.5-0.6l0.3,0.3h-0.3c-0.2,0.3-0.4,0.5-0.6,0.7
			C241.4,14.6,241.1,14.7,240.8,14.7z M242.2,14.5l-0.1-0.9l0,0l-0.3-2.7h-0.6v-0.2l1.3-0.3l0.1,0.1l0.1,1l0.3,2.6h0.5v0.2
			L242.2,14.5z"/>
		<path class="st83" d="M245.6,14.2c-0.3,0-0.6,0-0.8-0.2s-0.3-0.4-0.3-0.8c0-0.1,0-0.2,0-0.3s0-0.2,0-0.4l-0.2-2l-0.7,0.1v-0.2
			l0.8-0.2l-0.1,0.1l0.2-1.3l0.5-0.1l0.1,1.3v0.1l0.3,2.8c0,0.2,0.1,0.4,0.2,0.5c0.1,0.1,0.2,0.1,0.4,0.1c0.1,0,0.2,0,0.3-0.1
			c0.1,0,0.2-0.1,0.3-0.2l0.1,0.1c-0.1,0.2-0.2,0.3-0.4,0.4C246,14.1,245.8,14.1,245.6,14.2z M244.6,10.5v-0.3L246,10v0.3
			L244.6,10.5z"/>
	</g>
	<g class="st82">
		<path class="st83" d="M44.6,103.7v-0.2l1.6,0.3v0.2l-0.8-0.1h-0.2L44.6,103.7z M45.5,107.1l-0.5-3.5l0.7,0.1l0.4,2.9H46v-0.1
			l1.4-2.5l0.3,0.1l0.4,2.9H48v-0.1l1.3-2.5l0.3,0.1l-1.7,3.1l-0.3-0.1l-0.4-3h0.2l-0.1,0.1l-1.5,2.5H45.5z M46.7,104.1v-0.2
			l1.5,0.3v0.2l-0.7-0.1h-0.2L46.7,104.1z M48.7,104.4v-0.2l1.3,0.2v0.2h-0.5h-0.1L48.7,104.4z"/>
		<path class="st83" d="M50.4,108.1c-0.3,0-0.4-0.2-0.6-0.3c-0.1-0.2-0.2-0.4-0.1-0.7c0-0.2,0.1-0.3,0.2-0.4
			c0.1-0.1,0.2-0.2,0.4-0.3c0.2-0.1,0.4-0.1,0.8-0.1c0.2,0,0.4,0,0.6,0c0.2,0,0.4,0,0.6,0v0.2c-0.2,0-0.3,0-0.5,0s-0.3,0-0.5,0.1
			c-0.3,0-0.5,0.1-0.6,0.2s-0.2,0.3-0.3,0.5c0,0.2,0,0.3,0.1,0.5c0.1,0.1,0.2,0.2,0.4,0.2c0.1,0,0.2,0,0.3,0s0.2-0.1,0.3-0.1
			c0.1-0.1,0.3-0.2,0.4-0.3v0.3h-0.2c-0.1,0.1-0.3,0.2-0.4,0.3c-0.1,0.1-0.3,0.1-0.4,0.1C50.7,108.1,50.6,108.1,50.4,108.1z
			 M52.1,108.4c-0.2,0-0.3-0.1-0.4-0.3c-0.1-0.1-0.1-0.3-0.1-0.5l0,0l0.3-1.7c0-0.2,0.1-0.4,0-0.5c0-0.1-0.1-0.2-0.2-0.3
			c-0.1-0.1-0.2-0.1-0.4-0.1c-0.1,0-0.2,0-0.4,0c-0.1,0-0.3,0-0.4,0.1l0.4-0.1l-0.2,0.5c0,0.1-0.1,0.2-0.2,0.3c-0.1,0-0.2,0.1-0.3,0
			c-0.2,0-0.3-0.1-0.3-0.3c0.1-0.3,0.3-0.4,0.6-0.5s0.6-0.1,1-0.1c0.4,0.1,0.7,0.2,0.8,0.4c0.1,0.2,0.2,0.5,0.1,0.9l-0.3,1.6
			c0,0.2,0,0.3,0,0.3c0,0.1,0.1,0.1,0.2,0.1c0.1,0,0.1,0,0.1,0s0.1-0.1,0.2-0.1l0.1,0.1c-0.1,0.1-0.2,0.2-0.3,0.2
			C52.4,108.4,52.3,108.4,52.1,108.4z"/>
		<path class="st83" d="M53.1,108.5v-0.2l0.7,0.1l0.3,0.1l0.7,0.2v0.2L53.1,108.5z M53.6,108.6c0-0.1,0.1-0.2,0.1-0.4
			c0-0.2,0.1-0.3,0.1-0.5s0.1-0.3,0.1-0.5l0.1-0.4c0-0.2,0.1-0.4,0.1-0.5c0-0.2,0.1-0.3,0.1-0.5l-0.5-0.1v-0.2l1.2-0.1l0.1,0.1
			l-0.2,0.9l-0.2,1c0,0.1-0.1,0.3-0.1,0.5s-0.1,0.4-0.1,0.5s0,0.3-0.1,0.4L53.6,108.6z M54.6,104.6c-0.1,0-0.2-0.1-0.3-0.2
			s-0.1-0.2-0.1-0.3s0.1-0.2,0.2-0.3c0.1-0.1,0.2-0.1,0.3-0.1s0.2,0.1,0.3,0.2s0.1,0.2,0.1,0.3s-0.1,0.2-0.2,0.3
			C54.9,104.6,54.8,104.6,54.6,104.6z"/>
		<path class="st83" d="M55.2,108.9v-0.2l0.7,0.1l0.3,0.1l0.7,0.2v0.2L55.2,108.9z M55.7,109c0-0.1,0.1-0.3,0.1-0.5s0.1-0.3,0.1-0.5
			s0.1-0.3,0.1-0.5l0.6-3.2l-0.5-0.1V104h1.2l0.1,0.1l-0.2,1l-0.5,2.6c0,0.1-0.1,0.3-0.1,0.5s-0.1,0.3-0.1,0.5s-0.1,0.3-0.1,0.5
			L55.7,109z"/>
	</g>
	<g class="st82">
		<path class="st83" d="M125.6,148.3v-0.2l0.7,0.1l0.3,0.1l0.6,0.2v0.2L125.6,148.3z M126.1,148.4c0-0.1,0.1-0.2,0.1-0.4
			s0.1-0.4,0.1-0.5s0.1-0.3,0.1-0.5l0.1-0.4c0-0.2,0.1-0.4,0.1-0.5c0-0.2,0-0.3,0.1-0.5l-0.5-0.1v-0.2l1.2-0.1l0.1,0.1l-0.1,0.7l0,0
			l-0.2,1.1c0,0.1-0.1,0.3-0.1,0.5s-0.1,0.4-0.1,0.5c0,0.2-0.1,0.3-0.1,0.4L126.1,148.4z M128.2,148.8c0-0.1,0.1-0.2,0.1-0.4
			s0.1-0.3,0.1-0.5s0.1-0.4,0.1-0.5l0.1-0.8c0.1-0.3,0-0.5,0-0.6c-0.1-0.1-0.2-0.2-0.4-0.2c-0.1,0-0.3,0-0.5,0.1s-0.4,0.2-0.7,0.4
			v-0.2h0.1c0.3-0.2,0.5-0.4,0.8-0.5c0.2-0.1,0.5-0.1,0.7,0c0.3,0.1,0.5,0.2,0.6,0.4s0.2,0.5,0.1,0.9l-0.1,0.8
			c0,0.1-0.1,0.3-0.1,0.5s-0.1,0.4-0.1,0.5c0,0.2-0.1,0.3-0.1,0.4L128.2,148.8z M127.8,148.7v-0.2l0.7,0.1l0.3,0.1l0.7,0.2v0.2
			L127.8,148.7z"/>
		<path class="st83" d="M130.7,149.3c-0.3,0-0.4-0.2-0.6-0.3c-0.1-0.2-0.2-0.4-0.1-0.7c0-0.2,0.1-0.3,0.2-0.4
			c0.1-0.1,0.2-0.2,0.4-0.3s0.4-0.1,0.8-0.1c0.2,0,0.4,0,0.6,0c0.2,0,0.4,0,0.6,0v0.2c-0.2,0-0.3,0-0.5,0s-0.3,0-0.5,0.1
			c-0.3,0-0.5,0.1-0.6,0.2c-0.1,0.1-0.2,0.3-0.3,0.5c0,0.2,0,0.3,0.1,0.5c0.1,0.1,0.2,0.2,0.4,0.2c0.1,0,0.2,0,0.3,0
			s0.2-0.1,0.3-0.1c0.1-0.1,0.3-0.2,0.4-0.3v0.3H132c-0.1,0.1-0.3,0.2-0.4,0.3c-0.1,0.1-0.3,0.1-0.4,0.1
			C131,149.4,130.9,149.4,130.7,149.3z M132.4,149.6c-0.2,0-0.3-0.1-0.4-0.3c-0.1-0.1-0.1-0.3-0.1-0.5l0,0l0.3-1.7
			c0-0.2,0.1-0.4,0-0.5c0-0.1-0.1-0.2-0.2-0.3s-0.2-0.1-0.4-0.1c-0.1,0-0.2,0-0.3,0s-0.3,0-0.4,0.1l0.4-0.1l-0.2,0.5
			c0,0.1-0.1,0.2-0.2,0.3c-0.1,0-0.2,0.1-0.3,0c-0.2,0-0.3-0.1-0.3-0.3c0.1-0.3,0.3-0.4,0.5-0.5c0.3-0.1,0.6-0.1,1-0.1
			c0.4,0.1,0.7,0.2,0.8,0.4s0.2,0.5,0.1,0.9l-0.3,1.6c0,0.2,0,0.3,0,0.4c0,0.1,0.1,0.1,0.2,0.1h0.1c0,0,0.1-0.1,0.2-0.1l0.1,0.1
			c-0.1,0.1-0.2,0.2-0.3,0.2C132.7,149.7,132.6,149.7,132.4,149.6z"/>
		<path class="st83" d="M133.4,149.7v-0.2l0.7,0.1l0.3,0.1l0.7,0.2v0.2L133.4,149.7z M133.9,149.8c0-0.1,0.1-0.2,0.1-0.4
			s0.1-0.3,0.1-0.5s0.1-0.3,0.1-0.5l0.1-0.4c0-0.2,0.1-0.4,0.1-0.5c0-0.2,0.1-0.3,0.1-0.5l-0.5-0.1v-0.2l1.2-0.1l0.1,0.1l-0.2,0.9
			l-0.2,1c0,0.1-0.1,0.3-0.1,0.5s-0.1,0.4-0.1,0.5s0,0.3-0.1,0.4L133.9,149.8z M134.9,145.8c-0.1,0-0.2-0.1-0.3-0.2
			c-0.1-0.1-0.1-0.2-0.1-0.3s0.1-0.2,0.2-0.3c0.1-0.1,0.2-0.1,0.3-0.1s0.2,0.1,0.3,0.2s0.1,0.2,0.1,0.3s-0.1,0.2-0.2,0.3
			C135.2,145.8,135.1,145.8,134.9,145.8z"/>
		<path class="st83" d="M137.2,150.5c-0.3-0.1-0.6-0.2-0.8-0.4s-0.4-0.4-0.5-0.7s-0.1-0.6,0-1s0.2-0.7,0.4-0.9s0.4-0.4,0.7-0.5
			s0.5-0.1,0.8-0.1c0.3,0.1,0.5,0.2,0.7,0.3c0.2,0.2,0.3,0.3,0.4,0.6c0.1,0.2,0.1,0.5,0,0.7c0,0.1-0.1,0.3-0.1,0.4l-2.6-0.5v-0.2
			l1.7,0.3c0.1,0,0.2,0,0.3-0.1s0.1-0.2,0.1-0.3c0.1-0.3,0-0.5-0.1-0.7s-0.3-0.3-0.5-0.3s-0.3,0-0.5,0.1c-0.1,0.1-0.3,0.2-0.4,0.4
			c-0.1,0.2-0.2,0.5-0.3,0.8s-0.1,0.6,0,0.9c0.1,0.2,0.2,0.4,0.3,0.6c0.2,0.1,0.3,0.2,0.6,0.3s0.4,0,0.6,0s0.3-0.1,0.5-0.3l0.1,0.1
			c-0.2,0.2-0.4,0.4-0.6,0.4C137.7,150.6,137.5,150.6,137.2,150.5z"/>
	</g>
	<g class="st82">
		<path class="st83" d="M247.2,89c-0.2,0-0.4-0.1-0.6-0.2c-0.2-0.1-0.3-0.2-0.5-0.3l0.2-0.8l0.3,0.1v0.9l-0.3-0.1v-0.2
			c0.1,0.1,0.2,0.2,0.3,0.3c0.1,0.1,0.3,0.1,0.4,0.1c0.3,0,0.5,0,0.6,0c0.2-0.1,0.2-0.2,0.3-0.4c0-0.1,0-0.3-0.1-0.4
			s-0.2-0.2-0.5-0.4l-0.3-0.2c-0.2-0.1-0.4-0.3-0.6-0.5c-0.1-0.2-0.2-0.4-0.1-0.6c0.1-0.3,0.2-0.5,0.5-0.7c0.3-0.1,0.6-0.2,1-0.1
			c0.2,0,0.4,0.1,0.5,0.2s0.3,0.2,0.4,0.3l-0.2,0.7l-0.3-0.1l-0.1-0.8l0.2,0.1v0.2c-0.1-0.1-0.2-0.2-0.3-0.3
			c-0.1-0.1-0.2-0.1-0.4-0.1s-0.4,0-0.5,0.1s-0.2,0.2-0.3,0.4c0,0.1,0,0.3,0.1,0.4s0.2,0.2,0.4,0.3l0.3,0.2c0.3,0.2,0.5,0.3,0.6,0.5
			s0.1,0.4,0.1,0.6s-0.1,0.4-0.3,0.5c-0.1,0.1-0.3,0.2-0.5,0.3C247.8,89,247.5,89,247.2,89z"/>
		<path class="st83" d="M250.8,89.7c-0.3-0.1-0.6-0.2-0.8-0.4c-0.2-0.2-0.4-0.4-0.5-0.7c-0.1-0.3-0.1-0.6,0-1s0.2-0.7,0.4-0.9
			c0.2-0.2,0.4-0.4,0.7-0.5s0.5-0.1,0.8-0.1c0.3,0.1,0.5,0.2,0.7,0.3c0.2,0.2,0.3,0.3,0.4,0.6c0.1,0.2,0.1,0.5,0,0.7
			c0,0.1-0.1,0.3-0.1,0.4l-2.6-0.5v-0.2l1.7,0.3c0.1,0,0.2,0,0.3-0.1s0.1-0.2,0.1-0.3c0-0.3,0-0.5-0.1-0.7s-0.3-0.3-0.5-0.3
			s-0.3,0-0.5,0.1c-0.1,0.1-0.3,0.2-0.4,0.4s-0.2,0.5-0.3,0.8s-0.1,0.6,0,0.9c0.1,0.2,0.2,0.4,0.3,0.6c0.2,0.1,0.3,0.2,0.6,0.3
			c0.2,0,0.4,0,0.6,0c0.2-0.1,0.3-0.1,0.5-0.3l0.1,0.1c-0.2,0.2-0.4,0.4-0.6,0.4C251.3,89.7,251.1,89.7,250.8,89.7z"/>
		<path class="st83" d="M252.5,89.9v-0.2l0.7,0.1l0.3,0.1l0.7,0.2v0.2L252.5,89.9z M253,90c0-0.1,0-0.2,0.1-0.3
			c0-0.1,0.1-0.2,0.1-0.4c0-0.1,0.1-0.3,0.1-0.4s0-0.3,0.1-0.4l0.6-3.2l-0.5-0.1V85h1.2l0.1,0.1l-0.2,1l-0.5,2.5
			c0,0.1,0,0.2-0.1,0.4c0,0.1-0.1,0.3-0.1,0.4s0,0.3-0.1,0.4s0,0.2,0,0.3L253,90z M253.5,88.9l0.1-0.3l0,0l1.1-0.8l1.2-0.8l0.3,0.1
			L253.5,88.9z M255.1,90.4l-0.7-2.1l0.6-0.4l0.8,2.3l0.4,0.1v0.2L255.1,90.4z M255,87.1v-0.2l1.6,0.3v0.2l-0.7-0.1h-0.1L255,87.1z"
			/>
		<path class="st83" d="M257.2,90.9c-0.1,0-0.2-0.1-0.3-0.2c-0.1-0.1-0.1-0.2-0.1-0.3c0-0.1,0.1-0.2,0.2-0.3
			c0.1-0.1,0.2-0.1,0.3-0.1c0.1,0,0.2,0.1,0.3,0.2s0.1,0.2,0.1,0.3c0,0.1-0.1,0.2-0.2,0.3C257.4,90.9,257.3,90.9,257.2,90.9z"/>
	</g>
	<g class="st82">
		<path class="st83" d="M187.3,145.8c0-0.1-0.1-0.2-0.1-0.4c-0.1-0.2-0.1-0.3-0.2-0.5c-0.1-0.2-0.1-0.3-0.2-0.5l-0.1-0.4
			c-0.1-0.2-0.1-0.4-0.2-0.5s-0.1-0.3-0.2-0.4l-0.5,0.1l-0.1-0.1l1-0.7h0.1l0.3,0.8l0,0l0.3,0.9c0,0.1,0.1,0.3,0.2,0.5
			c0.1,0.2,0.1,0.4,0.2,0.5c0.1,0.2,0.1,0.3,0.1,0.4L187.3,145.8z M186.9,146l-0.1-0.2l0.6-0.3l0.4-0.1l0.7-0.2l0.1,0.2L186.9,146z
			 M187.4,143.7l-0.3-0.3h0.1c0-0.2,0-0.4,0.1-0.6s0.1-0.3,0.2-0.5c0.1-0.1,0.2-0.2,0.4-0.3c0.1,0,0.2-0.1,0.4,0
			c0.1,0,0.2,0.1,0.3,0.2c0,0.1,0,0.2,0,0.3s-0.1,0.2-0.2,0.2c-0.1,0-0.2,0-0.3,0s-0.2-0.1-0.3-0.1l-0.2-0.1l0.2-0.1
			c-0.2,0.1-0.3,0.3-0.3,0.5C187.4,143.1,187.4,143.4,187.4,143.7z"/>
		<path class="st83" d="M191.3,144.5c-0.3,0.1-0.6,0.1-0.9,0.1c-0.3,0-0.5-0.2-0.8-0.4c-0.2-0.2-0.4-0.5-0.5-0.8s-0.2-0.7-0.1-1
			c0.1-0.3,0.2-0.6,0.4-0.8s0.4-0.4,0.7-0.5s0.5-0.1,0.8-0.1c0.2,0,0.4,0.1,0.6,0.3c0.2,0.2,0.3,0.4,0.4,0.6c0,0.1,0.1,0.3,0.1,0.4
			l-2.5,0.9l-0.1-0.2l1.6-0.6c0.1,0,0.2-0.1,0.2-0.2s0-0.2,0-0.3c-0.1-0.3-0.2-0.4-0.4-0.6s-0.4-0.1-0.6-0.1
			c-0.2,0.1-0.3,0.2-0.4,0.3c-0.1,0.1-0.1,0.3-0.1,0.6c0,0.2,0.1,0.5,0.2,0.8c0.1,0.3,0.3,0.6,0.4,0.8c0.2,0.2,0.3,0.3,0.5,0.3
			s0.4,0,0.6-0.1s0.4-0.2,0.5-0.3s0.2-0.3,0.3-0.5h0.1c0,0.3-0.2,0.5-0.3,0.7C191.8,144.3,191.6,144.4,191.3,144.5z"/>
		<path class="st83" d="M194.6,143.4c-0.3,0.1-0.6,0.1-0.9,0.1c-0.3,0-0.5-0.2-0.7-0.4s-0.4-0.5-0.5-0.8c-0.1-0.4-0.2-0.7-0.1-1
			c0.1-0.3,0.2-0.6,0.4-0.8s0.5-0.4,0.8-0.5c0.2-0.1,0.4-0.1,0.6-0.1c0.2,0,0.4,0.1,0.5,0.2c0.2,0.1,0.3,0.2,0.4,0.4
			c0,0.2-0.1,0.3-0.2,0.4c-0.1,0-0.2,0-0.3,0s-0.2-0.1-0.2-0.3L194,140l0.4,0.1c-0.1,0-0.3,0-0.4,0s-0.2,0-0.3,0.1
			c-0.2,0.1-0.3,0.2-0.5,0.4s-0.2,0.4-0.2,0.6c0,0.2,0,0.5,0.1,0.8c0.2,0.4,0.4,0.7,0.7,0.9s0.6,0.2,0.9,0.1
			c0.2-0.1,0.3-0.2,0.5-0.3c0.1-0.1,0.2-0.3,0.3-0.5h0.1c-0.1,0.3-0.2,0.5-0.3,0.7S194.9,143.3,194.6,143.4z"/>
	</g>
	<g class="st82">
		<path class="st83" d="M240.2,127.6c0-0.1,0-0.3,0-0.5s0-0.4,0-0.6s0-0.4,0-0.6v-0.5c0-0.3,0-0.5,0-0.7s0-0.4-0.1-0.5h-0.6V124
			l1.3-0.5l0.1,0.1l0.1,1.1l0,0l0.1,1.2c0,0.2,0,0.4,0,0.6s0,0.4,0.1,0.6c0,0.2,0,0.4,0,0.5H240.2z M239.7,127.6v-0.2l0.8-0.1h0.5
			h0.8v0.2L239.7,127.6z M240.9,125.1l-0.2-0.4h0.2c0.1-0.3,0.1-0.5,0.3-0.7c0.1-0.2,0.3-0.3,0.4-0.5s0.3-0.2,0.5-0.2s0.3,0,0.4,0.1
			c0.1,0.1,0.2,0.2,0.3,0.3c0,0.1,0,0.3-0.1,0.4s-0.2,0.1-0.3,0.2c-0.1,0-0.2,0-0.3-0.1s-0.2-0.1-0.3-0.2l-0.2-0.2h0.3
			c-0.2,0.1-0.4,0.3-0.6,0.5C241.1,124.5,241,124.8,240.9,125.1z"/>
		<path class="st83" d="M244.9,127.4c-0.4,0-0.7-0.1-0.9-0.3c-0.2-0.2-0.3-0.6-0.4-1.2l-0.1-2.3l0.2,0.1l-0.8-0.1v-0.2l1.3-0.3
			l0.1,0.1v1l0.1,1.5c0,0.4,0.1,0.6,0.2,0.7c0.1,0.1,0.3,0.2,0.5,0.2s0.4-0.1,0.6-0.2c0.2-0.1,0.4-0.3,0.5-0.6l0.2,0.3h-0.3
			c-0.2,0.3-0.4,0.5-0.6,0.7C245.5,127.2,245.2,127.3,244.9,127.4z M246.4,127.2l-0.1-0.9l0,0l-0.2-2.7h-0.6v-0.2l1.3-0.3l0.1,0.1v1
			l0.2,2.6h0.5v0.2L246.4,127.2z"/>
		<path class="st83" d="M249.8,127c-0.3,0-0.6,0-0.8-0.2s-0.3-0.4-0.3-0.8c0-0.1,0-0.2,0-0.4s0-0.2,0-0.4l-0.1-2h-0.7V123l0.8-0.1
			l-0.1,0.1l0.2-1.3h0.5l0.1,1.3v0.1l0.2,2.8c0,0.2,0.1,0.4,0.2,0.5c0.1,0.1,0.2,0.1,0.4,0.1c0.1,0,0.2,0,0.3-0.1
			c0.1,0,0.2-0.1,0.3-0.2l0.1,0.1c-0.1,0.2-0.2,0.3-0.4,0.4C250.2,127,250,127,249.8,127z M248.9,123.3V123l1.4-0.1v0.3L248.9,123.3
			z"/>
		<path class="st83" d="M253.1,126.8c-0.4,0-0.7,0-1.1-0.2s-0.6-0.4-0.8-0.7c-0.2-0.3-0.3-0.7-0.3-1.1s0-0.8,0.2-1.1
			c0.2-0.3,0.4-0.6,0.7-0.8c0.3-0.2,0.6-0.3,0.9-0.3c0.3,0,0.7,0,0.9,0.2c0.3,0.1,0.5,0.3,0.6,0.5s0.2,0.5,0.2,0.8
			c0,0.2,0,0.3,0,0.5l-3.2,0.2v-0.2l2-0.1c0.1,0,0.2-0.1,0.3-0.1c0-0.1,0.1-0.2,0.1-0.4c0-0.3-0.1-0.6-0.3-0.8
			c-0.2-0.2-0.4-0.3-0.7-0.2c-0.2,0-0.4,0.1-0.5,0.2s-0.3,0.3-0.3,0.6c-0.1,0.3-0.1,0.6-0.1,1s0.1,0.7,0.2,1
			c0.1,0.2,0.3,0.4,0.5,0.5s0.5,0.2,0.7,0.1c0.3,0,0.5-0.1,0.7-0.2s0.3-0.3,0.5-0.4l0.1,0.1c-0.1,0.3-0.3,0.5-0.6,0.7
			C253.8,126.7,253.5,126.8,253.1,126.8z"/>
		<path class="st83" d="M255.8,126.5c0-0.2,0-0.4,0-0.6s0-0.4,0-0.6s0-0.4,0-0.6l-0.3-3.8h-0.6v-0.2l1.4-0.4l0.1,0.1l0.1,1.2
			l0.2,3.1c0,0.2,0,0.4,0,0.6s0,0.4,0.1,0.6c0,0.2,0,0.4,0.1,0.5L255.8,126.5z M255.2,126.5v-0.2l0.8-0.1h0.4h0.9v0.2L255.2,126.5z"
			/>
	</g>
</g>
<path class="st84" d="M0,180V0h320v180H0z"/>
<g>
	<g>
		<polygon class="st85" points="65.9,90.7 68.5,91.3 68.5,91.3 68.8,91.3 70,91.6 70,91.6 103.9,98.6 104.7,94.6 70.9,87.6 
			76.9,58.3 109.8,65 110.6,61 73.6,53.4 		"/>
		<polygon class="st85" points="100.8,64.2 97.1,63.4 96.6,66 89.2,64.5 89.7,61.9 86,61.2 85.5,63.7 78.9,62.3 78.2,65.5 
			84.9,66.9 84.4,69.3 88.1,70 88.5,67.7 95.9,69.2 95.4,71.5 99.1,72.3 99.6,69.9 106.3,71.3 107,68.1 100.3,66.7 		"/>
		<path class="st85" d="M92.4,70.6L88.9,69c-0.6,1-1.3,1.9-2,2.8l-10.1-2.1l-0.7,3.2l8.1,1.7c-0.6,0.5-1.2,1-1.8,1.4
			c-2.6,1.9-5.5,3.2-8.7,4c0.2,0.3,0.5,0.6,0.8,1s0.6,0.8,0.8,1.3c0.3,0.4,0.5,0.8,0.6,1.1c1.8-0.6,3.6-1.4,5.3-2.4L80,87.2l19.6,4
			l2.1-10.1L86,77.9c0.9-0.7,1.8-1.6,2.7-2.4l17.4,3.6l0.7-3.2L91,72.6C91.5,72,92,71.3,92.4,70.6z M96.2,87.4L84.5,85l0.8-4
			L97,83.4L96.2,87.4z"/>
	</g>
	<path class="st85" d="M142.5,80c2.9-1.9,5.4-4.3,7.6-7l-2.5-2.3l-0.7,0.1l-0.8-0.2l0,0l-13.5-2.8c1.2-1,2.4-2,3.5-3l-4.5-1.9
		c-1.2,1.2-2.6,2.4-4.3,3.5s-3.6,2.2-5.8,3.2c-2.2,1-4.6,1.8-7.2,2.3c0.3,0.3,0.6,0.7,0.8,1.2s0.6,0.9,0.8,1.4
		c0.3,0.5,0.4,0.9,0.5,1.3c4.2-1.2,8-2.7,11.2-4.6c0.2-0.1,0.4-0.2,0.5-0.3l15.3,3.1c-0.8,0.8-1.7,1.5-2.6,2.2
		c-2,1.4-4.2,2.7-6.5,3.8c-0.9,0.4-1.8,0.7-2.7,1.1c-0.2-0.2-0.4-0.5-0.6-0.7c-0.8-1-1.7-2-2.6-3.1c-0.9-1-1.8-2-2.6-2.8L122,76
		c0.8,0.9,1.7,1.9,2.6,3s1.7,2.2,2.5,3.2l0.1,0.1c-0.2,0-0.3,0.1-0.5,0.1c-2.6,0.7-5.3,1.2-8,1.5s-5.4,0.5-8.1,0.5
		c0.2,0.4,0.4,0.8,0.5,1.3c0.2,0.5,0.3,1,0.5,1.5s0.3,1,0.3,1.4c2.4-0.1,4.9-0.3,7.3-0.6l-2.9,14.2l4.1,0.8l0.4-2.1l18.2,3.8
		l-0.4,2.1l4.3,0.9l3.9-19l-4.3-0.9l0,0l-11.8-2.4c0.7-0.2,1.5-0.5,2.2-0.8C136.4,83.5,139.6,81.9,142.5,80z M140,101l-18.2-3.8
		l1.9-9.3l18.2,3.8L140,101z"/>
	<g>
		<path class="st85" d="M174.3,91.1c-1.4,1.2-2.9,2.3-4.5,3.3c-3.3,2.2-6.8,3.9-10.3,5.3c0.3,0.3,0.7,0.7,1,1.1
			c0.4,0.4,0.8,0.9,1.2,1.3s0.7,0.8,0.9,1.1c3.5-1.5,6.9-3.5,10.2-5.8c1.2-0.9,2.5-1.8,3.7-2.8c1.1,1.8,2,3.5,2.9,5.2
			c1.3,2.4,2.3,4.5,3,6.4l3.9-2.7c-0.8-1.9-1.8-4-3.2-6.3c-1-1.7-2.1-3.5-3.3-5.4c0.9-0.8,1.7-1.6,2.6-2.4c3.1-3,5.9-6.3,8.5-9.9
			l-3.9-2.1c-2.4,3.4-5,6.5-7.9,9.4c-0.5,0.5-1.1,1-1.6,1.5c-1.3-1.9-2.6-3.9-4-5.8c-1.8-2.5-3.5-4.8-5.1-7l-3.3,2.1
			c1.7,2.2,3.4,4.6,5.1,7.1C171.6,86.9,173,89,174.3,91.1z"/>
		<polygon class="st85" points="192.1,85 186.8,110.5 158.4,104.6 163.7,79.2 159.5,78.3 154.3,103.8 154.3,103.8 153.4,107.7 
			186,114.4 185.7,115.9 189.9,116.8 196.3,85.9 		"/>
	</g>
	<g>
		<path class="st85" d="M207.5,85.6l29.5,6.1l-0.6,3.1l4,0.8l1.3-6.5L225,85.6c-0.1-0.4-0.2-0.8-0.4-1.3c-0.3-0.9-0.6-1.8-1-2.5
			l-3.8,0.5c0.2,0.8,0.5,1.6,0.8,2.5l-16.3-3.4l-1.3,6.5l3.9,0.8L207.5,85.6z"/>
		<path class="st85" d="M221.9,89.9l-3.6-1.9c-1,1.1-2.2,2.2-3.6,3.3L202,88.7l-0.7,3.3l9.8,2c-0.4,0.3-0.8,0.6-1.1,0.8
			c-1.5,1.1-3,2-4.3,2.8c3.1,1.1,6,2.3,8.9,3.5c-0.7,0-1.4,0-2.1,0c-3.7,0-8-0.5-12.8-1.2c0.2,0.5,0.4,1,0.5,1.7
			c0.2,0.7,0.2,1.3,0.3,1.9c3.9,0.5,7.4,0.8,10.7,0.9c3.2,0.1,6.1,0,8.7-0.5c0.3,0,0.6-0.1,0.8-0.2c1.9,0.9,3.7,1.7,5.4,2.6
			c2.9,1.4,5.3,2.8,7.3,4.1l4-2.2c-1.6-0.9-3.5-2-5.6-3c-1.9-1-4-1.9-6.1-2.9c0.4-0.2,0.8-0.4,1.2-0.6c1.7-0.9,3.3-2.1,4.7-3.5
			l8.5,1.8l0.7-3.3l-21.5-4.4C220.2,91.4,221.1,90.7,221.9,89.9z M222.2,99.9c-0.4,0.1-0.8,0.2-1.2,0.3c-1.2-0.5-2.5-1-3.7-1.6
			c-1.5-0.6-3.1-1.2-4.6-1.8c0.4-0.2,0.8-0.5,1.2-0.7c0.6-0.4,1.2-0.8,1.8-1.2l11.4,2.3C225.6,98.4,224,99.3,222.2,99.9z"/>
		<path class="st85" d="M220.7,105.9l-4.2-0.9l-0.7,3.4l-17.6-3.6l-0.7,3.5l14.5,3c-0.9,0.5-2,0.9-3.1,1.3c-2.1,0.7-4.3,1.2-6.7,1.6
			s-4.7,0.5-7,0.5c0.2,0.3,0.5,0.7,0.7,1.2s0.5,0.9,0.7,1.4s0.4,0.9,0.5,1.3c2.4-0.1,4.8-0.5,7.2-1s4.7-1.3,6.9-2.2
			c1.3-0.5,2.4-1.1,3.5-1.7l-1.8,8.7l4.2,0.9l1.8-8.9c0.8,1.1,1.7,2.2,2.8,3.3c1.7,1.7,3.5,3.3,5.6,4.8c2,1.5,4.1,2.7,6.2,3.8
			c0.3-0.3,0.6-0.7,1-1c0.4-0.4,0.8-0.7,1.2-1s0.8-0.6,1.1-0.9c-2.1-0.9-4.2-2-6.3-3.2c-2.1-1.3-4-2.6-5.7-4.1
			c-0.9-0.8-1.7-1.6-2.4-2.3l14.6,3l0.7-3.5l-17.9-3.7L220.7,105.9z"/>
	</g>
</g>
<g>
	<g>
		<polygon class="st86" points="65.9,90.7 68.5,91.3 68.5,91.3 68.8,91.3 70,91.6 70,91.6 103.9,98.6 104.7,94.6 70.9,87.6 
			76.9,58.3 109.8,65 110.6,61 73.6,53.4 		"/>
		<polygon class="st86" points="100.8,64.2 97.1,63.4 96.6,66 89.2,64.5 89.7,61.9 86,61.2 85.5,63.7 78.9,62.3 78.2,65.5 
			84.9,66.9 84.4,69.3 88.1,70 88.5,67.7 95.9,69.2 95.4,71.5 99.1,72.3 99.6,69.9 106.3,71.3 107,68.1 100.3,66.7 		"/>
		<path class="st86" d="M92.4,70.6L88.9,69c-0.6,1-1.3,1.9-2,2.8l-10.1-2.1l-0.7,3.2l8.1,1.7c-0.6,0.5-1.2,1-1.8,1.4
			c-2.6,1.9-5.5,3.2-8.7,4c0.2,0.3,0.5,0.6,0.8,1s0.6,0.8,0.8,1.3c0.3,0.4,0.5,0.8,0.6,1.1c1.8-0.6,3.6-1.4,5.3-2.4L80,87.2l19.6,4
			l2.1-10.1L86,77.9c0.9-0.7,1.8-1.6,2.7-2.4l17.4,3.6l0.7-3.2L91,72.6C91.5,72,92,71.3,92.4,70.6z M96.2,87.4L84.5,85l0.8-4
			L97,83.4L96.2,87.4z"/>
	</g>
	<path class="st86" d="M142.5,80c2.9-1.9,5.4-4.3,7.6-7l-2.5-2.3l-0.7,0.1l-0.8-0.2l0,0l-13.5-2.8c1.2-1,2.4-2,3.5-3l-4.5-1.9
		c-1.2,1.2-2.6,2.4-4.3,3.5s-3.6,2.2-5.8,3.2c-2.2,1-4.6,1.8-7.2,2.3c0.3,0.3,0.6,0.7,0.8,1.2s0.6,0.9,0.8,1.4
		c0.3,0.5,0.4,0.9,0.5,1.3c4.2-1.2,8-2.7,11.2-4.6c0.2-0.1,0.4-0.2,0.5-0.3l15.3,3.1c-0.8,0.8-1.7,1.5-2.6,2.2
		c-2,1.4-4.2,2.7-6.5,3.8c-0.9,0.4-1.8,0.7-2.7,1.1c-0.2-0.2-0.4-0.5-0.6-0.7c-0.8-1-1.7-2-2.6-3.1c-0.9-1-1.8-2-2.6-2.8L122,76
		c0.8,0.9,1.7,1.9,2.6,3s1.7,2.2,2.5,3.2l0.1,0.1c-0.2,0-0.3,0.1-0.5,0.1c-2.6,0.7-5.3,1.2-8,1.5s-5.4,0.5-8.1,0.5
		c0.2,0.4,0.4,0.8,0.5,1.3c0.2,0.5,0.3,1,0.5,1.5s0.3,1,0.3,1.4c2.4-0.1,4.9-0.3,7.3-0.6l-2.9,14.2l4.1,0.8l0.4-2.1l18.2,3.8
		l-0.4,2.1l4.3,0.9l3.9-19l-4.3-0.9l0,0l-11.8-2.4c0.7-0.2,1.5-0.5,2.2-0.8C136.4,83.5,139.6,81.9,142.5,80z M140,101l-18.2-3.8
		l1.9-9.3l18.2,3.8L140,101z"/>
	<g>
		<path class="st86" d="M174.3,91.1c-1.4,1.2-2.9,2.3-4.5,3.3c-3.3,2.2-6.8,3.9-10.3,5.3c0.3,0.3,0.7,0.7,1,1.1
			c0.4,0.4,0.8,0.9,1.2,1.3s0.7,0.8,0.9,1.1c3.5-1.5,6.9-3.5,10.2-5.8c1.2-0.9,2.5-1.8,3.7-2.8c1.1,1.8,2,3.5,2.9,5.2
			c1.3,2.4,2.3,4.5,3,6.4l3.9-2.7c-0.8-1.9-1.8-4-3.2-6.3c-1-1.7-2.1-3.5-3.3-5.4c0.9-0.8,1.7-1.6,2.6-2.4c3.1-3,5.9-6.3,8.5-9.9
			l-3.9-2.1c-2.4,3.4-5,6.5-7.9,9.4c-0.5,0.5-1.1,1-1.6,1.5c-1.3-1.9-2.6-3.9-4-5.8c-1.8-2.5-3.5-4.8-5.1-7l-3.3,2.1
			c1.7,2.2,3.4,4.6,5.1,7.1C171.6,86.9,173,89,174.3,91.1z"/>
		<polygon class="st86" points="192.1,85 186.8,110.5 158.4,104.6 163.7,79.2 159.5,78.3 154.3,103.8 154.3,103.8 153.4,107.7 
			186,114.4 185.7,115.9 189.9,116.8 196.3,85.9 		"/>
	</g>
	<g>
		<path class="st86" d="M207.5,85.6l29.5,6.1l-0.6,3.1l4,0.8l1.3-6.5L225,85.6c-0.1-0.4-0.2-0.8-0.4-1.3c-0.3-0.9-0.6-1.8-1-2.5
			l-3.8,0.5c0.2,0.8,0.5,1.6,0.8,2.5l-16.3-3.4l-1.3,6.5l3.9,0.8L207.5,85.6z"/>
		<path class="st86" d="M221.9,89.9l-3.6-1.9c-1,1.1-2.2,2.2-3.6,3.3L202,88.7l-0.7,3.3l9.8,2c-0.4,0.3-0.8,0.6-1.1,0.8
			c-1.5,1.1-3,2-4.3,2.8c3.1,1.1,6,2.3,8.9,3.5c-0.7,0-1.4,0-2.1,0c-3.7,0-8-0.5-12.8-1.2c0.2,0.5,0.4,1,0.5,1.7
			c0.2,0.7,0.2,1.3,0.3,1.9c3.9,0.5,7.4,0.8,10.7,0.9c3.2,0.1,6.1,0,8.7-0.5c0.3,0,0.6-0.1,0.8-0.2c1.9,0.9,3.7,1.7,5.4,2.6
			c2.9,1.4,5.3,2.8,7.3,4.1l4-2.2c-1.6-0.9-3.5-2-5.6-3c-1.9-1-4-1.9-6.1-2.9c0.4-0.2,0.8-0.4,1.2-0.6c1.7-0.9,3.3-2.1,4.7-3.5
			l8.5,1.8l0.7-3.3l-21.5-4.4C220.2,91.4,221.1,90.7,221.9,89.9z M222.2,99.9c-0.4,0.1-0.8,0.2-1.2,0.3c-1.2-0.5-2.5-1-3.7-1.6
			c-1.5-0.6-3.1-1.2-4.6-1.8c0.4-0.2,0.8-0.5,1.2-0.7c0.6-0.4,1.2-0.8,1.8-1.2l11.4,2.3C225.6,98.4,224,99.3,222.2,99.9z"/>
		<path class="st86" d="M220.7,105.9l-4.2-0.9l-0.7,3.4l-17.6-3.6l-0.7,3.5l14.5,3c-0.9,0.5-2,0.9-3.1,1.3c-2.1,0.7-4.3,1.2-6.7,1.6
			s-4.7,0.5-7,0.5c0.2,0.3,0.5,0.7,0.7,1.2s0.5,0.9,0.7,1.4s0.4,0.9,0.5,1.3c2.4-0.1,4.8-0.5,7.2-1s4.7-1.3,6.9-2.2
			c1.3-0.5,2.4-1.1,3.5-1.7l-1.8,8.7l4.2,0.9l1.8-8.9c0.8,1.1,1.7,2.2,2.8,3.3c1.7,1.7,3.5,3.3,5.6,4.8c2,1.5,4.1,2.7,6.2,3.8
			c0.3-0.3,0.6-0.7,1-1c0.4-0.4,0.8-0.7,1.2-1s0.8-0.6,1.1-0.9c-2.1-0.9-4.2-2-6.3-3.2c-2.1-1.3-4-2.6-5.7-4.1
			c-0.9-0.8-1.7-1.6-2.4-2.3l14.6,3l0.7-3.5l-17.9-3.7L220.7,105.9z"/>
	</g>
</g>
</svg>
