<?xml version="1.0" encoding="utf-8"?>
<!-- Generator: Adobe Illustrator 26.0.0, SVG Export Plug-In . SVG Version: 6.00 Build 0)  -->
<svg version="1.1" id="图层_1" xmlns="http://www.w3.org/2000/svg" xmlns:xlink="http://www.w3.org/1999/xlink" x="0px" y="0px"
	 width="32px" height="32px" viewBox="0 0 32 32" style="enable-background:new 0 0 32 32;" xml:space="preserve">
<style type="text/css">
	.st0{fill:#FFFAF2;}
	.st1{fill:#60474B;}
	.st2{fill:#96765F;}
	.st3{fill:#845659;}
	.st4{fill:#D1AD93;}
	.st5{fill:#3D3125;}
	.st6{fill:#9C8671;}
	.st7{fill:none;stroke:#262524;stroke-width:1.5;stroke-miterlimit:10;}
</style>
<g>
	<path class="st0" d="M6,26V6H26V26H6z"/>
	<g>
		<path class="st1" d="M20.7,14.8l-0.1-1.8l2.8-0.5l-0.9,1.2L20.7,14.8z"/>
		<path class="st2" d="M19.4,22l-6.8,3.5l0.3-1.1l1.7-1.9l4.6-2.7l1.7,0.3l0.4,1.3L19.4,22z"/>
		<path class="st3" d="M15.3,22.8l0.8-4.4l3.5-0.2l0.2,2.9l0.2,1.4l-2.1,2.7L15.1,26L15.3,22.8z"/>
		<path class="st2" d="M12.7,25.7l2.5-3.1l0.9,2.2l3.8-3.5l1.4-0.2l0.2,0.5l1.1,0.9l-0.2,0.6l2,1.2l1.1,1.1L12.7,25.7z"/>
		<path class="st4" d="M19.2,20.3l-1.2,1l-1.4,1.4l-1.8,0.1l-0.5-0.9L13.5,21l-0.6-1.7l-0.6-0.7l-0.1-1.4L11.8,16l1.9-3.3l3.7-0.3
			l2.3,3.9l0.5,1.2l-0.8,1.1L19.2,20.3z"/>
		<path class="st5" d="M19.3,17.3l-0.7-1.9l-1.1-0.8l2-1.8l2.2,2.4l-0.5,0l0,0.3l-0.6,0.1l-1,0.7L19.3,17.3z"/>
		<path class="st4" d="M19.7,16.3l0.5-0.8l0.7-0.4l0.4,1l0,1.1l-0.7,0.8l-0.3,0.7l-0.9-0.1L19.7,16.3z"/>
		<path class="st1" d="M8.3,16.3l0.2-0.7l3-1.5l9.3-1.9l1.7-0.8l1,0.3l-0.1,1l-6.8,2.9l-6.3,1.1L8.3,16.3z"/>
		<path class="st6" d="M11.2,14.8l0.2-2.1l0.3-0.3l0.4-1.4l-0.1-1.5l0.9-1.1l1.5,0.3l3.3-0.9l1.6,0.9l0.3,1.6l0.6,1.5l0.5,0.1
			l0.1,0.5l-2.1,1.3l-5.4,1.2L11.2,14.8z"/>
	</g>
	<path class="st7" d="M6,26V6H26V26H6z"/>
</g>
</svg>
