<?xml version="1.0" encoding="utf-8"?>
<!-- Generator: Adobe Illustrator 26.0.0, SVG Export Plug-In . SVG Version: 6.00 Build 0)  -->
<svg version="1.0" id="图层_1" xmlns="http://www.w3.org/2000/svg" xmlns:xlink="http://www.w3.org/1999/xlink" x="0px" y="0px"
	 width="273.60001px" height="272.89999px" viewBox="0 0 273.60001 272.89999"
	 style="enable-background:new 0 0 273.60001 272.89999;" xml:space="preserve">
<style type="text/css">
	.st0{fill:#FFFFFF;}
	.st1{fill:none;stroke:#1A1A1A;stroke-width:3.6;stroke-linecap:round;stroke-miterlimit:10;}
	.st2{fill:none;stroke:#1A1A1A;stroke-width:3.6;stroke-linecap:round;stroke-linejoin:round;stroke-miterlimit:10;}
	.st3{fill:none;stroke:#1A1A1A;stroke-width:3.6;stroke-miterlimit:10;}
	.st4{fill:#4D4DFF;}
	.st5{fill:#FF4D4D;}
	.st6{fill:#FFFFFF;stroke:#FFFFFF;stroke-width:3.6;stroke-miterlimit:10;}
	.st7{fill:none;stroke:#FFFFFF;stroke-width:3.6;stroke-linecap:round;stroke-miterlimit:10;}
	.st8{fill:#FFFFFF;stroke:#FFFFFF;stroke-width:3.6;stroke-linecap:round;stroke-miterlimit:10;}
	.st9{fill:none;stroke:#1A1A1A;stroke-width:1.2;stroke-miterlimit:10;}
	.st10{fill:none;stroke:#1A1A1A;stroke-width:1.2;stroke-linecap:round;stroke-miterlimit:10;}
	.st11{fill:none;stroke:#FFFFFF;stroke-width:5.4;stroke-linecap:round;stroke-miterlimit:10;}
	.st12{fill:none;stroke:#FFFFFF;stroke-width:5.4;stroke-miterlimit:10;}
	.st13{fill:none;stroke:#1A1A1A;stroke-width:1.8;stroke-linecap:round;stroke-miterlimit:10;}
	.st14{fill:none;stroke:#1A1A1A;stroke-width:1.8;stroke-miterlimit:10;}
</style>
<rect x="54.72" y="54.72" class="st0" width="164.16" height="164.16"/>
<g>
	<g>
		<g>
			<path class="st1" d="M136.86,216.54001V58.2"/>
			<path class="st2" d="M129.60001,64.32l7.25999-7.26l7.25999,7.26"/>
		</g>
		<g>
			<path class="st1" d="M57.12,136.74001h158.34"/>
			<path class="st2" d="M209.34001,129.48l7.25999,7.26001L209.34001,144"/>
		</g>
	</g>
	<g>
		<circle class="st3" cx="136.86" cy="136.8" r="54"/>
		<polygon class="st4" points="136.86,191.28 89.64,109.44 184.14,109.44 		"/>
		<polygon class="st5" points="136.86,191.28 89.64,109.44 136.86,109.44 		"/>
		<path class="st3" d="M183.90001,110.28c-0.24001-0.42-0.48001-0.84-0.72-1.25999H90.54c-0.06,0.12-0.12,0.18-0.18,0.3
			c-0.18,0.3-0.36,0.66-0.48,0.9l46.5,80.58c0.18001,0,0.3,0,0.48,0c0.18001,0,0.42,0,0.60001,0L183.90001,110.28z"/>
	</g>
</g>
<g>
	<g>
		<g>
			<path class="st6" d="M151.02,148.56c-0.96001-0.96001-0.96001-2.46001,0-3.42c0.96001-0.96001,2.46001-0.96001,3.42,0
				c0.96001,0.96001,0.96001,2.46001,0,3.42C153.48001,149.52,151.98001,149.52,151.02,148.56z"/>
			<g>
				<path class="st7" d="M146.75999,149.10001v-4.5"/>
				<path class="st7" d="M144.95999,145.14c0.96001-0.96001,2.46001-0.96001,3.42,0"/>
				<path class="st7" d="M148.44,148.56c-0.96001,0.96001-2.46001,0.96001-3.42,0"/>
			</g>
			<path class="st8" d="M138.12,144.42H140.52c1.38,0,2.39999,1.08,2.39999,2.40001c0,1.37999-1.08,2.39999-2.39999,2.39999H138.12
				V144.42z"/>
			<path class="st7" d="M135.84,144.42v2.40001c0,1.37999-1.08,2.39999-2.39999,2.39999c-1.38,0-2.40001-1.08-2.40001-2.39999
				V144.42"/>
			<g>
				<path class="st7" d="M126.36,149.28v-4.67999"/>
				<path class="st7" d="M123.96,146.88c0-1.38,1.08-2.39999,2.4-2.39999c1.38,0,2.40001,1.08,2.40001,2.39999"/>
			</g>
			<path class="st7" d="M118.62,148.56c0.96,0.96001,2.46,0.96001,3.42,0l0,0l-3.42-3.42l0,0c0.96-0.96001,2.46-0.96001,3.42,0"/>
		</g>
		<g>
			<path class="st9" d="M151.02,148.56c-0.96001-0.96001-0.96001-2.46001,0-3.42c0.96001-0.96001,2.46001-0.96001,3.42,0
				c0.96001,0.96001,0.96001,2.46001,0,3.42C153.48001,149.52,151.98001,149.52,151.02,148.56z"/>
			<g>
				<path class="st10" d="M146.75999,149.10001v-4.5"/>
				<path class="st10" d="M144.95999,145.14c0.96001-0.96001,2.46001-0.96001,3.42,0"/>
				<path class="st10" d="M148.44,148.56c-0.96001,0.96001-2.46001,0.96001-3.42,0"/>
			</g>
			<path class="st10" d="M138.12,144.42H140.52c1.38,0,2.39999,1.08,2.39999,2.40001c0,1.37999-1.08,2.39999-2.39999,2.39999H138.12
				V144.42z"/>
			<path class="st10" d="M135.84,144.42v2.40001c0,1.37999-1.08,2.39999-2.39999,2.39999c-1.38,0-2.40001-1.08-2.40001-2.39999
				V144.42"/>
			<g>
				<path class="st10" d="M126.36,149.28v-4.67999"/>
				<path class="st10" d="M123.96,146.88c0-1.38,1.08-2.39999,2.4-2.39999c1.38,0,2.40001,1.08,2.40001,2.39999"/>
			</g>
			<path class="st10" d="M118.62,148.56c0.96,0.96001,2.46,0.96001,3.42,0l0,0l-3.42-3.42l0,0c0.96-0.96001,2.46-0.96001,3.42,0"/>
		</g>
	</g>
	<g>
		<g>
			<g>
				<path class="st11" d="M153.78,123.60001v13.08"/>
				<path class="st11" d="M147.12,130.02c0-3.60001,2.94-6.60001,6.60001-6.60001c3.60001,0,6.60001,2.94,6.60001,6.60001"/>
			</g>
			<path class="st12" d="M132.06,134.7c-2.58-2.58-2.58-6.71999,0-9.3s6.72-2.58,9.3,0s2.58,6.71999,0,9.3
				S134.64,137.28,132.06,134.7z"/>
			<path class="st11" d="M124.32,134.7c-2.58,2.58-6.71999,2.58-9.3,0s-2.58-6.71999,0-9.3s6.71999-2.58,9.3,0"/>
		</g>
		<g>
			<g>
				<path class="st13" d="M153.78,123.60001v13.08"/>
				<path class="st13" d="M147.12,130.02c0-3.60001,2.94-6.60001,6.60001-6.60001c3.60001,0,6.60001,2.94,6.60001,6.60001"/>
			</g>
			<path class="st14" d="M132.06,134.7c-2.58-2.58-2.58-6.71999,0-9.3s6.72-2.58,9.3,0s2.58,6.71999,0,9.3
				S134.64,137.28,132.06,134.7z"/>
			<path class="st13" d="M124.32,134.7c-2.58,2.58-6.71999,2.58-9.3,0s-2.58-6.71999,0-9.3s6.71999-2.58,9.3,0"/>
		</g>
	</g>
</g>
</svg>
