<svg xmlns="http://www.w3.org/2000/svg" xmlns:xlink="http://www.w3.org/1999/xlink" width="400" height="291.54999" viewBox="0 0 400 291.54999"><defs><style>.a{fill:#736155;}.b{opacity:0.92;}.c{fill:#5c483d;}.d{fill:#877c5b;}.e{fill:#807556;stroke:#7a6854;}.ar,.dm,.do,.dp,.dt,.e,.f,.t,.z{stroke-miterlimit:10;}.ar,.dm,.do,.dp,.f,.o,.z{fill:none;}.f{stroke:#706050;}.f,.o,.t{stroke-width:2px;}.g{fill:#4d4238;}.h{fill:#827c62;}.aa,.aj,.dr,.ds,.i{isolation:isolate;}.j{fill:#56594f;}.k{fill:#7a705f;}.l{fill:#998c77;}.m{fill:#574652;}.n{fill:#ab9f9c;}.o{stroke:#8f868f;stroke-linecap:round;stroke-linejoin:bevel;}.p{fill:#5b5d69;}.q{fill:#737582;}.r{fill:#50525c;}.s,.t{fill:#656678;}.t{stroke:#656678;}.u{fill:#687a7d;}.v{fill:#c2c2c2;}.w{fill:#4d595c;}.x{fill:#403e54;}.y{fill:#404742;}.z{stroke:#2a61a8;}.dm,.do,.dp,.z{stroke-width:0.5px;}.aa,.aj{fill:#362630;}.aa{opacity:0.29;}.ab{fill:#737373;}.ac{fill:#b3b3b3;}.ad{fill:#57432d;}.ae{fill:#a3a65b;}.af{fill:#7a7246;}.ag{fill:#504159;}.ah{fill:#746f8a;}.ai{fill:#4f495e;}.aj{opacity:0.34;}.ak{fill:#fffaf2;}.al{fill:#384737;}.am{fill:#b98566;}.an{fill:#f1bc9c;}.ao{fill:#886f5f;}.ap{fill:#1a1715;}.aq{fill:#d8d5ce;}.ar{stroke:#262524;stroke-width:1.5px;}.as{fill:#4d4a45;}.at{fill:#aa7a4c;}.au{fill:#e69981;}.av{fill:#ffcaa8;}.aw,.dt{fill:#fff;}.ax{fill:#f0cd2a;}.ay{fill:#d3ecf3;}.az{fill:#4a4328;}.ba{fill:#d47d72;}.bb{fill:#eead8d;}.bc{fill:#4657a1;}.bd{fill:#0d1331;}.be{fill:#d6dcf5;}.bf{fill:#ec876c;}.bg{fill:#f8bb9e;}.bh{fill:#9d836d;}.bi{fill:#98673b;}.bj{fill:#736f36;}.bk{fill:#2c2a31;}.bl{fill:#c67a58;}.bm{fill:#f4af86;}.bn{fill:#39291c;}.bo{fill:#bf8967;}.bp{fill:#375e63;}.bq{fill:#132022;}.br{fill:#855e56;}.bs{fill:#d1ad93;}.bt{fill:#4e1010;}.bu{fill:#73713d;}.bv{fill:#6a5e46;}.bw{fill:#c1ac80;}.bx{fill:#f19775;}.by{fill:#542859;}.bz{fill:#693120;}.ca{fill:#fcceb4;}.cb{fill:#28162b;}.cc{fill:#bfa6c2;}.cd{fill:#c98d7b;}.ce{fill:#8f2d2d;}.cf{fill:#fcd2b3;}.cg{fill:#2f0a0a;}.ch{fill:#d8ae4e;}.ci{fill:#f2eeeb;}.cj{fill:#fcdb81;}.ck{fill:#fcf6e6;}.cl{fill:#de9278;}.cm{fill:#fed1b0;}.cn{fill:#211010;}.co{fill:#f5d987;}.cp{fill:#8e5338;}.cq{fill:#a85c3e;}.cr{fill:#f79c81;}.cs{fill:#ffdbc5;}.ct{fill:#d2734d;}.cu{fill:#294f34;}.cv{fill:#bf6f52;}.cw{fill:#1e1212;}.cx{fill:#e2885c;}.cy{fill:#8c7231;}.cz{fill:#eeeae8;}.da{fill:#997467;}.db{fill:#bda362;}.dc{fill:#60474b;}.dd{fill:#96765f;}.de{fill:#845659;}.df{fill:#3d3125;}.dg{fill:#9c8671;}.dh{fill:#3e2c2a;}.di{fill:#fff3e6;}.dj{fill:#1c1716;}.dk{fill:#c4f1ff;}.dl{opacity:0.72;}.dm{stroke:#331f1f;}.dn{fill:#331415;}.do{stroke:#24528f;}.dp{stroke:#823030;}.dq{fill:url(#a);}.dr{fill:#25272e;opacity:0.6;}.ds{fill:#362926;opacity:0.3;}.dt{stroke:#fff;stroke-width:3px;}.du{fill:#e64545;}.dv{fill:#363636;}</style><radialGradient id="a" cx="200.96999" cy="225.04001" r="249.10226" gradientTransform="matrix(1, 0, 0, -0.5, 0, 250.925)" gradientUnits="userSpaceOnUse"><stop offset="0.32" stop-color="#dba0d5" stop-opacity="0"/><stop offset="0.54" stop-color="#68667c" stop-opacity="0.4"/><stop offset="0.81828" stop-color="#332117" stop-opacity="0.8"/></radialGradient></defs><path class="a" d="M40.75,199.2V19.2h320v180Z" transform="translate(0 29.06)"/><g class="b"><polygon class="c" points="211.12 70.5 213.7 47.34 208.7 2.5 172.59 2.5 2.33 2.5 2.33 114.79 66.08 111.73 117.73 114.79 166.56 107.78 214.7 114.79 211.12 70.5"/><polygon class="d" points="206.7 0.5 0.33 0.5 0.33 112.79 64.08 109.73 115.73 112.79 164.56 105.78 212.7 112.79 209.12 68.5 211.7 45.34 206.7 0.5"/><polygon class="e" points="64.08 109.73 115.73 112.79 113.54 70.03 117.69 44.07 119.9 12.08 76.7 10.54 78.32 42.46 68.18 68.71 64.08 109.73"/><polygon class="e" points="164.56 105.78 163.73 67.27 170.44 41.05 170.59 0.5 206.7 0.5 211.7 45.34 209.12 68.5 212.7 112.79 164.56 105.78"/><polygon class="f" points="64.16 94.71 15.33 97.05 15.33 15.5 192.7 15.5 196.7 44.19 194.03 67.95 196.23 95.23 164.57 90.62 115.1 97.73 64.16 94.71"/></g><polygon class="g" points="358.6 80.15 345.75 81.48 305.07 82.43 283.76 80.17 285.82 93.21 284.71 94.94 285.07 98.36 283.85 101.35 285.47 133.02 284.72 139.18 285.37 140.66 284.3 142.39 285.1 144.03 284.3 146.05 284.21 151.31 283.76 177.67 340.3 176.71 359.72 177.67 357.24 157.57 354.9 153 356.31 148.8 354.9 135.45 357.24 117.57 356.86 98.01 358.6 80.15"/><polygon class="h" points="369.11 79.06 351.75 80.4 296.77 81.34 267.98 79.09 270.76 92.13 269.25 93.85 269.75 97.28 268.09 100.26 270.29 131.93 269.28 138.1 270.15 139.58 268.7 141.3 269.78 142.95 268.7 144.96 268.58 150.22 267.98 176.58 344.38 175.63 370.62 176.58 367.27 156.49 364.12 151.91 366.02 147.72 364.12 134.36 367.27 116.49 366.77 96.93 369.11 79.06"/><g class="i"><g class="i"><path class="j" d="M335.90417,70.23v-8.3164h-2.80859v-.39551h6.084v.39551H336.372V70.23Z" transform="translate(0 29.06)"/></g><g class="i"><path class="j" d="M343.13562,70.38629a2.64359,2.64359,0,0,1-1.39746-.39062,2.77848,2.77848,0,0,1-1.02637-1.12793,3.81756,3.81756,0,0,1-.38379-1.78125,3.91808,3.91808,0,0,1,.38379-1.8125,2.7704,2.7704,0,0,1,1.02637-1.13379,2.67128,2.67128,0,0,1,3.37207.47949,3.04229,3.04229,0,0,1,.61133,1.05078,4.19618,4.19618,0,0,1,.22265,1.416,3.76974,3.76974,0,0,1-.39062,1.78125,2.83846,2.83846,0,0,1-1.02539,1.12793A2.617,2.617,0,0,1,343.13562,70.38629Zm0-.39648a2.08842,2.08842,0,0,0,1.207-.36621,2.51822,2.51822,0,0,0,.8457-1.01954,3.501,3.501,0,0,0,.31153-1.51757,3.57086,3.57086,0,0,0-.31153-1.53614,2.56488,2.56488,0,0,0-.8457-1.03222,2.14073,2.14073,0,0,0-2.41211,0,2.49888,2.49888,0,0,0-.83984,1.03222,3.60017,3.60017,0,0,0-.30664,1.53614,3.52956,3.52956,0,0,0,.30664,1.51757,2.45371,2.45371,0,0,0,.83984,1.01954A2.08014,2.08014,0,0,0,343.13562,69.98981Z" transform="translate(0 29.06)"/><path class="j" d="M349.73621,70.38629a2.49412,2.49412,0,0,1-1.37989-.37793,2.44836,2.44836,0,0,1-.91211-1.11621,4.47232,4.47232,0,0,1-.32421-1.80566,3.779,3.779,0,0,1,.39062-1.77051,2.94624,2.94624,0,0,1,1.03125-1.1582,2.58159,2.58159,0,0,1,1.41016-.40821,2.41754,2.41754,0,0,1,1.01953.2041,4.52138,4.52138,0,0,1,.92383.58789l-.03516-1.1875V60.70172h.43164V70.23h-.35937l-.06055-.83984h-.02344a4.34848,4.34848,0,0,1-.92383.69629A2.37718,2.37718,0,0,1,349.73621,70.38629Zm.03613-.39648a2.127,2.127,0,0,0,1.06152-.28809,4.82657,4.82657,0,0,0,1.02637-.80371v-3.8877a3.60429,3.60429,0,0,0-.97852-.666,2.39914,2.39914,0,0,0-.95312-.19824,1.96146,1.96146,0,0,0-1.19531.3955,2.7544,2.7544,0,0,0-.84571,1.0625,3.46794,3.46794,0,0,0-.31152,1.48243,4.12078,4.12078,0,0,0,.25781,1.51757,2.263,2.263,0,0,0,.75,1.01954A1.9335,1.9335,0,0,0,349.77234,69.98981Z" transform="translate(0 29.06)"/><path class="j" d="M356.828,70.38629a2.64364,2.64364,0,0,1-1.39746-.39062,2.7873,2.7873,0,0,1-1.02734-1.12793,3.81765,3.81765,0,0,1-.38281-1.78125,3.91826,3.91826,0,0,1,.38281-1.8125,2.77912,2.77912,0,0,1,1.02734-1.13379,2.67044,2.67044,0,0,1,3.3711.47949,3.04416,3.04416,0,0,1,.6123,1.05078,4.22129,4.22129,0,0,1,.22168,1.416,3.76967,3.76967,0,0,1-.38965,1.78125,2.84763,2.84763,0,0,1-1.02637,1.12793A2.61359,2.61359,0,0,1,356.828,70.38629Zm0-.39648a2.0832,2.0832,0,0,0,1.20606-.36621,2.51061,2.51061,0,0,0,.8457-1.01954,3.48711,3.48711,0,0,0,.3125-1.51757,3.55664,3.55664,0,0,0-.3125-1.53614,2.55706,2.55706,0,0,0-.8457-1.03222,2.14073,2.14073,0,0,0-2.41211,0,2.50649,2.50649,0,0,0-.83985,1.03222,3.61492,3.61492,0,0,0-.30664,1.53614,3.54405,3.54405,0,0,0,.30664,1.51757,2.46111,2.46111,0,0,0,.83985,1.01954A2.081,2.081,0,0,0,356.828,69.98981Z" transform="translate(0 29.06)"/></g></g><polygon class="g" points="290.12 201.8 278.3 203.03 240.85 203.9 221.25 201.82 223.14 213.82 222.12 215.41 222.45 218.56 221.33 221.31 222.82 250.46 222.13 256.13 222.73 257.49 221.74 259.08 222.47 260.59 221.74 262.45 221.66 267.29 221.25 291.55 273.28 290.67 291.15 291.55 288.87 273.06 286.72 268.84 288.02 264.98 286.72 252.69 288.87 236.24 288.52 218.24 290.12 201.8"/><polygon class="k" points="289.12 200.8 277.3 202.03 239.85 202.9 220.25 200.82 222.14 212.82 221.12 214.41 221.45 217.56 220.33 220.31 221.82 249.46 221.13 255.13 221.73 256.49 220.74 258.08 221.47 259.59 220.74 261.45 220.66 266.29 220.25 290.55 272.28 289.67 290.15 290.55 287.87 272.06 285.72 267.84 287.02 263.98 285.72 251.69 287.87 235.24 287.52 217.24 289.12 200.8"/><polygon class="g" points="277.21 97.87 264.37 99.21 223.68 100.16 202.38 97.9 204.44 110.94 203.32 112.66 203.69 116.09 202.46 119.07 204.09 150.74 203.34 156.91 203.99 158.39 202.91 160.11 203.71 161.76 202.91 163.77 202.83 169.03 202.38 195.39 258.91 194.44 278.33 195.39 275.85 175.3 273.52 170.72 274.93 166.53 273.52 153.17 275.85 135.3 275.48 115.74 277.21 97.87"/><polygon class="l" points="276.13 96.78 263.28 98.12 222.59 99.07 201.29 96.81 203.35 109.85 202.24 111.58 202.6 115 201.38 117.98 203 149.66 202.25 155.82 202.9 157.3 201.83 159.02 202.63 160.67 201.83 162.69 201.74 167.94 201.29 194.3 257.82 193.35 277.24 194.3 274.77 174.21 272.43 169.64 273.84 165.44 272.43 152.08 274.77 134.21 274.39 114.65 276.13 96.78"/><path class="m" d="M212.11,187.39l-3.17,1.65H179.32v-33.7l1.67-1.9-1.67-1.59v-5.52l3.89-3.89,33.7-.71c.4,9.91.09,16.94.09,32.21,0,3.97,0,7.92-.32,11.71l-1.73,1.73h-2.84Z" transform="translate(0 29.06)"/><path class="n" d="M210.43,185.9l-3.17,1.65H178.64v-33.7l1.67-1.9-1.67-1.59v-5.52l3.89-3.89H217c-.03,10.3-.38,21.02-1.13,32.13q-.375,5.625-.87,11.08c-.58.58-1.16,1.16-1.73,1.73h-2.84Z" transform="translate(0 29.06)"/><line class="o" x1="184.62" y1="177.91" x2="211.38998" y2="178.00999"/><line class="o" x1="184.62" y1="183.64" x2="211.57001" y2="183.75"/><line class="o" x1="184.62" y1="189.28" x2="211.38998" y2="189.39"/><line class="o" x1="184.44" y1="195.31" x2="204.65999" y2="195.41"/><line class="o" x1="202.79999" y1="205.94" x2="212.16" y2="206.05"/><polygon class="p" points="118.25 257.35 6.53 257.35 6.53 142.89 120.99 142.89 118.25 180.55 120.99 207.98 118.25 257.35"/><polygon class="q" points="117.25 255.35 5.53 255.35 5.53 140.89 119.99 140.89 117.25 178.55 119.99 205.98 117.25 255.35"/><g class="i"><g class="i"><path class="r" d="M45.14978,128.22028v-8.71192h1.956a4.12632,4.12632,0,0,1,2.22022.54,3.22977,3.22977,0,0,1,1.27783,1.51172,5.79066,5.79066,0,0,1,.41406,2.28027,5.88893,5.88893,0,0,1-.41406,2.28614,3.28253,3.28253,0,0,1-1.27783,1.542,4.033,4.033,0,0,1-2.208.55176Zm.44434-.39649h1.45166a3.56259,3.56259,0,0,0,2.01025-.51562,2.98206,2.98206,0,0,0,1.13379-1.42188,5.49592,5.49592,0,0,0,.36035-2.0459,5.38963,5.38963,0,0,0-.36035-2.04,2.92771,2.92771,0,0,0-1.13379-1.3916,3.61818,3.61818,0,0,0-2.01025-.50488H45.59412Z" transform="translate(0 29.06)"/></g><g class="i"><path class="r" d="M55.04626,128.37653a2.24641,2.24641,0,0,1-.90625-.18067,1.50195,1.50195,0,0,1-.666-.55762,1.85658,1.85658,0,0,1,.74414-2.58007A8.9202,8.9202,0,0,1,57.35,124.272a3.63747,3.63747,0,0,0-.08985-1.002,1.60531,1.60531,0,0,0-.45019-.80957,1.38344,1.38344,0,0,0-.9961-.32422,2.7273,2.7273,0,0,0-1.21191.26367,5.20729,5.20729,0,0,0-.85205.50391l-.21582-.34766q.20361-.14355.5459-.33593a4.2768,4.2768,0,0,1,.792-.33594,3.16341,3.16341,0,0,1,.96631-.14453,1.86863,1.86863,0,0,1,1.16992.33008,1.75963,1.75963,0,0,1,.6001.87011,3.8674,3.8674,0,0,1,.17382,1.18848v4.0918h-.35986l-.06006-.83985h-.03613a5.95134,5.95134,0,0,1-1.062.69629A2.63368,2.63368,0,0,1,55.04626,128.37653Zm.03565-.39649a2.44594,2.44594,0,0,0,1.104-.26953,6.04909,6.04909,0,0,0,1.16407-.79785V124.6441a10.65458,10.65458,0,0,0-2.17774.41407,2.6659,2.6659,0,0,0-1.1582.66015,1.35007,1.35007,0,0,0-.34815.92969,1.18292,1.18292,0,0,0,.41993,1.03223A1.66834,1.66834,0,0,0,55.08191,127.98Z" transform="translate(0 29.06)"/><path class="r" d="M59.642,120.30035a.40252.40252,0,0,1-.312-.13183.51469.51469,0,0,1-.11963-.36035.45872.45872,0,0,1,.11963-.33008.41161.41161,0,0,1,.312-.126.41675.41675,0,0,1,.30615.126.44687.44687,0,0,1,.126.33008.50007.50007,0,0,1-.126.36035A.4076.4076,0,0,1,59.642,120.30035Zm-.228,7.91993v-6.32422h.43213v6.32422Z" transform="translate(0 29.06)"/></g><g class="i"><path class="r" d="M63.75818,128.37653a.64669.64669,0,0,1-.34815-.08985.57693.57693,0,0,1-.22216-.28222,1.31558,1.31558,0,0,1-.07813-.49219V118.692h.43213v8.89257a.50456.50456,0,0,0,.07227.29395.22451.22451,0,0,0,.19189.10156.70732.70732,0,0,0,.084-.00586l.14405-.01758.084.37207c-.05615.00782-.10791.01758-.15625.0293A.84168.84168,0,0,1,63.75818,128.37653Z" transform="translate(0 29.06)"/></g><g class="i"><path class="r" d="M65.94812,131.148a1.51993,1.51993,0,0,1-.32422-.03613,1.18553,1.18553,0,0,1-.28808-.09571l.10791-.3955a1.00732,1.00732,0,0,0,.24023.07714,1.375,1.375,0,0,0,.28809.03028,1.24475,1.24475,0,0,0,1.00781-.50977,4.24665,4.24665,0,0,0,.67187-1.26562l.18018-.58887-2.61621-6.46777h.48047l1.5957,4.12793q.156.40869.34229.88183.1853.47461.36572.89453h.06006q.156-.42041.312-.89453.156-.47315.28808-.88183l1.416-4.12793h.44385l-2.52,7.21191a4.64173,4.64173,0,0,1-.43213.96,2.68757,2.68757,0,0,1-.67188.77442A1.50385,1.50385,0,0,1,65.94812,131.148Z" transform="translate(0 29.06)"/></g></g><polygon class="s" points="37.08 168.91 101.1 169.91 101.1 181.08 103.34 192.58 37.45 191.94 34.97 180.43 37.08 168.91"/><path class="t" d="M102.62,171.93c-1.48-.38-62.89,0-62.89,0" transform="translate(0 29.06)"/><path class="t" d="M103.37,177.58c-1.48-.38-62.89,0-62.89,0" transform="translate(0 29.06)"/><path class="t" d="M104.5,183.08c-1.5-.21-64.02,0-64.02,0" transform="translate(0 29.06)"/><path class="t" d="M101.57,188.73c-1.48-.38-62.89,0-62.89,0" transform="translate(0 29.06)"/><rect class="u" x="119.03999" y="120.25" width="41.18001" height="31.38"/><path class="v" d="M159.22,92.19v29.38H120.04V92.19h39.18m2-2H118.04v33.38h43.18V90.19Z" transform="translate(0 29.06)"/><polygon class="w" points="120.04 137.11 123.35 137.83 123.39 133.31 128.62 130.41 136.87 132.38 136.94 135.6 141.51 133.46 149.02 135.13 149.02 144.11 159.22 146.4 159.22 150.63 120.04 150.63 120.04 137.11"/><polygon class="x" points="120.04 150.63 120.04 137.11 159.22 146.4 159.22 150.63 120.04 150.63"/><path class="y" d="M159.22,102.45l-4.68,1.92s-1.7,4.94-1.7,5.31a17.78042,17.78042,0,0,0,2.29,2.73l2.51,1.84-.24,2.66,1.83.43V102.45Z" transform="translate(0 29.06)"/><rect class="u" x="103.75621" y="169.57549" width="40.92999" height="53.90999" transform="translate(-77.66155 340.90957) rotate(-87.44)"/><path class="v" d="M99.15,175.9l51.86,2.31-1.74,38.89-51.86-2.31,1.74-38.89m-1.91-2.09-.09,2L95.41,214.7l-.09,2,2,.09,51.86,2.31,2,.09.09-2,1.74-38.89.09-2-2-.09L99.24,173.9l-2-.09Z" transform="translate(0 29.06)"/><polygon class="w" points="98.22 225.96 102.56 227.11 102.87 221.13 109.97 217.6 120.76 220.7 120.68 224.96 126.84 222.4 136.69 225.06 136.16 236.94 149.52 240.57 149.27 246.17 97.42 243.86 98.22 225.96"/><polygon class="x" points="97.42 243.86 98.22 225.96 149.52 240.57 149.27 246.17 97.42 243.86"/><path class="y" d="M150.4,191.8l-6.31,2.26s-2.54,6.44-2.56,6.92,2.86,3.74,2.86,3.74l3.21,2.59-.48,3.51,2.39.68.88-19.71Z" transform="translate(0 29.06)"/><rect class="u" x="116.80681" y="182.18373" width="42.95999" height="32.72" transform="translate(-6.10041 33.45125) rotate(-1.78)"/><path class="v" d="M158.28,182.56l.95,30.71-40.94,1.27-.95-30.71,40.94-1.27m1.94-2.06-2,.06-40.94,1.27-2,.06.06,2,.95,30.71.06,2,2-.06,40.94-1.27,2-.06-.06-2-.95-30.71-.06-2h0Z" transform="translate(0 29.06)"/><polygon class="w" points="117.85 229.47 121.34 230.12 121.23 225.4 126.6 222.19 135.28 223.99 135.47 227.35 140.17 224.97 148.07 226.47 148.36 235.85 159.1 237.91 159.23 242.33 118.29 243.6 117.85 229.47"/><polygon class="x" points="118.29 243.6 117.85 229.47 159.1 237.91 159.23 242.33 118.29 243.6"/><path class="y" d="M158.61,193.29l-4.83,2.15s-1.61,5.22-1.6,5.6,2.48,2.78,2.48,2.78l2.68,1.84-.17,2.79,1.92.39-.48-15.56Z" transform="translate(0 29.06)"/><path class="z" d="M149.72,179.41v5.28a1.30807,1.30807,0,0,1-1.31,1.31h0a1.30806,1.30806,0,0,1-1.31-1.31v-7.46a1.80952,1.80952,0,0,1,1.81-1.81h0a1.81432,1.81432,0,0,1,1.49.78" transform="translate(0 29.06)"/><rect class="aa" x="294.87198" y="160.87262" width="65.08002" height="50.72002" transform="translate(-22.07401 74.79088) rotate(-7.73)"/><rect class="n" x="292.87664" y="157.86889" width="65.08002" height="50.72" transform="translate(-21.68812 74.4952) rotate(-7.73)"/><rect class="ab" x="299.08133" y="167.9166" width="9.63" height="12.17" transform="translate(-20.64256 71.51676) rotate(-7.73)"/><rect class="ac" x="298.50591" y="167.32005" width="9.63" height="12.17" transform="translate(-20.56755 71.43394) rotate(-7.73)"/><line class="o" x1="313.01001" y1="205.28" x2="346.47998" y2="200.83"/><line class="o" x1="301.17999" y1="214.11" x2="347.44" y2="207.92999"/><line class="o" x1="302.07999" y1="220.75999" x2="348.34" y2="214.58"/><polygon class="ad" points="264.9 161.81 233.83 155.3 230.5 171.2 231.95 173.75 261.12 179.86 264.9 161.81"/><polygon class="ae" points="264.9 160.81 233.83 154.3 230.5 170.2 231.95 172.75 261.12 178.86 264.9 160.81"/><g class="i"><g class="i"><path class="af" d="M238.12,141.15973a2.063,2.063,0,0,1-1.11915-.55176,2.2755,2.2755,0,0,1-.61328-1.10547,3.57684,3.57684,0,0,1-.02148-1.50683,3.66745,3.66745,0,0,1,.36523-1.10645,2.55412,2.55412,0,0,1,.623-.78223,2.12966,2.12966,0,0,1,.83008-.41992,2.34662,2.34662,0,0,1,.98633-.02246,1.70305,1.70305,0,0,1,.83984.35938,2.58353,2.58353,0,0,1,.4707.5205l-.20117.1543a1.91977,1.91977,0,0,0-.43652-.48144,1.5723,1.5723,0,0,0-.71778-.2959,1.94933,1.94933,0,0,0-1.14257.1123,1.98691,1.98691,0,0,0-.8545.73633,3.30639,3.30639,0,0,0-.47753,1.27637,3.45254,3.45254,0,0,0,.0039,1.36816,2.01811,2.01811,0,0,0,.52735.99512,1.81852,1.81852,0,0,0,1.0039.49805,2.26458,2.26458,0,0,0,.73828.01269,1.37214,1.37214,0,0,0,.58985-.21582l.30664-1.74512-1.31055-.23144.043-.24121,1.5957.28222-.36523,2.07227a1.87627,1.87627,0,0,1-.71875.31641A2.41707,2.41707,0,0,1,238.12,141.15973Z" transform="translate(0 29.06)"/></g><g class="i"><path class="af" d="M240.662,141.50934l2.834-4.98535.24219.043.96777,5.65527-.293-.05176-.54492-3.38183c-.05566-.34278-.10644-.667-.15332-.97559-.0459-.30762-.08887-.63574-.12793-.98633l-.02929-.00488q-.23437.47314-.46192.88281-.22706.40869-.48047.86328l-1.68261,2.98926Zm1.15332-1.7461.041-.23339,2.374.418-.041.2334Z" transform="translate(0 29.06)"/></g><g class="i"><path class="af" d="M246.61609,142.55817l.9375-5.31934.28516.04981,1.6621,4.28906.42383,1.15625.03711.00586c.03028-.26172.06446-.51563.10059-.76465.03515-.24707.07617-.4961.11914-.74512l.60351-3.42187.26368.04589-.9375,5.31934-.293-.05078-1.6543-4.28711-.42383-1.15625-.02929-.00488q-.05127.37645-.10645.72949c-.03613.23437-.07617.47949-.12109.7334l-.61036,3.46582Z" transform="translate(0 29.06)"/></g><g class="i"><path class="af" d="M254.11316,143.97711a2.05655,2.05655,0,0,1-1.11816-.55176,2.2767,2.2767,0,0,1-.61426-1.10546,3.60912,3.60912,0,0,1-.02149-1.50684,3.695,3.695,0,0,1,.36524-1.10645,2.57091,2.57091,0,0,1,.624-.78222,2.12272,2.12272,0,0,1,.83008-.41992,2.34614,2.34614,0,0,1,.98633-.02247,1.69935,1.69935,0,0,1,.83886.35938,2.59144,2.59144,0,0,1,.47168.52051l-.20117.15429a1.93865,1.93865,0,0,0-.43652-.48144,1.57186,1.57186,0,0,0-.71875-.2959,1.946,1.946,0,0,0-1.1416.11231,1.97592,1.97592,0,0,0-.8545.73632,3.29085,3.29085,0,0,0-.47753,1.27637,3.45272,3.45272,0,0,0,.0039,1.36816,2.0104,2.0104,0,0,0,.52735.99512,1.81526,1.81526,0,0,0,1.0039.498,2.26431,2.26431,0,0,0,.73828.01269,1.38183,1.38183,0,0,0,.58985-.21582l.30664-1.74511-1.31153-.23145.043-.24121,1.59668.28223-.36523,2.07226a1.87406,1.87406,0,0,1-.71973.31641A2.41644,2.41644,0,0,1,254.11316,143.97711Z" transform="translate(0 29.06)"/></g></g><polygon class="ad" points="89.05 102.02 58.97 103.67 59.82 118.92 61.77 120.88 90.02 119.33 89.05 102.02"/><polygon class="ae" points="88.05 101.02 57.97 102.67 58.82 117.92 60.77 119.88 89.02 118.33 88.05 101.02"/><g class="i"><g class="i"><path class="af" d="M67.98572,85.25787l.9917-4.98437,1.20263.23437a3.12292,3.12292,0,0,1,.94141.32325,1.19027,1.19027,0,0,1,.52295.54785,1.37787,1.37787,0,0,1,.05127.83691,1.45961,1.45961,0,0,1-.36475.75586,1.26755,1.26755,0,0,1-.6914.35742,2.60672,2.60672,0,0,1-.98682-.02929l-.97607-.19043-.437,2.19726Zm.73584-2.374.88672.17285a2.08965,2.08965,0,0,0,1.24072-.04687,1.08319,1.08319,0,0,0,.57178-.84766.97547.97547,0,0,0-.21778-.96973,2.41838,2.41838,0,0,0-1.1582-.47461l-.85889-.168Z" transform="translate(0 29.06)"/></g><g class="i"><path class="af" d="M71.52625,86.04059a.27456.27456,0,0,1-.17383-.11426.285.285,0,0,1-.04248-.2334.2996.2996,0,0,1,.13134-.21289.27757.27757,0,0,1,.20508-.043.28522.28522,0,0,1,.17969.11817.29977.29977,0,0,1,.04.24609.28539.28539,0,0,1-.33984.23926Z" transform="translate(0 29.06)"/></g><g class="i"><path class="af" d="M73.80457,85.37555l.99169-4.98438,2.66553.52051-.04541.22656-2.41162-.4707-.41357,2.0791,2.03418.39746-.044.22071-2.03418-.39746-.48877,2.457Z" transform="translate(0 29.06)"/></g><g class="i"><path class="af" d="M77.30554,86.15045a.27455.27455,0,0,1-.17383-.11426.28506.28506,0,0,1-.04248-.23339.29961.29961,0,0,1,.13135-.2129.2775.2775,0,0,1,.20508-.043.28523.28523,0,0,1,.17969.11816.29978.29978,0,0,1,.04.24609.2854.2854,0,0,1-.33985.23926Z" transform="translate(0 29.06)"/></g></g><polygon class="ag" points="366.3 47.54 322.8 39.08 318.45 58.08 320.52 61.16 361.37 69.11 366.3 47.54"/><polygon class="ah" points="365.52 46.93 322.01 38.47 317.67 57.47 319.74 60.55 360.59 68.5 365.52 46.93"/><g class="i"><g class="i"><path class="ai" d="M326.55359,25.32965l-.374-2.88574.22558.03711.21875,1.92676q.01466.20067.03516.38378c.01269.12208.02344.2461.03125.37208l.02734.00488c.06152-.11524.12012-.22852.17871-.33789.05762-.11035.11719-.22657.17871-.34961l.9209-1.74219.27051.04395.21875,1.92773c.01367.13477.02734.2627.04394.38477.01465.12207.03028.24707.04395.375l.02246.00293c.05664-.11524.11524-.22852.17578-.3379.05957-.11035.11914-.22656.18164-.34863l.9043-1.74512.21387.03516-1.3916,2.59863-.27637-.04492-.21485-1.86328c-.01953-.13867-.03515-.27539-.04687-.40918-.01074-.13476-.02441-.27051-.041-.4082l-.02832-.00488c-.06152.125-.125.251-.1875.377-.06347.126-.13086.25-.20605.374l-.876,1.67383Z" transform="translate(0 29.06)"/><path class="ai" d="M330.12292,25.90973l.52247-2.74024.20312.03321-.52246,2.73926Zm.76172-3.41309a.19716.19716,0,0,1-.13574-.081.21181.21181,0,0,1-.02637-.165.1971.1971,0,0,1,.084-.13477.20647.20647,0,0,1,.15625-.03027.20342.20342,0,0,1,.13476.07813.18571.18571,0,0,1,.03125.15234.21893.21893,0,0,1-.08886.14648A.21224.21224,0,0,1,330.88464,22.49664Z" transform="translate(0 29.06)"/><path class="ai" d="M332.0946,26.29938a.77922.77922,0,0,1-.40918-.168.50321.50321,0,0,1-.1582-.3125,1.32659,1.32659,0,0,1,.02051-.42774l.35156-1.84082-.47461-.07714.02832-.14551.47852.05078.1748-.7959.17578.02832-.15332.79981.87989.14257-.03321.17188-.8789-.14258-.35645,1.86621a.84464.84464,0,0,0,.01465.44727q.063.18164.38965.23437a.85322.85322,0,0,0,.19726.00586,1.066,1.066,0,0,0,.19727-.03223l.03906.167c-.09277.01367-.18261.02343-.2705.03027A.88143.88143,0,0,1,332.0946,26.29938Z" transform="translate(0 29.06)"/><path class="ai" d="M333.0614,26.38727l.52246-2.74024.16895.02735-.04883.44336.01172.001a2.955,2.955,0,0,1,.541-.28125,1.08308,1.08308,0,0,1,.58008-.05566.82522.82522,0,0,1,.62793.36719,1.194,1.194,0,0,1,.07031.82324L335.1991,26.734l-.20313-.03223.33106-1.73633a1.13364,1.13364,0,0,0-.03809-.70312.63168.63168,0,0,0-.50684-.31348,1.01177,1.01177,0,0,0-.53125.05371,3.07806,3.07806,0,0,0-.58691.32227l-.39941,2.0957Z" transform="translate(0 29.06)"/><path class="ai" d="M337.25476,27.13824a1.37253,1.37253,0,0,1-.64941-.28222,1.24089,1.24089,0,0,1-.39942-.57227,1.51688,1.51688,0,0,1-.03711-.7959,1.699,1.699,0,0,1,.21973-.58691,1.47077,1.47077,0,0,1,.374-.40723,1.33162,1.33162,0,0,1,.4668-.22168,1.22877,1.22877,0,0,1,.49512-.02148,1.15341,1.15341,0,0,1,.56738.24219.9533.9533,0,0,1,.30762.49218,1.56028,1.56028,0,0,1,.00586.71094c-.00489.02832-.01075.05664-.01563.08594a.6921.6921,0,0,1-.03027.09961l-2.17774-.35352a1.40345,1.40345,0,0,0,.02149.665,1.07819,1.07819,0,0,0,.31836.5127,1.11131,1.11131,0,0,0,.57812.26269,1.42893,1.42893,0,0,0,.46387.00586,1.63136,1.63136,0,0,0,.40137-.12207l.05957.17578a3.45417,3.45417,0,0,1-.41114.11426A1.51007,1.51007,0,0,1,337.25476,27.13824Zm-.84082-1.78222,1.99219.32422a1.18375,1.18375,0,0,0-.09571-.87305.853.853,0,0,0-.61816-.38477,1.01265,1.01265,0,0,0-.52148.05079,1.14383,1.14383,0,0,0-.45508.31835A1.42615,1.42615,0,0,0,336.41394,25.356Z" transform="translate(0 29.06)"/><path class="ai" d="M339.663,27.52887a1.60219,1.60219,0,0,1-.58789-.21,1.98163,1.98163,0,0,1-.42382-.33985l.1582-.12988a2.03344,2.03344,0,0,0,.36426.31641,1.31915,1.31915,0,0,0,.5332.19433.83868.83868,0,0,0,.59375-.08007.5644.5644,0,0,0,.2666-.375.42951.42951,0,0,0-.05469-.32032.896.896,0,0,0-.248-.24414,3.61439,3.61439,0,0,0-.32129-.1914q-.21094-.11427-.40821-.23731a1.01581,1.01581,0,0,1-.31054-.292.52338.52338,0,0,1-.06836-.40234.65436.65436,0,0,1,.1748-.33594.8046.8046,0,0,1,.36524-.209,1.22312,1.22312,0,0,1,.53125-.01464,1.30929,1.30929,0,0,1,.43066.15039,1.22108,1.22108,0,0,1,.33887.26367l-.14356.12109a1.68431,1.68431,0,0,0-.28222-.22754,1.00082,1.00082,0,0,0-.38575-.13867.80124.80124,0,0,0-.57324.07617.51545.51545,0,0,0-.24511.33887.378.378,0,0,0,.04785.2832.75222.75222,0,0,0,.22461.21875c.09863.06348.20117.127.31054.18653.11231.06152.22364.123.33106.18554a1.626,1.626,0,0,1,.28613.20508.693.693,0,0,1,.18652.25781.59614.59614,0,0,1,.02442.34961.71054.71054,0,0,1-.18555.35743.82615.82615,0,0,1-.3789.22558A1.23463,1.23463,0,0,1,339.663,27.52887Z" transform="translate(0 29.06)"/><path class="ai" d="M341.98523,27.9068a1.59814,1.59814,0,0,1-.58691-.21094,2.01064,2.01064,0,0,1-.42481-.33887l.15918-.12988a2.029,2.029,0,0,0,.36426.31543,1.29177,1.29177,0,0,0,.53222.19434.83632.83632,0,0,0,.59473-.08008.56.56,0,0,0,.2666-.375.42789.42789,0,0,0-.05468-.31934.883.883,0,0,0-.24805-.24414,3.39332,3.39332,0,0,0-.32129-.1914c-.14063-.07618-.27637-.15625-.4082-.23731a1.03037,1.03037,0,0,1-.31055-.293.52181.52181,0,0,1-.06836-.40234.65651.65651,0,0,1,.17383-.33594.798.798,0,0,1,.36621-.208,1.22191,1.22191,0,0,1,.53125-.01562,1.332,1.332,0,0,1,.43066.15039,1.242,1.242,0,0,1,.33887.26465l-.14355.12109a1.79017,1.79017,0,0,0-.28321-.22851.99443.99443,0,0,0-.38574-.1377.78943.78943,0,0,0-.57227.07617.51277.51277,0,0,0-.24511.33789.3805.3805,0,0,0,.04785.28418.73856.73856,0,0,0,.22461.21778c.09863.06445.20117.127.31055.1875.1123.06152.22265.123.33105.18554a1.66024,1.66024,0,0,1,.28613.2041.7156.7156,0,0,1,.18653.25782.59742.59742,0,0,1,.02343.34961.71179.71179,0,0,1-.18457.3584.82947.82947,0,0,1-.37988.22558A1.24764,1.24764,0,0,1,341.98523,27.9068Z" transform="translate(0 29.06)"/></g></g><polygon class="ad" points="182.34 176.55 154.87 170.79 151.92 184.85 153.2 187.1 178.99 192.51 182.34 176.55"/><polygon class="ae" points="181.45 175.67 153.98 169.91 151.04 183.97 152.32 186.22 178.11 191.62 181.45 175.67"/><g class="i"><g class="i"><path class="af" d="M159.88513,154.63043l.66895-3.79687.2041.03613,1.18555,3.06152.30322.82422.02588.00391c.02246-.18555.04541-.36719.07129-.54395s.05468-.35449.08593-.53222l.43067-2.44336.18847.0332-.66894,3.79688-.20947-.03614-1.18116-3.05957-.30175-.82519-.02149-.00391c-.02441.17969-.04931.35254-.07519.52051q-.03956.252-.08692.52344l-.43554,2.47363Z" transform="translate(0 29.06)"/></g><g class="i"><path class="af" d="M164.368,155.49078a1.01889,1.01889,0,0,1-.38183-.14746.67929.67929,0,0,1-.24707-.29492.82309.82309,0,0,1,.52246-1.06738,3.94331,3.94331,0,0,1,1.4248-.10156,1.63669,1.63669,0,0,0,.03809-.44434.71523.71523,0,0,0-.13477-.38672.60768.60768,0,0,0-.4082-.21777,1.19967,1.19967,0,0,0-.54883.02148,2.42874,2.42874,0,0,0-.41016.1543l-.06738-.168c.06738-.03125.15527-.06641.26367-.10449a1.95915,1.95915,0,0,1,.3711-.08594,1.43167,1.43167,0,0,1,.43164.01172.83061.83061,0,0,1,.48535.2334.78329.78329,0,0,1,.19434.42578,1.6916,1.6916,0,0,1-.01563.53125l-.31348,1.78223-.15722-.02735.03906-.37109-.0166-.00293a2.59993,2.59993,0,0,1-.51563.22265A1.16184,1.16184,0,0,1,164.368,155.49078Zm.04492-.16992a1.0803,1.0803,0,0,0,.50293-.0332,2.594,2.594,0,0,0,.56836-.25879l.17383-.98731a4.76645,4.76645,0,0,0-.98047.0127,1.17679,1.17679,0,0,0-.55566.19922.59337.59337,0,0,0-.22266.37891.52121.52121,0,0,0,.10352.48144A.73646.73646,0,0,0,164.413,155.32086Z" transform="translate(0 29.06)"/><path class="af" d="M166.43542,155.78473l.48536-2.75684.1875.03321-.48536,2.75683Zm.707-3.43457a.175.175,0,0,1-.126-.08106.22581.22581,0,0,1-.02441-.166.20025.20025,0,0,1,.07714-.13379.19577.19577,0,0,1,.26954.04687.19582.19582,0,0,1,.02929.15332.22116.22116,0,0,1-.082.14747A.18043.18043,0,0,1,167.14246,152.35016Z" transform="translate(0 29.06)"/><path class="af" d="M168.56628,156.231a1.23069,1.23069,0,0,1-.60156-.28418,1.2487,1.2487,0,0,1-.37012-.5752,1.64791,1.64791,0,0,1-.03418-.80078,1.8109,1.8109,0,0,1,.20313-.58984,1.4242,1.4242,0,0,1,.34766-.41113,1.21125,1.21125,0,0,1,.43261-.22266,1.09151,1.09151,0,0,1,.98535.22266.974.974,0,0,1,.28516.49511,1.7276,1.7276,0,0,1,.00586.71485c-.00488.02832-.00977.05664-.01562.08691a.56484.56484,0,0,1-.02832.09961l-2.01856-.35547a1.53015,1.53015,0,0,0,.01953.669,1.10358,1.10358,0,0,0,.29492.51562.99116.99116,0,0,0,.53516.26465,1.23336,1.23336,0,0,0,.43066.00586,1.426,1.426,0,0,0,.37207-.124l.05469.17773a3.003,3.003,0,0,1-.38183.11621A1.31392,1.31392,0,0,1,168.56628,156.231Zm-.77832-1.793,1.84571.32519a1.28357,1.28357,0,0,0-.08789-.8789.786.786,0,0,0-.57325-.38574.85752.85752,0,0,0-.48339.05273,1.05561,1.05561,0,0,0-.42286.31836A1.48865,1.48865,0,0,0,167.788,154.43805Z" transform="translate(0 29.06)"/></g></g><polygon class="ad" points="198.15 92.66 169.54 96.21 171.33 111.01 173.32 112.79 200.19 109.46 198.15 92.66"/><polygon class="ae" points="197.31 91.23 168.7 94.77 170.49 109.58 172.48 111.36 199.35 108.03 197.31 91.23"/><g class="i"><g class="i"><path class="af" d="M173.1239,72.82574a.16744.16744,0,0,1-.13281-.04882.22139.22139,0,0,1-.05762-.15137.19809.19809,0,0,1,.043-.14258.17529.17529,0,0,1,.12891-.05957.17191.17191,0,0,1,.13086.0459.19181.19181,0,0,1,.05957.13769.21941.21941,0,0,1-.04493.15625A.17533.17533,0,0,1,173.1239,72.82574Zm.06641,3.36719-.12891-2.68457.18164-.00976.12793,2.68457Z" transform="translate(0 29.06)"/></g><g class="i"><path class="af" d="M174.63367,76.11871l-.12891-2.68457.15137-.00781.05078.42578.00976-.001a2.795,2.795,0,0,1,.40625-.37208.88742.88742,0,0,1,.48829-.168.7179.7179,0,0,1,.61621.2207,1.24457,1.24457,0,0,1,.23437.76269l.083,1.72657-.18262.00976-.08105-1.70117a1.18933,1.18933,0,0,0-.18067-.65527.54965.54965,0,0,0-.50195-.19434.8203.8203,0,0,0-.44434.15625,2.61533,2.61533,0,0,0-.4375.41992l.09766,2.05371Z" transform="translate(0 29.06)"/></g><g class="i"><path class="af" d="M178.163,75.93805l-1.13671-2.63281.20214-.01075.708,1.7002c.05371.12695.10645.25488.16016.38184.05273.1289.10449.251.15429.36816l.01954-.001c.042-.12109.083-.249.124-.38183.04-.13282.0791-.26465.11719-.39649l.54785-1.76465.18555-.00878-.86426,2.73535Z" transform="translate(0 29.06)"/></g><g class="i"><path class="af" d="M181.08679,75.855a1.16032,1.16032,0,0,1-.61816-.13672,1.20221,1.20221,0,0,1-.46387-.459,1.61038,1.61038,0,0,1-.20019-.74317,1.76992,1.76992,0,0,1,.06445-.5957,1.37294,1.37294,0,0,1,.2373-.459,1.138,1.138,0,0,1,.3545-.30176.98348.98348,0,0,1,.42089-.11817.96776.96776,0,0,1,.53809.11524.91949.91949,0,0,1,.36816.40234,1.64253,1.64253,0,0,1,.15625.66895c.001.02734.00293.05566.00391.083a.52724.52724,0,0,1-.00488.10058l-1.94629.09961a1.47522,1.47522,0,0,0,.1582.623,1.05917,1.05917,0,0,0,.38184.41894.93522.93522,0,0,0,.55176.13379,1.13347,1.13347,0,0,0,.40039-.08789,1.40748,1.40748,0,0,0,.31933-.19531l.08887.1543a2.94612,2.94612,0,0,1-.33008.19043A1.21505,1.21505,0,0,1,181.08679,75.855Zm-1.09863-1.51074,1.78027-.0918a1.23974,1.23974,0,0,0-.26562-.80371.74538.74538,0,0,0-.61328-.23926.827.827,0,0,0-.4375.15235,1.01422,1.01422,0,0,0-.3252.38965A1.4518,1.4518,0,0,0,179.98816,74.3443Z" transform="translate(0 29.06)"/><path class="af" d="M183.08386,75.7525a1.33646,1.33646,0,0,1-.5498-.08105,1.75587,1.75587,0,0,1-.43555-.23633l.1084-.1543a1.82684,1.82684,0,0,0,.37988.22657,1.08458,1.08458,0,0,0,.499.07714.68623.68623,0,0,0,.49414-.19433.54477.54477,0,0,0,.14941-.40528.44.44,0,0,0-.11426-.291.80966.80966,0,0,0-.26465-.18067,2.62984,2.62984,0,0,0-.3164-.11621c-.13672-.04394-.27051-.09179-.40137-.14257a.93993.93993,0,0,1-.32812-.2129.545.545,0,0,1-.14454-.36718.65145.65145,0,0,1,.08008-.35059.69136.69136,0,0,1,.26953-.26855.98217.98217,0,0,1,.45411-.12012,1.0997,1.0997,0,0,1,.40234.05566,1.13,1.13,0,0,1,.34766.18164l-.09961.14356a1.47936,1.47936,0,0,0-.291-.16016.8525.8525,0,0,0-.36133-.05273.65338.65338,0,0,0-.47656.18652.50457.50457,0,0,0-.13867.36621.39314.39314,0,0,0,.10058.25782.69255.69255,0,0,0,.24024.16113c.09863.041.20019.08008.30664.11523.10937.03516.21777.07031.32324.1084a1.36674,1.36674,0,0,1,.29.13574.67375.67375,0,0,1,.21387.20606.62668.62668,0,0,1,.09472.32422.72251.72251,0,0,1-.083.374.73163.73163,0,0,1-.2793.28809A1.00049,1.00049,0,0,1,183.08386,75.7525Z" transform="translate(0 29.06)"/><path class="af" d="M184.955,75.6568a.64756.64756,0,0,1-.38868-.07715.50083.50083,0,0,1-.20214-.26367,1.46669,1.46669,0,0,1-.07227-.40625l-.08594-1.80371-.42383.02148-.00683-.14258.42285-.04687-.01758-.78516.15625-.00781.03711.78418.78711-.04.00781.168-.78711.04.08789,1.8291a.89237.89237,0,0,0,.10645.417c.0625.10645.19043.15528.38574.14551a.68486.68486,0,0,0,.16992-.03516.99838.99838,0,0,0,.16407-.06933l.06738.14941c-.07617.03125-.15137.05957-.22559.084A.7608.7608,0,0,1,184.955,75.6568Z" transform="translate(0 29.06)"/><path class="af" d="M185.58191,72.18805a.16827.16827,0,0,1-.13379-.04883.21952.21952,0,0,1-.05762-.15137.1995.1995,0,0,1,.043-.14257.188.188,0,0,1,.26074-.01368.19182.19182,0,0,1,.05957.1377.21984.21984,0,0,1-.04589.15625A.17163.17163,0,0,1,185.58191,72.18805Zm.06543,3.36719-.12891-2.68457.18164-.00977.12891,2.68457Z" transform="translate(0 29.06)"/></g><g class="i"><path class="af" d="M188.90027,76.70074a1.63057,1.63057,0,0,1-.58692-.06445.84988.84988,0,0,1-.38769-.24219.62545.62545,0,0,1-.15039-.38671.67583.67583,0,0,1,.09082-.3584,1.05871,1.05871,0,0,1,.28125-.32325l-.001-.0205a.52348.52348,0,0,1-.17676-.16114.47105.47105,0,0,1-.08105-.25586.46421.46421,0,0,1,.08887-.3125,1.07391,1.07391,0,0,1,.17968-.19628l-.001-.01954a1.17218,1.17218,0,0,1-.2461-.292.87721.87721,0,0,1-.12695-.43066.9737.9737,0,0,1,.09766-.49512.90535.90535,0,0,1,.31445-.35254.89069.89069,0,0,1,.45508-.14551.90834.90834,0,0,1,.20508.00977.74782.74782,0,0,1,.14648.03809l.8877-.04493.00781.168-.63574.03223a.86717.86717,0,0,1,.24218.28808.98583.98583,0,0,1,.1045.40918.97113.97113,0,0,1-.09766.48731.92841.92841,0,0,1-.31152.36035.86329.86329,0,0,1-.457.15234.92529.92529,0,0,1-.23731-.02148.82732.82732,0,0,1-.21777-.07812.80041.80041,0,0,0-.15332.17871.3928.3928,0,0,0-.0586.23925.368.368,0,0,0,.11719.25782.5788.5788,0,0,0,.41895.08886l.59082-.03027a1.14246,1.14246,0,0,1,.65136.11133.51582.51582,0,0,1,.22852.44531.72521.72521,0,0,1-.12988.44141,1.09409,1.09409,0,0,1-.41016.36035A1.50818,1.50818,0,0,1,188.90027,76.70074Zm.00293-.16406a1.287,1.287,0,0,0,.541-.13476.93329.93329,0,0,0,.34278-.29.56857.56857,0,0,0,.11035-.34571.364.364,0,0,0-.18067-.33007.93949.93949,0,0,0-.48144-.07422l-.60449.03125c-.01758,0-.05664-.002-.11914-.00489a1.73455,1.73455,0,0,1-.20606-.02539.84846.84846,0,0,0-.26855.30762.65464.65464,0,0,0-.07032.3125.50646.50646,0,0,0,.25684.4209A1.14671,1.14671,0,0,0,188.9032,76.53668Zm-.16992-2.16015a.68917.68917,0,0,0,.35547-.11817.75736.75736,0,0,0,.25195-.292.807.807,0,0,0,.08105-.41211.82593.82593,0,0,0-.11816-.41016.705.705,0,0,0-.27442-.25683.71953.71953,0,0,0-.37011-.0752.70277.70277,0,0,0-.60547.39258.83124.83124,0,0,0-.0791.42285.80924.80924,0,0,0,.12109.40235.73379.73379,0,0,0,.27734.26464A.67318.67318,0,0,0,188.73328,74.37653Z" transform="translate(0 29.06)"/></g><g class="i"><path class="af" d="M191.15417,75.33942a.91927.91927,0,0,1-.38378-.05664.64047.64047,0,0,1-.292-.22266.7947.7947,0,0,1,.25977-1.11133,3.76149,3.76149,0,0,1,1.30078-.40039,1.59794,1.59794,0,0,0-.05859-.42383.68061.68061,0,0,0-.20508-.334.57449.57449,0,0,0-.42481-.11621,1.131,1.131,0,0,0-.5039.13769,2.28238,2.28238,0,0,0-.34864.23145l-.09765-.1416c.05469-.044.12988-.09473.22265-.1543a1.75007,1.75007,0,0,1,.32618-.16016,1.334,1.334,0,0,1,.40332-.082.77942.77942,0,0,1,.498.11524.7423.7423,0,0,1,.26954.35547,1.6664,1.6664,0,0,1,.09765.501l.083,1.73731-.15137.00781-.042-.35645-.01563.001a2.508,2.508,0,0,1-.43164.31934A1.09855,1.09855,0,0,1,191.15417,75.33942Zm.00684-.168a1.03971,1.03971,0,0,0,.459-.13965,2.54976,2.54976,0,0,0,.47265-.36328l-.0459-.96192a4.48385,4.48385,0,0,0-.90722.22168,1.11652,1.11652,0,0,0-.47266.30469.58046.58046,0,0,0-.12793.40332.50325.50325,0,0,0,.19824.42871A.70055.70055,0,0,0,191.161,75.17145Z" transform="translate(0 29.06)"/><path class="af" d="M193.61511,75.21344a.65519.65519,0,0,1-.38867-.07617.50363.50363,0,0,1-.20215-.26367,1.48081,1.48081,0,0,1-.07226-.40723l-.08594-1.80371-.42383.02148-.00684-.14258.42286-.04687-.01758-.78516.15625-.00781.03711.78418.78711-.04.00781.168-.78711.04.08789,1.8291a.89663.89663,0,0,0,.10645.418.38777.38777,0,0,0,.38574.14453.68495.68495,0,0,0,.16992-.03516.99788.99788,0,0,0,.16406-.06933l.06739.14941c-.07618.03125-.15137.05957-.22657.084A.74535.74535,0,0,1,193.61511,75.21344Z" transform="translate(0 29.06)"/><path class="af" d="M195.23914,75.13043a1.1528,1.1528,0,0,1-.61914-.13672,1.19557,1.19557,0,0,1-.46387-.459,1.61051,1.61051,0,0,1-.2002-.74317,1.74489,1.74489,0,0,1,.06543-.5957,1.3554,1.3554,0,0,1,.23535-.458,1.15594,1.15594,0,0,1,.35547-.30273.98725.98725,0,0,1,.4209-.11816.96767.96767,0,0,1,.53809.11523.91949.91949,0,0,1,.36816.40234,1.64644,1.64644,0,0,1,.15625.66895c.001.02734.00293.05566.00391.083a.52316.52316,0,0,1-.00489.10058l-1.94628.09961a1.47147,1.47147,0,0,0,.1582.623,1.05922,1.05922,0,0,0,.38183.41894.92942.92942,0,0,0,.55274.13379,1.15483,1.15483,0,0,0,.39941-.08691,1.40754,1.40754,0,0,0,.31934-.19531l.08887.15332a2.88524,2.88524,0,0,1-.33008.19043A1.214,1.214,0,0,1,195.23914,75.13043Zm-1.09961-1.51074,1.78027-.09082a1.23423,1.23423,0,0,0-.26563-.80371.74483.74483,0,0,0-.61328-.24024.827.827,0,0,0-.4375.15235,1.02884,1.02884,0,0,0-.32519.38965A1.4518,1.4518,0,0,0,194.13953,73.61969Z" transform="translate(0 29.06)"/></g></g><polygon class="ad" points="364.78 123.39 338.42 133.04 343.36 146.53 345.64 147.76 370.39 138.7 364.78 123.39"/><polygon class="ae" points="363.56 123.11 337.21 132.76 342.15 146.25 344.42 147.48 369.17 138.42 363.56 123.11"/><g class="i"><g class="i"><path class="af" d="M349.40125,112.40143l-1.44141-3.57569,1.91113-.7705.06543.16308-1.72851.69678.60156,1.49219,1.458-.58789.0625.15722-1.457.58789.71094,1.76368Z" transform="translate(0 29.06)"/></g><g class="i"><path class="af" d="M351.10925,107.93414a.17582.17582,0,0,1-.15039-.00293.21961.21961,0,0,1-.1084-.12695.20027.20027,0,0,1-.00488-.15527.17987.17987,0,0,1,.10645-.10352.18851.18851,0,0,1,.14746.001.19729.19729,0,0,1,.10547.11426.22273.22273,0,0,1,.00781.16894A.17909.17909,0,0,1,351.10925,107.93414Zm1.2168,3.28809-1.04688-2.5957.17774-.07129,1.0459,2.5957Z" transform="translate(0 29.06)"/><path class="af" d="M353.38464,110.79547l-1.04687-2.5957.14844-.05957.19629.40234.00976-.0039a2.89571,2.89571,0,0,1,.27637-.50684.93411.93411,0,0,1,.42773-.332.76086.76086,0,0,1,.68848.00488,1.28873,1.28873,0,0,1,.49316.66895l.67285,1.66894-.17675.07129L354.41,108.4693a1.231,1.231,0,0,0-.40234-.582.58444.58444,0,0,0-.56543-.01758.85677.85677,0,0,0-.38965.30664,2.83171,2.83171,0,0,0-.291.56348l.80078,1.98437Z" transform="translate(0 29.06)"/><path class="af" d="M356.9657,109.42633a1.09965,1.09965,0,0,1-.62793.07227,1.07844,1.07844,0,0,1-.55957-.30664,1.99253,1.99253,0,0,1-.43164-.6875,1.67227,1.67227,0,0,1-.13281-.791,1.30377,1.30377,0,0,1,.23144-.64551,1.14558,1.14558,0,0,1,.51172-.40137,1.08566,1.08566,0,0,1,.45215-.085,2.02031,2.02031,0,0,1,.47656.08887l-.21191-.48242-.43848-1.08789.17773-.07129,1.57618,3.91016-.14747.05957-.16406-.335-.00976.0039a1.92249,1.92249,0,0,1-.26368.43945A1.04875,1.04875,0,0,1,356.9657,109.42633Zm-.04981-.16894a.95135.95135,0,0,0,.3877-.29395,2.17278,2.17278,0,0,0,.28808-.5l-.64355-1.59473a1.60071,1.60071,0,0,0-.51172-.1123,1.07672,1.07672,0,0,0-.42383.07617.86744.86744,0,0,0-.4248.36133,1.21443,1.21443,0,0,0-.1709.57519,1.51163,1.51163,0,0,0,.11621.65918,1.83674,1.83674,0,0,0,.35742.58106.99076.99076,0,0,0,.47657.29394A.8617.8617,0,0,0,356.91589,109.25739Z" transform="translate(0 29.06)"/></g></g><path class="aj" d="M40.75,199.2V19.2h320v180Z" transform="translate(0 29.06)"/><path class="ak" d="M273.66,162.3l-4.78-20.61,20.61-4.78,4.78,20.61-20.61,4.78Z" transform="translate(0 29.06)"/><path class="al" d="M278.33,160.79l3.46-2.98,4.68-5.23,2.44-.78,3.95,2.91.81,2.54-15.33,3.55Z" transform="translate(0 29.06)"/><path class="am" d="M287.2,154.8l-3.28,3.27-1.71.18-.97-1.85,5.71-7.87,1.24,2.99Z" transform="translate(0 29.06)"/><path class="an" d="M286.31,149.99l-.89,3.7-2.34,2.62-2.54.81-2.26-2.21-1.4-2.73-1.09-2.8-.09-.85-.42-2.74,1.13-2.66,2.82-1.96,3.63.14,2.22,1.56,1.41,3.71-.19,3.43Z" transform="translate(0 29.06)"/><path class="ao" d="M286.14,150.68l-.46,2.73-2.09,2.78-2.98.8-1.4-1.31.17-.69,1.94,1.3,1.8-2.6-.06-.75.28.26,1.85-.97-.41-4.6-.95-1.74-.82-.25.18-1.57-.8-1.56-1.99-1.07,2.58-.16,2.22,1.56,1.16,3.11-1.05,1.12.84,3.63Z" transform="translate(0 29.06)"/><path class="ap" d="M285.39,146.05l-2.64,1.81.1,1.39-.92.76-1.67-.16-1.3-.9-.3-.37-.7.27.22.49-.08,1.55-.84,1.07-1.18-.38-.5-.76-.31.07-.18-.29.29-.18-.05-.21.35-.85,4.05-1.81,2.05-.58.87.45,2.74-1.84.59.19-.24.38-.36-.14Z" transform="translate(0 29.06)"/><path class="an" d="M286.95,149.95l-.9-.12-.58-3.47,1.05-1.12,1.13,1.59-.7,3.11Z" transform="translate(0 29.06)"/><path class="aq" d="M286.7,158.74l-2.38.55-.91-1.1-.54.02-.46,1.31-.41.1-.44-2.84,1.45,1.08.41-.1,4.3-5.47.36-1.28.21-.05.76.92-2.34,6.87Z" transform="translate(0 29.06)"/><path class="ao" d="M280.2,152.82l-1.65,1.36.09-1,1.47-1.21h1.86l.81.69Z" transform="translate(0 29.06)"/><path class="ar" d="M273.66,162.3l-4.78-20.61,20.61-4.78,4.78,20.61-20.61,4.78Z" transform="translate(0 29.06)"/><path class="as" d="M90.49,63.7l2.56-21,21,2.56-2.56,21Z" transform="translate(0 29.06)"/><path class="at" d="M108.59,51.34l-2.16-4.23,2.6.64.77.74-.74-.09.54.82-.59-.39.37.47-.12.95-.37-.47-.3,1.57Z" transform="translate(0 29.06)"/><path class="au" d="M96.88,59.56l.46-1.98.14-2.88,3.92,1.23,2.44,5.44-.52,2.51-1.87.41-1.97-.56-2.6-4.17Z" transform="translate(0 29.06)"/><path class="av" d="M98.14,56.28V47.39l5.8-.9,3.72,1.95.8,2.24-.06,1.38.41,1.01-.87.97-.02,1.07-.62,1.53-7.58,2.4-1.59-2.76Z" transform="translate(0 29.06)"/><path class="at" d="M97.06,52.83l-.3-3.68.55-1-.32-.04L98,46.84l-.65.03,1.87-1.27,4.85-.27,3.43.85h-.86l1.15.25,1.4.81.77.74-.33.07-1.08.94-2.12-.15-1.54-.51-3.4.66-.48,1.33-.92.53-.43,1.77-.84.75-1.76-.54Z" transform="translate(0 29.06)"/><path class="aw" d="M97.77,52.27l.26,3.14.41,1.01.88,1.61-.24.19-.72-1.16-.55-1.67-.29-3.78.54-.04,1.38,1.88,1.06.99-.06.53-1.43-1.46-1.24-1.22Z" transform="translate(0 29.06)"/><path class="av" d="M97.56,55.78l-.98-.76-.71-2.12.58-1.22h.86l1.01,1.41-.08,2.45-.67.24Z" transform="translate(0 29.06)"/><path class="ax" d="M95.41,60.23l1.62-.98,1.72,2.57,1.97,1.42,2.23.16.73-1.62.69.51,2.96,2.07.95.97L90.97,63.22l.31-1.68,4.12-1.32Z" transform="translate(0 29.06)"/><path class="ay" d="M98.66,58.17l1.08-.94.27-3.07,4.06.07,1.86-.31.57.6,1.52.72-.34,1.03.16,1.31-.33.92-.58.36-.31.82-2.5,2.05-2.65-.22-2.81-3.34Z" transform="translate(0 29.06)"/><path class="ar" d="M90.49,63.7l2.56-21,21,2.56-2.56,21Z" transform="translate(0 29.06)"/><path class="ak" d="M69.44,117.5l5.71-20.37,20.37,5.71-5.71,20.37L69.44,117.5Z" transform="translate(0 29.06)"/><path class="aw" d="M84.77,119.92l.54.04.06.57-.6-.61Z" transform="translate(0 29.06)"/><path d="M87.85,111.29l-.05-.23,1.43.4-.19.28-.28-.19-.92-.26Z" transform="translate(0 29.06)"/><path class="az" d="M78.11,112.97l.02-1.65.66.41-.15,1.72-.53-.48Z" transform="translate(0 29.06)"/><path class="ba" d="M77.79,114.87l1.13-3.66,5.29,6.34-.58.5-.02.88-1.22,1.2-2.84-.91-1.76-4.36Z" transform="translate(0 29.06)"/><path class="bb" d="M79.15,113.6l.29-3.78-.21-1.61.71-1.35,1.59-1.32,7.16,3.22-.21,1.93-.57.84-.08,1.08-.71,1.35-.88,1.96-.45.43-.81,1.32-2.35-.66-.88-.8-1-.39-1.32-1.59-.27-.63Z" transform="translate(0 29.06)"/><path class="az" d="M79.67,109.77,78.12,109l.57-2.82,3.28.92-.36.89-.77.78-.55,1.17-.61-.17Z" transform="translate(0 29.06)"/><path class="aw" d="M86.69,112.29l.04-1.31.66-.37,1.48.63-.5,1.4-.86.31-.81-.67Z" transform="translate(0 29.06)"/><path class="aw" d="M83.14,109.97l.55-.4,1.79.72-.26.92-1.05.59-1.04-.62v-1.21Z" transform="translate(0 29.06)"/><path d="M79.46,108.94l-.57.06.06-.2.47-.09,3.61.9.63-.27,2.02.68.09.47.47-.09.38.22.55-.4,1.61.56.29.52-.71,1.35-.96.28-1.04-.62.07-1.42-.38-.22-.47.09-.59.94-.96.28-1.07-.52-.08-1.68-3.41-.84Zm3.78,2.27,1.04.62.95-.62.26-.92-1.71-.59-.52.29v1.21Zm4.28,1.64.83-.21.48-1.3-1.4-.5-.63.27v1.21l.72.54Z" transform="translate(0 29.06)"/><path class="bb" d="M78.83,112.74l-1.02-1.5-.1-2.01.64-.7.69.3.54.82-.16,2.94-.6.16Z" transform="translate(0 29.06)"/><path class="bc" d="M76.87,105.56l.32-1.13,2.96-1.49,5.24-.19,4.37,1.34,1.44,1.95-1.77,1.6-.09.31.09.47-.27.59,1.32,1.59-.11.41-6.88-2.26-2.56-1.49-2.33.45-.41.66-.31-.09.2-1.49-1.2-1.22Z" transform="translate(0 29.06)"/><path class="aw" d="M77.99,119.68l-.86-4.44.7-.91.47,1.46,3.17,3.65.91-.08,1.2-1.54.03,3.43-5.63-1.58Z" transform="translate(0 29.06)"/><path class="bd" d="M80.68,120.32l.54-.73.85.13.56,1.15-1.95-.54Z" transform="translate(0 29.06)"/><path class="bc" d="M70.3,117.19l.16-.95,2.48-.19,2.06.14.19-.28,1.95-1.44.67-.03-.54.73,1.29,4.45Z" transform="translate(0 29.06)"/><path class="bc" d="M83.04,120.98l.57-2.82.91,1.47,2.8,2.22v.44l-4.28-1.31Z" transform="translate(0 29.06)"/><path d="M70.01,117.44l.4-1.43,4.21-.04.35.32-.46.86-2.47.52-2.03-.24Z" transform="translate(0 29.06)"/><path class="aw" d="M73.55,116.22l.54.04-.32.35-.61-.17Z" transform="translate(0 29.06)"/><path d="M84.82,120.15l-.32-.42.51.14,2.48,1.8-.09.31-2.58-1.83Z" transform="translate(0 29.06)"/><path class="be" d="M78.47,107.33l.08-1.08,2.69-1.34,4.59.18,3.67,1.47-.33,1.56-2.87-1.58-5.17-.46-2.67,1.24Z" transform="translate(0 29.06)"/><path class="ar" d="M69.44,117.5l5.71-20.37,20.37,5.71-5.71,20.37L69.44,117.5Z" transform="translate(0 29.06)"/><path class="aw" d="M126.35,155.64V134.48h21.16v21.16Z" transform="translate(0 29.06)"/><path class="bf" d="M137.83,153.08l-6.59-3.72.21-1.91,8.82,3.4.43,2.13-2.87.11Z" transform="translate(0 29.06)"/><path class="bc" d="M126.99,152.34l3.93-2.98.43-1.28s4.15,2.45,5.63,3.3c.96.53,2.34,1.17,2.34,1.17l.74-.64.53-.85,2.34,1.59,2.76,2.55-18.71.11v-2.98Z" transform="translate(0 29.06)"/><path d="M141.13,141.92l-.21-.85,2.13.74-.11.11-.53.21Z" transform="translate(0 29.06)"/><path class="bg" d="M131.35,147.56l.85-6.7,3.72-1.28,5.1,1.06.74,2.02-.32,1.06.43.96-.11.64.43,1.59v1.17l-.74,2.23-1.38,1.49-1.59.53-2.87-1.28-3.51-2.34-.74-1.17Z" transform="translate(0 29.06)"/><path class="bh" d="M131.98,142.77l.32-2.34,2.76-.32v1.49l-.64.43-.21,1.28-.53.43-1.7-.96Z" transform="translate(0 29.06)"/><path class="bg" d="M132.62,146.39l-.74-.64-.64-1.81.43-1.17.64-.21.96.53v3.19l-.64.11Z" transform="translate(0 29.06)"/><path class="bi" d="M137.73,147.13l-.11-.32.43-.64,1.38-.53.74.21.43-.11.85.85v.74l-1.28-.74-.43.21-.74.11-1.28.21Z" transform="translate(0 29.06)"/><path d="M131.88,141.92l-.11-.85-1.38-.85v-1.06l2.76-2.34,3.83-.85,3.51.11,1.81,1.06.21,1.17-1.28,1.28.21.85,1.59,1.17-.11.21-1.91-.64-3.93-.21-2.55-.53-2.66,1.49Z" transform="translate(0 29.06)"/><path d="M140.81,151.91l-.43-.85.64.11,2.45,1.28.64.74-.21.11-1.59-.64-1.49-.74Z" transform="translate(0 29.06)"/><path d="M128.79,152.13l1.81-1.38h1.17l.53.21.53,1.06L130.81,155l-3.4-1.38,1.38-1.49Z" transform="translate(0 29.06)"/><path d="M139.75,155.21v-.53l-.96-.85.32-1.06.96-.11.43.64.11,1.06.64.74-1.49.11Z" transform="translate(0 29.06)"/><path class="aw" d="M131.24,151.49l-.21-.32.43-.11.43.21-.21.32-.43-.11Z" transform="translate(0 29.06)"/><path class="aw" d="M141.13,151.7l-.21-.32h.32l.11.11.11.21h-.33Z" transform="translate(0 29.06)"/><path class="aw" d="M131.98,141.5l-.21-.96,1.7-1.49,3.3-.85,3.3.11,1.17.64v.85l-2.66-.64-4.04.64-2.55,1.7Z" transform="translate(0 29.06)"/><path class="ar" d="M126.35,155.64V134.48h21.16v21.16Z" transform="translate(0 29.06)"/><path class="ak" d="M132.97,83.37l-.99-21.13,21.13-.99.99,21.13-21.13.99Z" transform="translate(0 29.06)"/><path class="bj" d="M144.83,82.18l-.24-2.76.66.39,1.57,1.63.88.6-2.87.13Z" transform="translate(0 29.06)"/><path class="bk" d="M138.19,78.98l.78-1.63,5.94,1.85.63,1.99-.06,1.07-2.97.25-4.32-3.52Z" transform="translate(0 29.06)"/><path class="bl" d="M138.97,77.34l.27-1.08.12-1.92,5.51-.47.33,4.77-.25,1.4-.49.98-5.49-3.68Z" transform="translate(0 29.06)"/><path class="bm" d="M141.09,77.14l-.52-2.1-.35-2.86.38-3.32,7.14.09.68,3.06-.48,1.09.05,1.17-.38.98-.17.97-.57,1.41-.07.75-.72.57-1.71-.13-3.27-1.66Z" transform="translate(0 29.06)"/><path class="bn" d="M138.54,72.68l.3-2.67,3.81-.5-.67,1.52-.62.35-.35,1.72-.43-.09-.35-.73-.61.56-.11,2.24-.18.75-.23-.41-.55-2.74Z" transform="translate(0 29.06)"/><path class="bm" d="M138.45,73.11l.37-1.19.53-.13.66.39.32.09.44,2.53-.84.25-1-.91-.47-1.04Z" transform="translate(0 29.06)"/><path class="bo" d="M141.09,77.14l-.31-2.01.02-1.92.32.09.49,1.47,2.22,1.92.68.82,1.19.48.83-.46.9-1.21-.57,1.41-.07.75-.72.46-1.82-.13-3.16-1.66Z" transform="translate(0 29.06)"/><path class="bj" d="M133.27,83.04l-.15-.84,2.67-2.04,1.24-.7-.23-.41.7-.99.47-1.3,1.06-.16-.08.54-.2.33,2.33,2.02,2.26,2.87-10.08.68Z" transform="translate(0 29.06)"/><path d="M134.3,82.25l1.23-.91,1.12-1.01,1.17.05.46.72-1.73,1.78-.85.04-1.42-.68Z" transform="translate(0 29.06)"/><path class="aw" d="M136.9,80.95l-.23-.31.53-.13.23.31Z" transform="translate(0 29.06)"/><path class="bp" d="M138.89,68.94l.8-3.44,2.4-.96,2.03.22,2.77-.02,1.26,1.96v2.45l1.87,1.19.27,1.26-1.04.58-3.01-.71-3.74-.36-3.61.28-.17.97-1.36.49-.6-1.46.38-.98,1.74-1.47Z" transform="translate(0 29.06)"/><path class="bq" d="M140.93,69.38l-1.3-.58,3.73.14,3.81-.39.56.61-.75-.07-2.65.34-3.41-.05Z" transform="translate(0 29.06)"/><path class="ar" d="M132.97,83.37l-.99-21.13,21.13-.99.99,21.13-21.13.99Z" transform="translate(0 29.06)"/><path class="ak" d="M227.14,179.21V158.05H248.3v21.16Z" transform="translate(0 29.06)"/><path class="br" d="M243.41,175.59l-5.32,3.19h-3.51l-.64-3.19,2.55-8.61h8.29l.64,2.87-2.02,5.74Z" transform="translate(0 29.06)"/><path class="bs" d="M242.98,172.61l-8.4,2.34-1.49-2.66.11-1.91-.43-1.7.21-1.17-.96-1.38.64-.96.21-1.28.85-1.81,3.19-1.49,5,.32,2.02,2.98.74,3.3-1.7,5.42Z" transform="translate(0 29.06)"/><path class="bt" d="M235.96,178.89l-6.27-.21,4.57-2.23.64,2.23h2.13l6.06-4.68,2.23-5,.74,2.66,2.02,3.72-.11,3.4-12.01.11Z" transform="translate(0 29.06)"/><path class="bu" d="M239.05,177.08l-4.04.64-2.34-1.81.43-3.3,2.13-.21,1.59.21.85-.21-.21-.96-2.34-.43-2.23.85v-1.17l1.17-.96,1.91-.53,3.08,1.7,2.55-6.27,1.7.32-.11,4.36.21,3.3-4.36,4.47Z" transform="translate(0 29.06)"/><path class="bu" d="M242.24,165.28l-2.13-1.59v-2.13l-1.91-.43-3.51,1.38-.96-.11-.64.43v-.85l2.76-2.02h4.57l3.08,1.91.85,3.72-2.13-.32Z" transform="translate(0 29.06)"/><path class="bs" d="M243.19,169.53l-.32-3.61.96-1.06.96.11.74,2.02-1.38,2.87-.96-.32Z" transform="translate(0 29.06)"/><path class="bv" d="M234.58,172.3l-3.51,1.28-.32-1.49,3.93-.96,1.06.43-1.17.74Z" transform="translate(0 29.06)"/><path class="bw" d="M231.07,173.68l-.85-.53.53-.96,1.06.43-.74,1.06Z" transform="translate(0 29.06)"/><path class="ar" d="M227.14,179.21V158.05H248.3v21.16Z" transform="translate(0 29.06)"/><path class="ak" d="M224.49,76.01l4.62-20.65,20.65,4.62-4.62,20.65Z" transform="translate(0 29.06)"/><path class="bx" d="M233.77,76.89l-3.58-3.96,1.18-1.37,1.46-3.6,1.59.68,2.93,4.9-.6.74-.31.91-1.09.96.19,1.57Z" transform="translate(0 29.06)"/><path class="by" d="M241.72,66.68l-9.57-.07-1.75-.94.14-.62,6.77-1.54,6.72,1.61.2.59-2.5.97Z" transform="translate(0 29.06)"/><path class="bz" d="M241.82,66.71l-.55-1.43.4-.35.78.39.05.77-.68.61Z" transform="translate(0 29.06)"/><path d="M240.95,68.15l.17-.29,1.14.26.23-.06.5.22-.2.39-1.84-.52Z" transform="translate(0 29.06)"/><path class="ca" d="M236.9,74.1l-3.26-2.47-.57-6.23,2.78-2.21,5.57.92.47,3.26-.69,1.15-.38,2.2-1.36,2.2-.68,1.59-1.87-.42Z" transform="translate(0 29.06)"/><path class="bz" d="M233.53,66.27l-1.59-.68.44-.99,4.39-.65-.72,1.26-.97.44-.62,1.82-.93-1.19Z" transform="translate(0 29.06)"/><path class="ca" d="M232.96,69.3l-.98-.98-.36-1.82.98-.98.92.75.23,2.88-.8.15Z" transform="translate(0 29.06)"/><path class="by" d="M242.7,65.7l-2.48-1.1-6.09-.05-2.42,1.09-1.29-.07-.08-1.11,2.04-.85L233.3,60l3.22-1.24,2.78.73,1.19.05,1.42,4.35,2.27,1.05-.08.85-1.4-.09Z" transform="translate(0 29.06)"/><path class="bz" d="M239.15,71.34l-2.38-.1-.23-.92.6.24h2.4l.96,1.08.46-.11-.68.61-1.13-.8Z" transform="translate(0 29.06)"/><path class="cb" d="M225.35,75.55l3.91-2.39.58-.63h.54l.43-.44,1.92,1.63,2.16,2.99.43-.45.61,1.66Z" transform="translate(0 29.06)"/><path class="aw" d="M238.08,68.81l-.86-.52.05-1.19,1.36-.24.82.73-.31.91-1.05.31Z" transform="translate(0 29.06)"/><path class="aw" d="M241.07,69.59l-.71-.7.34-1.01.92-.23.68.37-.26,1.14-.97.44Z" transform="translate(0 29.06)"/><path d="M241,69.9l-1.05-.67.28-1.25-.83-.19-.42.89-.97.44L237,68.78l-.46-.87.08-.85-3.75-1.27.07-.31,3.79,1.07,1.67-.17,1,.88.83.19,1.23-.16.84.62-.43,1.43-.89.56Zm.91-.67.23-1.04-.68-.37-.9.13-.31.91.71.7.95-.33Zm-3.01-.67.31-.91-.71-.7-1.23.16-.05,1.19.86.52.82-.25Z" transform="translate(0 29.06)"/><path class="cc" d="M238.27,63.08l-5.81.66.24-.6,5.91-1.08,2.88.75.31,1.05-3.53-.79Z" transform="translate(0 29.06)"/><path class="ar" d="M224.49,76.01l4.62-20.65,20.65,4.62-4.62,20.65Z" transform="translate(0 29.06)"/><path class="ak" d="M305.81,164.17l5.93-20.31,20.31,5.93-5.93,20.31Z" transform="translate(0 29.06)"/><path class="cd" d="M311.47,165.27l1.3-2.94.56-3.82,2.16.96,3.47,5.55-1.06,2.13Z" transform="translate(0 29.06)"/><path class="ce" d="M313.11,157l-2.02-1.81.4-.99,10.36-.19,5.3,3.1-.12.41-2.84.61Z" transform="translate(0 29.06)"/><path class="cf" d="M314.24,154.67l4.13-1.23,6.11,2.23-.09,2.96-1.16,1.32-.06.98-2.42,4.5-.82.54-1.57-.68-3.49-3.23-.62-7.38Z" transform="translate(0 29.06)"/><path d="M313.58,156.14l.52-1.4,4.98-.76-.75,1.44-1.26.52-1.3,2.17-.39-1.33-1.81-.64Z" transform="translate(0 29.06)"/><path class="aw" d="M322.62,159.33l.59-.49,1.09.43.26.63-.65.7-.98-.06-.31-1.2Z" transform="translate(0 29.06)"/><path class="aw" d="M319.33,157.71l.89-.4.96.5.3.86-1.08.68-1.06-.53v-1.11Z" transform="translate(0 29.06)"/><path d="M319.13,158.76l.05-1.31-.51-.15-4.35-1.05-.11-.37,4.58,1,.58.28.94-.17.99.4.61.95.54.05.32.43.94-.17.83.57.29.53.31.09-.12.41-.31-.09-.71.9-1.04.14-.72-1.32.24-.82-.28-.19-.54-.05-.54.73-1.4.25-.58-1.05Zm.31.09.96.5,1.05-.58-.3-.86-.96-.5-.89.4.14,1.04Zm3.73,1.64.95.17.51-.63-.26-.63-1.09-.43-.59.49.48,1.02Z" transform="translate(0 29.06)"/><path class="cf" d="M314.06,159.82l-.88-1.92-.06-1.68.92-.51,1.41.86-.32,3.01-1.07.24Z" transform="translate(0 29.06)"/><path class="ce" d="M311.42,154.07l3.06-.99.95-2.49,2.65-1.11,4-.05,2.07,1.27.76,4.21,1.72.94.99,1.17-.51.63-2.52-.85-1.73-1.28-4.3-.81-7.41.72.29-1.36Z" transform="translate(0 29.06)"/><path class="cg" d="M316.94,152.25l4.63.46,2.7,1.01.16.6-4.26-1.35-5.42-.03Z" transform="translate(0 29.06)"/><path class="ar" d="M305.81,164.17l5.93-20.31,20.31,5.93-5.93,20.31Z" transform="translate(0 29.06)"/><path class="as" d="M309.01,72.05l-7.78-19.68,19.68-7.78,7.78,19.68Z" transform="translate(0 29.06)"/><path class="ch" d="M310.65,62.6l-2.28-2.87.16-.75,1.82-.6,1.98,2.42.03,1.82h-1.72Z" transform="translate(0 29.06)"/><path class="ci" d="M309.13,61.37l-.63-1.58.99.18.95-.49.49,1.52-.95.49-.85-.12Z" transform="translate(0 29.06)"/><path class="ch" d="M318.86,57.06l-2.94-5.7,1.98-.21,1.68.48-.05,2.19,1.34,1.07.04.67-2.04,1.49Z" transform="translate(0 29.06)"/><path class="cj" d="M319.58,55.98l-.53-1.05.42-.97,1.28,1.21-1.17.8Z" transform="translate(0 29.06)"/><path class="ci" d="M320.21,56.99l-1.06-.95.66-.95.85.12.21.83Z" transform="translate(0 29.06)"/><path class="ck" d="M319.55,67.2l-1.88-3.6,5.43.14,2.32,1.25Z" transform="translate(0 29.06)"/><path class="ck" d="M310.99,65.78V64.63l1.53-1.06.72,1.54-2.25.66Z" transform="translate(0 29.06)"/><path class="cl" d="M311.86,66.24l.36-1.97-.52-2.77,3.7-2.49,3.06,4.85.19,1.07,1,1.09.43,1.09-4.15,1.64-4.08-2.5Z" transform="translate(0 29.06)"/><path class="cm" d="M313.31,62.69l-.47-1.19-.42.39-1.06-.38-1.02-1.43.36-1.4,1.05.04.67-4.95,4.03-1.37,2.34,1.59L320,56.48l-.24,1.12.76,1.64-.17,1.89-.56,1.48-.24,1.12-1.44.69-2.61-.23-2.21-1.53Z" transform="translate(0 29.06)"/><path class="ck" d="M309.35,71.46l-.88-1.94,2.24-2.72-.23-.59.48-1.68.75.16,3.86,2.82,1.89.74Z" transform="translate(0 29.06)"/><path class="ch" d="M312.89,59.88l-4.32-.81-.8-1.17.76-1.56-1.1-1.05.64-1.28.58-1.14,1.6-.86.62-1.62,3.66-.87.98.75,1.26-.27,1.61,1.19-.23,2.03-3.48,1.03-.66,2.09-.69.85-.43,2.68Z" transform="translate(0 29.06)"/><path class="cj" d="M311.81,52.54l-1.2-1.58,3.91-1.09.67.54.04.67-3.42,1.47Z" transform="translate(0 29.06)"/><path class="cj" d="M308.37,55.38l-.29-1.6.95-1.06,3.15,1.04-.36,1.97Z" transform="translate(0 29.06)"/><path class="ci" d="M312.59,55.66l-.97.15-.53-1.05,1.09-1,1.04.62-.64,1.28Z" transform="translate(0 29.06)"/><path class="ci" d="M310.27,52.69l-.29-1.03.67-.61.87.46.23,1.17h-1.48Z" transform="translate(0 29.06)"/><path class="cj" d="M313.19,53.71l-.76-2.21,4.55-1.23,1.14,1.15-.1,1.18-4.82,1.11Z" transform="translate(0 29.06)"/><path class="ci" d="M312.19,52.62l.34-1.16,1.01-.06.41,1.32-.66.95Z" transform="translate(0 29.06)"/><path class="ci" d="M319.33,53.91l-.79-.83.02-.81,1.09-.43.71,1.21-1.03.86Z" transform="translate(0 29.06)"/><path class="ci" d="M307.81,56.29l-.37-1.8.63-.14.08.77.53.48-.36.83Z" transform="translate(0 29.06)"/><path class="cj" d="M308.23,59.1l-.77-1.07.46-.87,3.55.31-.42,2.11-2.82-.49Z" transform="translate(0 29.06)"/><path class="ci" d="M311.15,59.54l-.51-1.29.89-.92.73.4-.03,1.38-1.09.43Z" transform="translate(0 29.06)"/><path class="ar" d="M309.01,72.05l-7.78-19.68,19.68-7.78,7.78,19.68Z" transform="translate(0 29.06)"/><path class="ak" d="M169.31,59.11V37.95h21.16V59.11Z" transform="translate(0 29.06)"/><path class="cn" d="M180.9,58.48l.96-.74.64.85-1.59-.11Z" transform="translate(0 29.06)"/><path class="bl" d="M189.94,58.37l-7.65.21-1.28-1.49-.96-2.02,4.25-8.19,2.02,3.51,1.59,3.4,2.13,2.02-.11,2.55Z" transform="translate(0 29.06)"/><path class="bm" d="M179.73,56.46l-2.13.11-.53-1.49-1.38-2.23-.43-.43.11-.53-.32-.64-.11-1.17-1.06-.85.21-1.17-.21-2.76,7.65-3.19,2.23,2.34.43,8.51-4.47,3.51Z" transform="translate(0 29.06)"/><path class="co" d="M185.05,48.8l-.53-2.55-1.28.74-.32,1.81-1.38-2.13-1.59-.64-.32-2.02-5.95,2.13.11-2.02,2.66-2.87,3.83-1.17,2.98.64,2.13,2.13.85,3.61.53,4.68-1.7-2.34Z" transform="translate(0 29.06)"/><path class="bm" d="M183.45,50.29l-.11-3.3.96-.96.96.11.85,1.49-1.28,2.76-1.38-.11Z" transform="translate(0 29.06)"/><path class="cn" d="M183.56,58.48l3.51-2.66,2.87-.11-.11,2.66-6.27.11Z" transform="translate(0 29.06)"/><path class="cp" d="M180.58,50.29l-1.17-.43,1.38.21,1.17.64-1.38-.43Z" transform="translate(0 29.06)"/><path class="ar" d="M169.31,59.11V37.95h21.16V59.11Z" transform="translate(0 29.06)"/><path class="ak" d="M308.65,116.48l3.13-20.93,20.93,3.13-3.13,20.93-20.93-3.13Z" transform="translate(0 29.06)"/><path class="cq" d="M319.83,116.53l-5.53-4.7,1.5-6.44,8.38-4.98,1.89.28,1.27,1.59,1.09,5.65-.73,4.19-1.26,1.21.33-1.46-1.91,2.72.18,1.64.81.34-1.51,1.49-4.5-1.53Z" transform="translate(0 29.06)"/><path class="cr" d="M313.33,116.85l1.83-2.2,1.25-5.51,3.23-.05,1.49,4.42-1.24,4.01-6.57-.66Z" transform="translate(0 29.06)"/><path class="cq" d="M313.05,107.89l1.85-4.45,2.11-2.59,2.63-.36-4.04,8.32.17,4.65.72.97-.2,1.37-2.42-.36-2.55-1.67,1.39-.65.47-1,.26-3.19-.75,2.15.37-3.17Z" transform="translate(0 29.06)"/><path class="cs" d="M317.05,111.39l-.36-2.63-.03-2.69.63-2.81,4.48-2.66,3.9,1.98.59,2.56-.06,2.57-.68.97-.16,1.8-.73,1.29-1.53,1.6-.94,1.26-.77.1-2.31-1.1-2.03-2.24Z" transform="translate(0 29.06)"/><path class="cs" d="M315.96,109.29l-.95-1.54.13-1.59.65-.76.53.08.64.74-.02,3.01-.98.07Z" transform="translate(0 29.06)"/><path class="ct" d="M316.49,106.47l.18-1.91-1.07-1.45,1.41-2.26,2.6-1.55,1.91.18,1.62-.08,2.91,1.4,1.27,1.59.54,2.88-.29,1.25-1.05-.16-.5-1.69-2.29-1.2-2.78-.09-1.29,1.42-1.4.76-1.39,2.8-.36-1.88Z" transform="translate(0 29.06)"/><path class="ar" d="M308.65,116.48l3.13-20.93,20.93,3.13-3.13,20.93-20.93-3.13Z" transform="translate(0 29.06)"/><path class="ak" d="M262.07,56.89V35.73h21.16V56.89Z" transform="translate(0 29.06)"/><path class="cu" d="M266.11,56.36l3.51-2.13,1.28-2.13h.74v4.15Z" transform="translate(0 29.06)"/><path class="cv" d="M272.48,56.25l-1.28.11-.21-.96.32-1.28-.43-1.06-.21-1.59,3.61-4.36,2.23.43.32,2.66.64,1.38-5,4.68Z" transform="translate(0 29.06)"/><path class="cw" d="M277.69,48.28l-.43.21-.11.64-.85.21-8.51-3.51-.32-.32.21-.43-.43-.43.21-.64-.96-.64.96-.64-.85-.32-.11-.85.43.53v-.53l.32-.43h10.31l.21,1.7-.11.53.53.21-.32.74.11.53-1.06,1.59v.53l.43.96.53-.21-.21.53Z" transform="translate(0 29.06)"/><path class="cx" d="M272.17,52.42l-2.02-.32-.53-1.06-1.06-1.28-.74-2.13.21-1.28-.43-.96.32-.85.11-1.17.53-2.23,4.36-1.17,4.04,2.23-.64,3.08.64-.74.53.11.43,1.28-.85,2.02-.64.43-.43-.43-.43,2.02Z" transform="translate(0 29.06)"/><path class="cw" d="M275.35,46.68l-.21-2.23-.85-.64L274.4,42l-.53-.21-.85.21-.64-.85-.74-.11-.85.53-1.06-.11-1.28.64-1.06-1.17V39.65h1.28l.21-1.17,1.28.11,1.06-.96,1.06.64,1.49-.43.96.85,1.38.11.21,1.06,1.28,1.17-.96,3.61.21.43-.74.64-.11.96h-.64Z" transform="translate(0 29.06)"/><path class="cu" d="M272.06,56.36V55.3l1.06-.43,3.83-4.04-.11-.74.64.21.85,1.7.74.21,3.61,2.34-.11,1.91-10.53-.11Z" transform="translate(0 29.06)"/><path class="ar" d="M262.07,56.89V35.73h21.16V56.89Z" transform="translate(0 29.06)"/><path class="as" d="M85.99,174.3l-6.26-20.21,20.21-6.26,6.26,20.21Z" transform="translate(0 29.06)"/><path class="cy" d="M95.11,171.03l-1.04-3.35,1.39-.54,2.42,1.7-.32.77.8.42-3.25,1.01Z" transform="translate(0 29.06)"/><path class="cy" d="M87.96,165.57l.02-1.01,1.46-.67.55,1.05-2.03.63Z" transform="translate(0 29.06)"/><path class="cz" d="M98.57,158.83l-.59-.48-.15.94-2.19-3.11.82-.59,1.88,1.76-.77-.32,1,1.8Z" transform="translate(0 29.06)"/><path class="cz" d="M89.23,164.62l-.59-.48-.3-.24-.11.37-.92-1.16.78-.35-.54-1.39-.45.7.14-2.05-.58.29-.35-.78,1.54-2.59,1.69-1.75,1.95,8.08-2.25,1.36Z" transform="translate(0 29.06)"/><path class="da" d="M89.1,165.99l.35-2.45h1.78l4.84,3.07-1.01,1.76.71,1.56-.97-.26-5.71-3.69Z" transform="translate(0 29.06)"/><path class="bs" d="M91.3,165.2l-2.59-4.76.35-3.56,2.86-1.55,3.26.1,1.65,1.38.9,2.17.35.78-.33,1.1.2,1.72-.68,1.77-.18,2.28-1.42.44-2.38-.49-1.99-1.39Z" transform="translate(0 29.06)"/><path class="cz" d="M90.72,162.6,89,161.35l-.48-1.19-.38-2.66,1.22-2.16-1.97.83,1.24-1.39,1.52-.47,1.99-.39-1.61-.17,2.1-.76,1.33.7.68-.32.6.15.15.84,1.14.09.9.39-1.38.21,1.17.19.76.66H96.2l-.51.49-3.76-.28-1.82,1.68.62.92-.02,3.9Z" transform="translate(0 29.06)"/><path class="bs" d="M90.21,164.2l-1.62-1.28-.57-1.83.51-.49.6.15.09.3-.11.37.43.31,1.2,2.08-.55.39Z" transform="translate(0 29.06)"/><path class="db" d="M86.11,173.6l-1.01-3.25,2.37-3.85-.23-.37.59-.63.26-.97,2.5,1.23,4.7,3.67.09.3,1.08-.11.25.81L86.12,173.6Z" transform="translate(0 29.06)"/><path class="ar" d="M85.99,174.3l-6.26-20.21,20.21-6.26,6.26,20.21Z" transform="translate(0 29.06)"/><path class="ak" d="M189.98,121.79V100.63h21.16v21.16H189.98Z" transform="translate(0 29.06)"/><path class="dc" d="M205.61,109.99l-.11-1.91,2.98-.53-.96,1.28L205.61,110Z" transform="translate(0 29.06)"/><path class="dd" d="M204.23,117.65,197,121.37l.32-1.17,1.81-2.02,4.89-2.87,1.81.32.43,1.38-2.02.64Z" transform="translate(0 29.06)"/><path class="de" d="M199.87,118.5l.85-4.68,3.72-.21.21,3.08.21,1.49-2.23,2.87-2.87.74.11-3.3Z" transform="translate(0 29.06)"/><path class="dd" d="M197.1,121.58l2.66-3.3.96,2.34,4.04-3.72,1.49-.21.21.53,1.17.96-.21.64,2.13,1.28,1.17,1.17-13.61.32Z" transform="translate(0 29.06)"/><path class="bs" d="M203.91,115.84l-1.28,1.06-1.49,1.49-1.91.11-.53-.96-.74-.85-.64-1.81-.64-.74-.11-1.49-.43-1.17,2.02-3.51,3.93-.32,2.45,4.15.53,1.28-.85,1.17-.32,1.59Z" transform="translate(0 29.06)"/><path class="df" d="M204.12,112.65l-.74-2.02-1.17-.85,2.13-1.91,2.34,2.55h-.53v.32l-.64.11-1.06.74-.32,1.06Z" transform="translate(0 29.06)"/><path class="bs" d="M204.55,111.48l.53-.85.74-.43.43,1.06v1.17l-.74.85-.32.74-.96-.11.32-2.45Z" transform="translate(0 29.06)"/><path class="dc" d="M192.43,111.59l.21-.74,3.19-1.59,9.89-2.02,1.81-.85,1.06.32-.11,1.06-7.23,3.08-6.7,1.17-2.13-.43Z" transform="translate(0 29.06)"/><path class="dg" d="M195.4,109.89l.21-2.23.32-.32.43-1.49-.11-1.59.96-1.17,1.59.32,3.51-.96,1.7.96.32,1.7.64,1.59.53.11.11.53-2.23,1.38L197.64,110l-2.23-.11Z" transform="translate(0 29.06)"/><path class="ar" d="M189.98,121.79V100.63h21.16v21.16H189.98Z" transform="translate(0 29.06)"/><path class="ak" d="M169.73,190.57l-4.69-20.63,20.63-4.69,4.69,20.63Z" transform="translate(0 29.06)"/><path class="dh" d="M172.59,189.7l.59-2.21.16-5.05-.48-4.03.2-2.01,6.88-3.31,3.25,3.73-.26,1.26.25,1.58,1.18,2.78.46,2.51-.84-2.75-.55-.97.79,3.96.94,1.75-1.89.32-.82-2.65-.62-2.26.2,1.37,1.49,3.69-10.93,2.27Z" transform="translate(0 29.06)"/><path class="cr" d="M174.55,185.88l.97-1.97.61-2.1-.44-2.41,3.95,2.04-.37,1.72.08.85,1.25.7-.38.74-5.68.42Z" transform="translate(0 29.06)"/><path class="di" d="M173.94,189.4l-.14-2.04.99-1.86.86-.52,2.27-.08,2.26.36.26-.28-1.04-.74,1.31.47,2.47,2.71-9.25,2Z" transform="translate(0 29.06)"/><path class="cs" d="M180.43,182.47l-.85.08-1.69-.71-1.42-.98-.72-1.25-.84-2.75.43-3.37,5.13-.95,1.99,2.05.32,1.89-.39,1.18-.17,2.11-.51,1.1-1.27,1.6Z" transform="translate(0 29.06)"/><path class="dh" d="M175.42,183.93l-1.35-2.09-1.33-6.79,4.98-2.55,4.88.85.97,2.83-.13,1.34-.59-.19-.32-.91-.32.51-.41-1.32-.28,1.15-1.19.05.35-.84-.08-.85-.51,1.1-.57.35.41-1.07-.08-.85-1.04,1.65-2.12.26.61-.68.33-.95-1.49,2.08-.65.48-.51,2.08,2.5,3.79,2.53,2.48,1.46,1.63-1.43.43-1.51-1.84-3.1-2.13Z" transform="translate(0 29.06)"/><path class="cs" d="M175.35,179.81l-.87-.46-.8-1.13-.03-1.08.42-.53.57.09.33.47.25.16.62,2.26-.49.22Z" transform="translate(0 29.06)"/><path class="dj" d="M173.19,177.03l-1.37-1.22-.33-1.45.96-1.53.51-1.1,1.02-.78,1.22-.39,1.05-.67,1.73-.07,1.05.31.42-.53.46.11-.32.51,1.57.19.89.56.8,1.13,1.07.85.74,1.36-.31,1.05-.82.73-.79-1.56-1.65-1.04-2.13-.28-2.41.44-2.32,1.29-1.14,1.24.09.85Z" transform="translate(0 29.06)"/><path class="dk" d="M175.15,179.85l-.05-.21.03-.33.1-.02-.03.33.15.18.15.18-.16.25-.25-.16.06-.23Z" transform="translate(0 29.06)"/><path class="ar" d="M169.73,190.57l-4.69-20.63,20.63-4.69,4.69,20.63Z" transform="translate(0 29.06)"/><g class="dl"><path class="dm" d="M181.11,168.19l12.1-53.38-54.42,21.16L80.6,101.42a.75193.75193,0,0,1,.09-1.34l52.85-22.83" transform="translate(0 29.06)"/><polyline class="dm" points="319.62 175.85 281.2 167.9 236.52 194.7 206.65 147.66 242.14 108.27 263.65 83.08"/><path class="dm" d="M198.91,144.03s-51.57-4.36-61.01-9.55c-2.12,1.94-44.65,17.03-44.65,17.03" transform="translate(0 29.06)"/><path class="dm" d="M198.91,144.03l82.94-4.07s.26-.27.13-.42L241.84,77.98,174.18,54.9" transform="translate(0 29.06)"/><line class="dm" x1="193.20999" y1="143.87" x2="102.28999" y2="235.45"/><polyline class="dm" points="92.97 180.57 133.96 106.89 111.14 91.68"/><polyline class="dm" points="320.68 127.01 198.91 173.09 207.81 234.91"/><path class="dm" d="M150.72,64.73a105.17254,105.17254,0,0,0,6.01,27.45c17.72,48.37,66.48,68.46,79.79,73.46-1.24-35.64-4.1-71.96-5.34-107.6" transform="translate(0 29.06)"/><polyline class="dm" points="173.75 83.96 138.79 164.21 133.96 106.89"/><line class="dm" x1="138.78999" y1="165.03" x2="230.04999" y2="86.73"/><path class="dm" d="M306.43,61.22l-24.58,78.92a.62558.62558,0,0,1-1.21-.06L263.65,54.03" transform="translate(0 29.06)"/><path class="dm" d="M198.91,144.03l43.23-64.82a.92724.92724,0,0,0-.61-1.46c-5.79.52-11.88.81-18.25.8a195.94192,195.94192,0,0,1-72.57-13.81" transform="translate(0 29.06)"/><line class="dm" x1="193.20999" y1="143.87" x2="174.87" y2="84.45"/><path class="dm" d="M207.73,103.33c26.8,2.48,50.99,3.14,85.85-1.99,10.17-1.5,17.66-2.14,26.84-4.21" transform="translate(0 29.06)"/><polyline class="dm" points="275.55 235.45 249.28 159.68 207.21 132.39 227.66 40.12"/><polyline class="dm" points="140.21 122.49 74.09 102.96 137.9 163.54"/><path class="dm" d="M32.56,53.67,74.1,73.9,94.91,45.57C88.05,27.48,81.96,17.2,81.96,17.2" transform="translate(0 29.06)"/><line class="dm" x1="181.11" y1="197.25" x2="92.97" y2="180.57001"/><line class="dm" x1="181.11" y1="197.25" x2="222.04001" y2="234.91"/><path class="dm" d="M116.79,218.45l76.42-103.64c-3.23-1.45-53.68-95.61-53.68-95.61" transform="translate(0 29.06)"/><path class="dm" d="M301.23,12.49c-1.44,0-21.24,25.15-21.24,25.15l.67,44.65-39.5-3.48" transform="translate(0 29.06)"/><path class="dm" d="M305.81,60.46l-25,21.23a1.412,1.412,0,0,0,.39,2.47l39.22,13.45,50.2-10.59" transform="translate(0 29.06)"/><line class="dm" x1="207.73" y1="132.39" x2="378.42999" y2="176.66"/><polyline class="dm" points="236.52 194.7 181.11 197.25 126.99 238.75"/><path class="dm" d="M32.56,157.44c2.72-.26,60.41-5.93,60.41-5.93l-53.94,55.5" transform="translate(0 29.06)"/><path class="dm" d="M227.14,209.69l-20.49-91.08a.47486.47486,0,0,1,.9-.29l40.16,95.73" transform="translate(0 29.06)"/><polyline class="dm" points="207.73 132.39 230.28 87.38 204.66 37.66"/><polyline class="dm" points="359.35 34.37 337.13 52.2 323.9 83.76 352.84 88.81 374.34 78.29"/><polyline class="dm" points="378.43 160.56 319.16 175.09 279.61 246.17"/><line class="dm" x1="319.62" y1="175.85001" x2="363.28" y2="218.46001"/><path class="dm" d="M191.62,114.81a368.05625,368.05625,0,0,1-39.13,6.51A380.12379,380.12379,0,0,1,22,112.93" transform="translate(0 29.06)"/><line class="dm" x1="230.28" y1="87.38" x2="274.07999" y2="41.55"/><path class="dm" d="M207.21,102.96c-.06-.2-32.29-47.98-32.29-47.98L108.28,16.67" transform="translate(0 29.06)"/><line class="dm" x1="230.28" y1="87.38" x2="140.20999" y2="122.49001"/></g><circle class="dn" cx="193.20999" cy="143.87" r="1.59"/><circle class="dn" cx="181.11" cy="197.25" r="1.59"/><circle class="dn" cx="236.51999" cy="194.7" r="1.59"/><circle class="dn" cx="138.78999" cy="164.21001" r="1.59"/><circle class="dn" cx="80.38" cy="129.92" r="1.59"/><circle class="dn" cx="133.95999" cy="106.89" r="1.59"/><circle class="dn" cx="207.73" cy="132.39" r="1.59"/><circle class="dn" cx="241.16" cy="107.87" r="1.59"/><circle class="dn" cx="230.28" cy="87.38" r="1.59"/><circle class="dn" cx="280" cy="66.7" r="1.59"/><circle class="dn" cx="263.64999" cy="83.08" r="1.59"/><circle class="dn" cx="174.19" cy="84.77" r="1.59"/><circle class="dn" cx="281.19998" cy="168.57001" r="1.59"/><circle class="dn" cx="319.62" cy="175.85001" r="1.59"/><circle class="dn" cx="198.90999" cy="173.09" r="1.59"/><circle class="dn" cx="94.90999" cy="74.62" r="1.59"/><circle class="dn" cx="111.14" cy="91.68" r="1.59"/><circle class="dn" cx="150.72" cy="93.79" r="1.59"/><circle class="dn" cx="92.97" cy="180.57001" r="1.59"/><circle class="dn" cx="320.41998" cy="126.67999" r="1.59"/><circle class="dn" cx="305.81" cy="90.55" r="1.59"/><circle class="dn" cx="323.89999" cy="83.76" r="1.59"/><circle class="dn" cx="140.20999" cy="122.49001" r="1.59"/><circle class="dn" cx="280.66" cy="111.36" r="1.59"/><circle class="dn" cx="249.28" cy="159.67999" r="1.59"/><circle class="dn" cx="74.09" cy="102.96" r="1.59"/><circle class="dn" cx="147.42999" cy="180.14999" r="1.59"/><circle class="dn" cx="337.13" cy="52.2" r="1.59"/><circle class="dn" cx="206.98999" cy="147.56" r="1.59"/><circle class="dn" cx="352.20999" cy="88.05" r="1.59"/><circle class="dn" cx="186.75" cy="67.64" r="1.59"/><path class="do" d="M307.66,162.67l3.17,4.23a1.3068,1.3068,0,0,1-.26,1.83h0a1.30679,1.30679,0,0,1-1.83-.26l-4.47-5.96a1.80441,1.80441,0,0,1,.36-2.53h0a1.80987,1.80987,0,0,1,1.66-.27" transform="translate(0 29.06)"/><path class="dp" d="M179.88,66.28l4.58,2.62a1.31073,1.31073,0,0,1,.49,1.78h0a1.31072,1.31072,0,0,1-1.78.49l-6.47-3.7a1.79533,1.79533,0,0,1-.67-2.46h0a1.79151,1.79151,0,0,1,1.42-.9" transform="translate(0 29.06)"/><rect class="dq" x="41.06999" y="48.36" width="319.8" height="180.09"/><path class="dr" d="M40.75,199.2V19.2h320v180Z" transform="translate(0 29.06)"/><rect class="ds" x="40.74999" y="114.16" width="320.00001" height="50.3"/><path class="dt" d="M288.95886,123.6402a35.60241,35.60241,0,0,1-5.67969-2.54A23.86306,23.86306,0,0,1,280.7597,119.48H294.119v-3.15918H277.79871v-3.08008H273.9989v3.08008h-16.04V119.48h13.23853a22.1766,22.1766,0,0,1-2.49829,1.66016,37.17422,37.17422,0,0,1-5.54,2.58008,38.54735,38.54735,0,0,1-6.04,1.71972,8.13691,8.13691,0,0,1,.83984.90039q.43945.54052.86035,1.12012a9.85021,9.85021,0,0,1,.66016,1.01953,38.95,38.95,0,0,0,11.75977-5.2998,24.4249,24.4249,0,0,0,2.75976-2.16144v7.90167h3.79981v-8.13763a27.11481,27.11481,0,0,0,3,2.35736,36.68048,36.68048,0,0,0,5.74023,3.18066,43.64056,43.64056,0,0,0,6.09961,2.19922,9.73733,9.73733,0,0,1,.7002-1.09961q.4204-.58008.90039-1.13965.479-.561.83984-.96A44.62627,44.62627,0,0,1,288.95886,123.6402Z" transform="translate(0 29.06)"/><path class="dt" d="M262.55847,97.84039h26.88086v2.79981H293.119v-5.96H277.92889q-.25707-.49429-.59014-1.08008a22.01538,22.01538,0,0,0-1.29981-2.04l-3.24023,1.08008c.35.62579.72625,1.309,1.12359,2.04H259.03894v5.96h3.51953Z" transform="translate(0 29.06)"/><path class="dt" d="M258.39929,111.80035a8.76979,8.76979,0,0,1,.7793,1.37989,9.58184,9.58184,0,0,1,.58008,1.58007q5.23974-.3999,9.5-1.12011a39.8667,39.8667,0,0,0,7.56054-1.98c.24573-.09381.47388-.201.7121-.30048,1.8031.41828,3.52631.84442,5.14728,1.28046q4.16016,1.12061,7.12012,2.24023l3.08007-2.6001q-2.35986-.7998-5.46-1.64013c-1.84143-.49909-3.81866-.97968-5.89294-1.447.33948-.23786.67657-.47754.99255-.73316a15.45056,15.45056,0,0,0,3.43634-3.93994h7.76386v-3H274.06122c.70544-.84271,1.36774-1.68353,1.93768-2.52l-3.48047-1.04a33.96414,33.96414,0,0,1-2.55261,3.56006H258.39929v3h8.96424c-.28174.30664-.55848.62-.8451.91992q-1.71972,1.8003-3.23926,3.2002c2.89856.43628,5.69666.93957,8.43543,1.48218-.60278.14825-1.21.294-1.85535.41772A83.001,83.001,0,0,1,258.39929,111.80035Zm15.05957-4.26025c-1.45093-.26855-2.91064-.51721-4.37518-.755.2923-.27674.5896-.56275.89569-.86512.45929-.45367.917-.92419,1.37415-1.3999h10.395a12.97762,12.97762,0,0,1-3.73011,3.2002c-.3136.1809-.66363.34094-1,.50878Q275.265,107.87595,273.45886,107.5401Z" transform="translate(0 29.06)"/><path class="dt" d="M217.12,118.80035q.48047.3208,1.12011.79981.63867.48046,1.25977.96a10.80458,10.80458,0,0,1,.98047.83984,54.50889,54.50889,0,0,0,7.91992-6.91992c.93231-.98205,1.8302-2.01611,2.71112-3.07587q1.877,2.04218,3.50861,3.99579a54.02589,54.02589,0,0,1,3.78027,5.04l2.91992-3.04a46.52181,46.52181,0,0,0-3.91992-4.98q-1.79718-2.02084-3.85175-4.1203c.617-.84015,1.22309-1.69671,1.81171-2.5794a71.295,71.295,0,0,0,5.63965-10.2002l-3.75977-1.16016a62.78706,62.78706,0,0,1-5.24023,9.62012c-.37207.56043-.76087,1.102-1.149,1.64447-1.49811-1.46246-3.01593-2.91388-4.57068-4.34418q-3-2.7605-5.76074-5.16015l-2.51953,2.48q2.79932,2.44042,5.75976,5.2998c1.62494,1.57025,3.20423,3.1626,4.75629,4.76844-1.05609,1.27887-2.15753,2.50714-3.31586,3.672A44.41572,44.41572,0,0,1,217.12,118.80035Z" transform="translate(0 29.06)"/><polygon class="dt" points="242.96 152.42 217.04 152.42 217.04 129.18 213.24 129.18 213.24 152.42 213.24 154.7 213.24 156.021 242.96 156.021 242.96 157.42 246.84 157.42 246.84 129.18 242.96 129.18 242.96 152.42"/><path class="dt" d="M184.2406,111.6402H173.51367c.59467-.34351,1.18585-.69281,1.76648-1.06006a40.92326,40.92326,0,0,0,7.36035-5.91992,29.41825,29.41825,0,0,0,5.35987-7.5l-2.6001-1.56006-.64014.20019H171.63922a36.45148,36.45148,0,0,0,2.48126-3.24023l-4.28027-.87988a25.3362,25.3362,0,0,1-3.09961,3.85986,32.65394,32.65394,0,0,1-4.48047,3.83984,33.6217,33.6217,0,0,1-5.85986,3.34034,6.68053,6.68053,0,0,1,.93994.85986q.50025.53979.96,1.1001a5.69341,5.69341,0,0,1,.7002,1.04,40.10266,40.10266,0,0,0,8.93994-6.08008c.14361-.132.27221-.26734.413-.3999H182.3067a23.84863,23.84863,0,0,1-1.88641,2.35986,31.85074,31.85074,0,0,1-5.04,4.46c-.69952.5011-1.44037.96472-2.1806,1.429-.19782-.1726-.40357-.34863-.61921-.529q-1.34106-1.11913-2.80029-2.23974-1.46044-1.11988-2.77978-2l-2.96,2.15966q1.35938.96021,2.7998,2.16016,1.43994,1.20043,2.74023,2.35986c.03534.03156.06611.06092.10083.09217-.13043.06628-.24963.14276-.3811.20813a51.71455,51.71455,0,0,1-6.75976,2.77978,62.01124,62.01124,0,0,1-6.98,1.87988,8.17009,8.17009,0,0,1,.71973,1.06055q.36036.62109.7002,1.25977a10.90843,10.90843,0,0,1,.54,1.16015,64.24871,64.24871,0,0,0,6.31982-1.84155v12.92163h3.76025v-1.91992H184.2406v1.96h3.87988V111.6402H184.2406Zm-16.64014,11.91992v-8.47949H184.2406v8.47949Z" transform="translate(0 29.06)"/><polygon class="dt" points="123.841 127.42 123.841 129.74 117.801 129.74 117.801 132.66 123.841 132.66 123.841 134.82 127.201 134.82 127.201 132.66 133.921 132.66 133.921 134.82 137.321 134.82 137.321 132.66 143.401 132.66 143.401 129.74 137.321 129.74 137.321 127.42 133.921 127.42 133.921 129.74 127.201 129.74 127.201 127.42 123.841 127.42"/><path class="dt" d="M144.56091,110.48v-2.96H130.2652c.30359-.6507.59546-1.31158.85577-2l-3.3999-.7998a21.68191,21.68191,0,0,1-1.25061,2.7998h-9.22937v2.96h7.36938c-.41058.5379-.8443,1.05988-1.30981,1.56006a23.26176,23.26176,0,0,1-6.85986,5.08057,6.77552,6.77552,0,0,1,.87988.75976q.48047.48046.96.96a5.81488,5.81488,0,0,1,.72021.83985,28.09882,28.09882,0,0,0,4.24024-3.02094v5.62152H141.121v-9.20019h-14.3642A25.256,25.256,0,0,0,128.644,110.48Zm-17.80029,5.36035H137.4408v3.67969H126.76062Z" transform="translate(0 29.06)"/><polygon class="dt" points="115.321 126.54 145.321 126.54 145.321 122.9 111.561 122.9 111.561 156.94 113.881 156.94 115.321 156.94 146.241 156.94 146.241 153.341 115.321 153.341 115.321 126.54"/><path class="du" d="M288.95886,123.6402a35.60241,35.60241,0,0,1-5.67969-2.54A23.86306,23.86306,0,0,1,280.7597,119.48H294.119v-3.15918H277.79871v-3.08008H273.9989v3.08008h-16.04V119.48h13.23853a22.1766,22.1766,0,0,1-2.49829,1.66016,37.17422,37.17422,0,0,1-5.54,2.58008,38.54735,38.54735,0,0,1-6.04,1.71972,8.13691,8.13691,0,0,1,.83984.90039q.43945.54052.86035,1.12012a9.85021,9.85021,0,0,1,.66016,1.01953,38.95,38.95,0,0,0,11.75977-5.2998,24.4249,24.4249,0,0,0,2.75976-2.16144v7.90167h3.79981v-8.13763a27.11481,27.11481,0,0,0,3,2.35736,36.68048,36.68048,0,0,0,5.74023,3.18066,43.64056,43.64056,0,0,0,6.09961,2.19922,9.73733,9.73733,0,0,1,.7002-1.09961q.4204-.58008.90039-1.13965.479-.561.83984-.96A44.62627,44.62627,0,0,1,288.95886,123.6402Z" transform="translate(0 29.06)"/><path class="du" d="M262.55847,97.84039h26.88086v2.79981H293.119v-5.96H277.92889q-.25707-.49429-.59014-1.08008a22.01538,22.01538,0,0,0-1.29981-2.04l-3.24023,1.08008c.35.62579.72625,1.309,1.12359,2.04H259.03894v5.96h3.51953Z" transform="translate(0 29.06)"/><path class="du" d="M258.39929,111.80035a8.76979,8.76979,0,0,1,.7793,1.37989,9.58184,9.58184,0,0,1,.58008,1.58007q5.23974-.3999,9.5-1.12011a39.8667,39.8667,0,0,0,7.56054-1.98c.24573-.09381.47388-.201.7121-.30048,1.8031.41828,3.52631.84442,5.14728,1.28046q4.16016,1.12061,7.12012,2.24023l3.08007-2.6001q-2.35986-.7998-5.46-1.64013c-1.84143-.49909-3.81866-.97968-5.89294-1.447.33948-.23786.67657-.47754.99255-.73316a15.45056,15.45056,0,0,0,3.43634-3.93994h7.76386v-3H274.06122c.70544-.84271,1.36774-1.68353,1.93768-2.52l-3.48047-1.04a33.96414,33.96414,0,0,1-2.55261,3.56006H258.39929v3h8.96424c-.28174.30664-.55848.62-.8451.91992q-1.71972,1.8003-3.23926,3.2002c2.89856.43628,5.69666.93957,8.43543,1.48218-.60278.14825-1.21.294-1.85535.41772A83.001,83.001,0,0,1,258.39929,111.80035Zm15.05957-4.26025c-1.45093-.26855-2.91064-.51721-4.37518-.755.2923-.27674.5896-.56275.89569-.86512.45929-.45367.917-.92419,1.37415-1.3999h10.395a12.97762,12.97762,0,0,1-3.73011,3.2002c-.3136.1809-.66363.34094-1,.50878Q275.265,107.87595,273.45886,107.5401Z" transform="translate(0 29.06)"/><path class="du" d="M217.12,118.80035q.48047.3208,1.12011.79981.63867.48046,1.25977.96a10.80458,10.80458,0,0,1,.98047.83984,54.50889,54.50889,0,0,0,7.91992-6.91992c.93231-.98205,1.8302-2.01611,2.71112-3.07587q1.877,2.04218,3.50861,3.99579a54.02589,54.02589,0,0,1,3.78027,5.04l2.91992-3.04a46.52181,46.52181,0,0,0-3.91992-4.98q-1.79718-2.02084-3.85175-4.1203c.617-.84015,1.22309-1.69671,1.81171-2.5794a71.295,71.295,0,0,0,5.63965-10.2002l-3.75977-1.16016a62.78706,62.78706,0,0,1-5.24023,9.62012c-.37207.56043-.76087,1.102-1.149,1.64447-1.49811-1.46246-3.01593-2.91388-4.57068-4.34418q-3-2.7605-5.76074-5.16015l-2.51953,2.48q2.79932,2.44042,5.75976,5.2998c1.62494,1.57025,3.20423,3.1626,4.75629,4.76844-1.05609,1.27887-2.15753,2.50714-3.31586,3.672A44.41572,44.41572,0,0,1,217.12,118.80035Z" transform="translate(0 29.06)"/><polygon class="du" points="242.96 152.42 217.04 152.42 217.04 129.18 213.24 129.18 213.24 152.42 213.24 154.7 213.24 156.021 242.96 156.021 242.96 157.42 246.84 157.42 246.84 129.18 242.96 129.18 242.96 152.42"/><path class="du" d="M184.2406,111.6402H173.51367c.59467-.34351,1.18585-.69281,1.76648-1.06006a40.92326,40.92326,0,0,0,7.36035-5.91992,29.41825,29.41825,0,0,0,5.35987-7.5l-2.6001-1.56006-.64014.20019H171.63922a36.45148,36.45148,0,0,0,2.48126-3.24023l-4.28027-.87988a25.3362,25.3362,0,0,1-3.09961,3.85986,32.65394,32.65394,0,0,1-4.48047,3.83984,33.6217,33.6217,0,0,1-5.85986,3.34034,6.68053,6.68053,0,0,1,.93994.85986q.50025.53979.96,1.1001a5.69341,5.69341,0,0,1,.7002,1.04,40.10266,40.10266,0,0,0,8.93994-6.08008c.14361-.132.27221-.26734.413-.3999H182.3067a23.84863,23.84863,0,0,1-1.88641,2.35986,31.85074,31.85074,0,0,1-5.04,4.46c-.69952.5011-1.44037.96472-2.1806,1.429-.19782-.1726-.40357-.34863-.61921-.529q-1.34106-1.11913-2.80029-2.23974-1.46044-1.11988-2.77978-2l-2.96,2.15966q1.35938.96021,2.7998,2.16016,1.43994,1.20043,2.74023,2.35986c.03534.03156.06611.06092.10083.09217-.13043.06628-.24963.14276-.3811.20813a51.71455,51.71455,0,0,1-6.75976,2.77978,62.01124,62.01124,0,0,1-6.98,1.87988,8.17009,8.17009,0,0,1,.71973,1.06055q.36036.62109.7002,1.25977a10.90843,10.90843,0,0,1,.54,1.16015,64.24871,64.24871,0,0,0,6.31982-1.84155v12.92163h3.76025v-1.91992H184.2406v1.96h3.87988V111.6402H184.2406Zm-16.64014,11.91992v-8.47949H184.2406v8.47949Z" transform="translate(0 29.06)"/><polygon class="du" points="123.841 127.42 123.841 129.74 117.801 129.74 117.801 132.66 123.841 132.66 123.841 134.82 127.201 134.82 127.201 132.66 133.921 132.66 133.921 134.82 137.321 134.82 137.321 132.66 143.401 132.66 143.401 129.74 137.321 129.74 137.321 127.42 133.921 127.42 133.921 129.74 127.201 129.74 127.201 127.42 123.841 127.42"/><path class="du" d="M144.56091,110.48v-2.96H130.2652c.30359-.6507.59546-1.31158.85577-2l-3.3999-.7998a21.68191,21.68191,0,0,1-1.25061,2.7998h-9.22937v2.96h7.36938c-.41058.5379-.8443,1.05988-1.30981,1.56006a23.26176,23.26176,0,0,1-6.85986,5.08057,6.77552,6.77552,0,0,1,.87988.75976q.48047.48046.96.96a5.81488,5.81488,0,0,1,.72021.83985,28.09882,28.09882,0,0,0,4.24024-3.02094v5.62152H141.121v-9.20019h-14.3642A25.256,25.256,0,0,0,128.644,110.48Zm-17.80029,5.36035H137.4408v3.67969H126.76062Z" transform="translate(0 29.06)"/><polygon class="du" points="115.321 126.54 145.321 126.54 145.321 122.9 111.561 122.9 111.561 156.94 113.881 156.94 115.321 156.94 146.241 156.94 146.241 153.341 115.321 153.341 115.321 126.54"/><path class="dv" d="M0,0V225H400V0ZM360.19,198.795h-319v-179h319Z" transform="translate(0 29.06)"/></svg>