<?xml version="1.0" encoding="UTF-8"?>
<svg xmlns="http://www.w3.org/2000/svg" xmlns:xlink="http://www.w3.org/1999/xlink" viewBox="0 0 492.26 317.62">
  <defs>
    <style>
      .cls-1 {
        fill: #fcdb81;
      }

      .cls-2 {
        fill: #d47d72;
      }

      .cls-3 {
        opacity: .72;
      }

      .cls-4 {
        fill: #4d4238;
      }

      .cls-5 {
        fill: #bda362;
      }

      .cls-6, .cls-7 {
        fill: #656678;
      }

      .cls-8 {
        fill: #28162b;
      }

      .cls-9 {
        fill: #d3ecf3;
      }

      .cls-10 {
        fill: #8e5338;
      }

      .cls-11 {
        fill: #fff;
      }

      .cls-12 {
        letter-spacing: -.03em;
      }

      .cls-13 {
        fill: #845659;
      }

      .cls-14 {
        fill: #403e54;
      }

      .cls-15 {
        fill: #8c7231;
      }

      .cls-16 {
        fill: #f1bc9c;
      }

      .cls-17 {
        fill: #687a7d;
      }

      .cls-18 {
        letter-spacing: -.06em;
      }

      .cls-19 {
        fill: #574652;
      }

      .cls-20 {
        fill: #4e1010;
      }

      .cls-21 {
        fill: #3e2c2a;
      }

      .cls-22 {
        fill: #f79c81;
      }

      .cls-23 {
        letter-spacing: -.03em;
      }

      .cls-24 {
        fill: #211010;
      }

      .cls-25 {
        fill: #363636;
      }

      .cls-26 {
        letter-spacing: -.08em;
      }

      .cls-27 {
        fill: #4f495e;
        font-size: 5.29px;
        letter-spacing: -.03em;
      }

      .cls-27, .cls-28, .cls-29, .cls-30, .cls-31 {
        font-family: SourceHanSerifSC-Bold-GBpc-EUC-H, 'Source Han Serif SC';
        font-weight: 700;
      }

      .cls-32 {
        opacity: .29;
      }

      .cls-32, .cls-33 {
        fill: #362630;
      }

      .cls-34 {
        fill: #60474b;
      }

      .cls-35 {
        fill: #735d49;
      }

      .cls-33 {
        opacity: .34;
      }

      .cls-36 {
        fill: #ffcaa8;
      }

      .cls-37 {
        fill: #d2734d;
      }

      .cls-38 {
        fill: #9d836d;
      }

      .cls-39 {
        fill: #c4f1ff;
      }

      .cls-40 {
        fill: #eeeae8;
      }

      .cls-41 {
        fill: #736f36;
      }

      .cls-42 {
        letter-spacing: -.06em;
      }

      .cls-43 {
        fill: #aa7a4c;
      }

      .cls-44 {
        fill: #f8bb9e;
      }

      .cls-45 {
        fill: #f2eeeb;
      }

      .cls-46 {
        fill: #5b5d69;
      }

      .cls-47 {
        fill: #262936;
        opacity: .3;
      }

      .cls-48 {
        fill: #39291c;
      }

      .cls-49 {
        fill: url(#_未命名的渐变_4);
      }

      .cls-50 {
        fill: #997467;
      }

      .cls-51 {
        fill: #6a5e46;
      }

      .cls-52 {
        fill: #d8ae4e;
      }

      .cls-53 {
        fill: #ec876c;
      }

      .cls-54 {
        fill: #56594f;
      }

      .cls-54, .cls-55 {
        font-family: SourceHanSerifSC-SemiBold-GBpc-EUC-H, 'Source Han Serif SC';
        font-size: 12px;
        font-weight: 600;
      }

      .cls-56 {
        fill: #bf8967;
      }

      .cls-57 {
        letter-spacing: -.03em;
      }

      .cls-58 {
        fill: #8c080d;
      }

      .cls-59 {
        fill: #c67a58;
      }

      .cls-60 {
        fill: #1c1716;
      }

      .cls-61 {
        fill: #e69981;
      }

      .cls-28 {
        font-size: 5.1px;
      }

      .cls-28, .cls-29, .cls-30, .cls-31 {
        fill: #7a7246;
      }

      .cls-62 {
        fill: #bf6f52;
      }

      .cls-63 {
        letter-spacing: -.06em;
      }

      .cls-64 {
        fill: #3d3125;
      }

      .cls-65 {
        fill: #c1ac80;
      }

      .cls-66 {
        letter-spacing: -.06em;
      }

      .cls-67 {
        fill: #73713d;
      }

      .cls-68 {
        fill: #4d595c;
      }

      .cls-69 {
        letter-spacing: -.08em;
      }

      .cls-70 {
        fill: #404742;
      }

      .cls-71 {
        fill: #f4af86;
      }

      .cls-72 {
        fill: #855e56;
      }

      .cls-73 {
        fill: #f5d987;
      }

      .cls-74 {
        fill: #d6dcf5;
      }

      .cls-75 {
        stroke: #8f868f;
        stroke-linecap: round;
        stroke-linejoin: bevel;
      }

      .cls-75, .cls-7, .cls-76 {
        stroke-width: 2px;
      }

      .cls-75, .cls-77 {
        fill: #ab9f9c;
      }

      .cls-78 {
        stroke: #24528f;
      }

      .cls-78, .cls-79, .cls-80, .cls-7, .cls-81, .cls-82, .cls-76, .cls-83 {
        stroke-miterlimit: 10;
      }

      .cls-78, .cls-79, .cls-80, .cls-81, .cls-76, .cls-83 {
        fill: none;
      }

      .cls-78, .cls-79, .cls-83 {
        stroke-width: .5px;
      }

      .cls-84 {
        fill: #375e63;
      }

      .cls-85 {
        fill: #8f2d2d;
      }

      .cls-86 {
        fill: #a3a65b;
      }

      .cls-87 {
        fill: #7a705f;
      }

      .cls-88 {
        fill: #827c62;
      }

      .cls-89 {
        fill: #737373;
      }

      .cls-79 {
        stroke: #823030;
      }

      .cls-90 {
        fill: #693120;
      }

      .cls-91 {
        fill: #542859;
      }

      .cls-92 {
        fill: #e2885c;
      }

      .cls-93 {
        fill: #0d1331;
      }

      .cls-94 {
        fill: #a85c3e;
      }

      .cls-95 {
        fill: #362d26;
        opacity: .49;
      }

      .cls-96 {
        fill: #2f0a0a;
      }

      .cls-29 {
        font-size: 7px;
      }

      .cls-97 {
        fill: #998c77;
      }

      .cls-98 {
        fill: #1a1715;
      }

      .cls-80 {
        stroke: #262524;
        stroke-width: 1.5px;
      }

      .cls-99 {
        letter-spacing: -.09em;
      }

      .cls-100 {
        fill: #57432d;
      }

      .cls-101 {
        letter-spacing: -.03em;
      }

      .cls-102 {
        fill: #fcd2b3;
      }

      .cls-103 {
        letter-spacing: -.14em;
      }

      .cls-104 {
        opacity: .92;
      }

      .cls-105 {
        fill: #de9278;
      }

      .cls-106 {
        letter-spacing: -.07em;
      }

      .cls-7 {
        stroke: #656678;
      }

      .cls-107 {
        fill: #294f34;
      }

      .cls-108 {
        fill: #fcf6e6;
      }

      .cls-81 {
        stroke: #631316;
      }

      .cls-109 {
        letter-spacing: -.05em;
      }

      .cls-110 {
        fill: #504159;
      }

      .cls-111 {
        fill: #2c2a31;
      }

      .cls-112 {
        fill: #ffdbc5;
      }

      .cls-113 {
        fill: #b98566;
      }

      .cls-114 {
        fill: #4d4a45;
      }

      .cls-115 {
        fill: #fff3e6;
      }

      .cls-116 {
        fill: #746f8a;
      }

      .cls-117 {
        fill: #b3b3b3;
      }

      .cls-82 {
        fill: #807556;
        stroke: #7a6854;
      }

      .cls-55 {
        fill: #50525c;
      }

      .cls-118 {
        fill: #c2c2c2;
      }

      .cls-30 {
        font-size: 7.44px;
      }

      .cls-119 {
        fill: #384737;
      }

      .cls-120 {
        fill: #886f5f;
      }

      .cls-121 {
        fill: #f19775;
      }

      .cls-122 {
        fill: #4657a1;
      }

      .cls-76 {
        stroke: #706050;
      }

      .cls-123 {
        fill: #d1ad93;
      }

      .cls-124 {
        fill: #4a4328;
      }

      .cls-125 {
        fill: #f0cd2a;
      }

      .cls-126 {
        fill: #fcceb4;
      }

      .cls-127 {
        letter-spacing: -.1em;
      }

      .cls-128 {
        fill: #737582;
      }

      .cls-129 {
        fill: #96765f;
      }

      .cls-130 {
        letter-spacing: -.05em;
      }

      .cls-131 {
        fill: #9c8671;
      }

      .cls-132 {
        fill: #877c5b;
      }

      .cls-133 {
        fill: #bfa6c2;
      }

      .cls-31 {
        font-size: 5.31px;
      }

      .cls-134 {
        fill: #eead8d;
      }

      .cls-135 {
        letter-spacing: -.02em;
      }

      .cls-83 {
        stroke: #2a61a8;
      }

      .cls-136 {
        fill: #c98d7b;
      }

      .cls-137 {
        fill: #132022;
      }

      .cls-138 {
        fill: #fffaf2;
      }

      .cls-139 {
        fill: #98673b;
      }

      .cls-140 {
        fill: #d8d5ce;
      }

      .cls-141 {
        fill: #5c483d;
      }

      .cls-142 {
        fill: #1e1212;
      }

      .cls-143 {
        fill: #fed1b0;
      }

      .cls-144 {
        letter-spacing: -.05em;
      }

      .cls-145 {
        letter-spacing: -.16em;
      }
    </style>
    <radialGradient id="_未命名的渐变_4" data-name="未命名的渐变 4" cx="247.1" cy="155.66" fx="247.1" fy="155.66" r="249.11" gradientTransform="translate(0 77.83) scale(1 .5)" gradientUnits="userSpaceOnUse">
      <stop offset=".32" stop-color="#dbc2a0" stop-opacity="0"/>
      <stop offset=".54" stop-color="#7c6766" stop-opacity=".21"/>
      <stop offset=".82" stop-color="#291733" stop-opacity=".4"/>
    </radialGradient>
  </defs>
  <g id="bg">
    <path id="bg-2" data-name="bg" class="cls-35" d="M86.88,245.51V65.51H406.88V245.51H86.88Z"/>
  </g>
  <g id="papers">
    <g id="map" class="cls-104">
      <polygon class="cls-141" points="257.25 87.75 259.83 64.59 254.83 19.75 218.72 19.75 48.46 19.75 48.46 132.04 112.21 128.98 163.86 132.04 212.69 125.03 260.83 132.04 257.25 87.75"/>
      <polygon class="cls-132" points="252.83 17.75 46.46 17.75 46.46 130.04 110.21 126.98 161.86 130.04 210.69 123.03 258.83 130.04 255.25 85.75 257.83 62.59 252.83 17.75"/>
      <polygon class="cls-82" points="110.21 126.98 161.86 130.04 159.67 87.28 163.82 61.32 166.03 29.33 122.83 27.79 124.45 59.71 114.31 85.96 110.21 126.98"/>
      <polygon class="cls-82" points="210.69 123.03 209.86 84.52 216.57 58.3 216.72 17.75 252.83 17.75 257.83 62.59 255.25 85.75 258.83 130.04 210.69 123.03"/>
      <polygon class="cls-76" points="110.29 111.96 61.46 114.3 61.46 32.75 238.83 32.75 242.83 61.44 240.16 85.2 242.36 112.48 210.7 107.87 161.23 114.98 110.29 111.96"/>
    </g>
    <g>
      <polygon class="cls-4" points="404.73 97.4 391.88 98.73 351.2 99.68 329.89 97.42 331.95 110.46 330.84 112.19 331.2 115.61 329.98 118.6 331.6 150.27 330.85 156.43 331.5 157.91 330.43 159.64 331.23 161.28 330.43 163.3 330.34 168.56 329.89 194.92 386.43 193.96 405.85 194.92 403.37 174.82 401.03 170.25 402.44 166.05 401.03 152.7 403.37 134.82 402.99 115.26 404.73 97.4"/>
      <polygon class="cls-88" points="415.24 96.31 397.88 97.65 342.9 98.59 314.11 96.34 316.89 109.38 315.38 111.1 315.88 114.53 314.22 117.51 316.42 149.18 315.41 155.35 316.28 156.83 314.83 158.55 315.91 160.2 314.83 162.21 314.71 167.47 314.11 193.83 390.51 192.88 416.75 193.83 413.4 173.74 410.25 169.16 412.15 164.97 410.25 151.61 413.4 133.74 412.9 114.18 415.24 96.31"/>
      <text class="cls-54" transform="translate(378.83 116.54)"><tspan class="cls-127" x="0" y="0">T</tspan><tspan class="cls-135" x="6.92" y="0">odo</tspan></text>
    </g>
    <g>
      <polygon class="cls-4" points="336.25 219.05 324.43 220.28 286.98 221.15 267.38 219.07 269.27 231.07 268.25 232.66 268.58 235.81 267.46 238.56 268.95 267.71 268.26 273.38 268.86 274.74 267.87 276.33 268.6 277.84 267.87 279.7 267.79 284.54 267.38 308.8 319.41 307.92 337.28 308.8 335 290.31 332.85 286.09 334.15 282.23 332.85 269.94 335 253.49 334.65 235.49 336.25 219.05"/>
      <polygon class="cls-87" points="335.25 218.05 323.43 219.28 285.98 220.15 266.38 218.07 268.27 230.07 267.25 231.66 267.58 234.81 266.46 237.56 267.95 266.71 267.26 272.38 267.86 273.74 266.87 275.33 267.6 276.84 266.87 278.7 266.79 283.54 266.38 307.8 318.41 306.92 336.28 307.8 334 289.31 331.85 285.09 333.15 281.23 331.85 268.94 334 252.49 333.65 234.49 335.25 218.05"/>
    </g>
    <g>
      <polygon class="cls-4" points="323.34 115.12 310.5 116.46 269.81 117.41 248.51 115.15 250.57 128.19 249.45 129.91 249.82 133.34 248.59 136.32 250.22 167.99 249.47 174.16 250.12 175.64 249.04 177.36 249.84 179.01 249.04 181.02 248.96 186.28 248.51 212.64 305.04 211.69 324.46 212.64 321.98 192.55 319.65 187.97 321.06 183.78 319.65 170.42 321.98 152.55 321.61 132.99 323.34 115.12"/>
      <polygon class="cls-97" points="322.26 114.03 309.41 115.37 268.72 116.32 247.42 114.06 249.48 127.1 248.37 128.83 248.73 132.25 247.51 135.23 249.13 166.91 248.38 173.07 249.03 174.55 247.96 176.27 248.76 177.92 247.96 179.94 247.87 185.19 247.42 211.55 303.95 210.6 323.37 211.55 320.9 191.46 318.56 186.89 319.97 182.69 318.56 169.33 320.9 151.46 320.52 131.9 322.26 114.03"/>
    </g>
    <g>
      <path class="cls-19" d="M258.24,233.7l-3.17,1.65h-29.62v-33.7l1.67-1.9-1.67-1.59v-5.52l3.89-3.89,33.7-.71c.4,9.91,.09,16.94,.09,32.21,0,3.97,0,7.92-.32,11.71l-1.73,1.73h-2.84Z"/>
      <path class="cls-77" d="M256.56,232.21l-3.17,1.65h-28.62v-33.7l1.67-1.9-1.67-1.59v-5.52l3.89-3.89h34.47c-.03,10.3-.38,21.02-1.13,32.13-.25,3.75-.54,7.44-.87,11.08-.58,.58-1.16,1.16-1.73,1.73h-2.84Z"/>
      <g>
        <line class="cls-75" x1="230.75" y1="195.16" x2="257.52" y2="195.26"/>
        <line class="cls-75" x1="230.75" y1="200.89" x2="257.7" y2="201"/>
        <line class="cls-75" x1="230.75" y1="206.53" x2="257.52" y2="206.64"/>
        <line class="cls-75" x1="230.57" y1="212.56" x2="250.79" y2="212.66"/>
        <line class="cls-75" x1="248.93" y1="223.19" x2="258.29" y2="223.3"/>
      </g>
    </g>
    <g id="news">
      <polygon class="cls-46" points="164.38 274.6 52.66 274.6 52.66 160.14 167.12 160.14 164.38 197.8 167.12 225.23 164.38 274.6"/>
      <polygon class="cls-128" points="163.38 272.6 51.66 272.6 51.66 158.14 166.12 158.14 163.38 195.8 166.12 223.23 163.38 272.6"/>
      <text class="cls-55" transform="translate(89.96 174.53)"><tspan class="cls-42" x="0" y="0">D</tspan><tspan class="cls-63" x="8.6" y="0">ai</tspan><tspan class="cls-106" x="18.02" y="0">l</tspan><tspan class="cls-63" x="21.23" y="0">y</tspan></text>
      <polygon class="cls-6" points="83.21 186.16 147.23 187.16 147.23 198.33 149.47 209.83 83.58 209.19 81.1 197.68 83.21 186.16"/>
      <g>
        <path class="cls-7" d="M148.75,218.24c-1.48-.38-62.89,0-62.89,0"/>
        <path class="cls-7" d="M149.5,223.89c-1.48-.38-62.89,0-62.89,0"/>
        <path class="cls-7" d="M150.63,229.39c-1.5-.21-64.02,0-64.02,0"/>
        <path class="cls-7" d="M147.7,235.04c-1.48-.38-62.89,0-62.89,0"/>
      </g>
    </g>
    <g id="photo1">
      <g>
        <rect class="cls-17" x="165.17" y="137.5" width="41.18" height="31.38"/>
        <path class="cls-118" d="M205.35,138.5v29.38h-39.18v-29.38h39.18m2-2h-43.18v33.38h43.18v-33.38h0Z"/>
      </g>
      <polygon class="cls-68" points="166.17 154.36 169.48 155.08 169.52 150.56 174.75 147.66 183 149.63 183.07 152.85 187.64 150.71 195.15 152.38 195.15 161.36 205.35 163.65 205.35 167.88 166.17 167.88 166.17 154.36"/>
      <polygon class="cls-14" points="166.17 167.88 166.17 154.36 205.35 163.65 205.35 167.88 166.17 167.88"/>
      <path class="cls-70" d="M205.35,148.76l-4.68,1.92s-1.7,4.94-1.7,5.31,2.29,2.73,2.29,2.73l2.51,1.84-.24,2.66,1.83,.43v-14.89Z"/>
    </g>
    <g>
      <g id="photo1-2" data-name="photo1">
        <g>
          <rect class="cls-17" x="149.88" y="215.86" width="40.93" height="53.91" transform="translate(-79.83 402.17) rotate(-87.44)"/>
          <path class="cls-118" d="M145.28,222.21l51.86,2.31-1.74,38.89-51.86-2.31,1.74-38.89m-1.91-2.09l-.09,2-1.74,38.89-.09,2,2,.09,51.86,2.31,2,.09,.09-2,1.74-38.89,.09-2-2-.09-51.86-2.31-2-.09h0Z"/>
        </g>
        <polygon class="cls-68" points="144.35 243.21 148.69 244.36 149 238.38 156.1 234.85 166.89 237.95 166.81 242.21 172.97 239.65 182.82 242.31 182.29 254.19 195.65 257.82 195.4 263.42 143.55 261.11 144.35 243.21"/>
        <polygon class="cls-14" points="143.55 261.11 144.35 243.21 195.65 257.82 195.4 263.42 143.55 261.11"/>
        <path class="cls-70" d="M196.53,238.11l-6.31,2.26s-2.54,6.44-2.56,6.92,2.86,3.74,2.86,3.74l3.21,2.59-.48,3.51,2.39,.68,.88-19.71Z"/>
      </g>
      <g id="photo1-3" data-name="photo1">
        <g>
          <rect class="cls-17" x="162.93" y="228.5" width="42.96" height="32.72" transform="translate(-7.51 5.84) rotate(-1.78)"/>
          <path class="cls-118" d="M204.41,228.87l.95,30.71-40.94,1.27-.95-30.71,40.94-1.27m1.94-2.06l-2,.06-40.94,1.27-2,.06,.06,2,.95,30.71,.06,2,2-.06,40.94-1.27,2-.06-.06-2-.95-30.71-.06-2h0Z"/>
        </g>
        <polygon class="cls-68" points="163.98 246.72 167.47 247.37 167.36 242.65 172.73 239.44 181.41 241.24 181.6 244.6 186.3 242.22 194.2 243.72 194.49 253.1 205.23 255.16 205.36 259.58 164.42 260.85 163.98 246.72"/>
        <polygon class="cls-14" points="164.42 260.85 163.98 246.72 205.23 255.16 205.36 259.58 164.42 260.85"/>
        <path class="cls-70" d="M204.74,239.6l-4.83,2.15s-1.61,5.22-1.6,5.6,2.48,2.78,2.48,2.78l2.68,1.84-.17,2.79,1.92,.39-.48-15.56Z"/>
      </g>
      <path class="cls-83" d="M195.85,225.72v5.28c0,.72-.58,1.31-1.31,1.31h0c-.72,0-1.31-.58-1.31-1.31v-7.46c0-1,.81-1.81,1.81-1.81h0c.62,0,1.16,.31,1.49,.78"/>
    </g>
    <g>
      <rect class="cls-32" x="341.01" y="207.17" width="65.08" height="50.72" transform="translate(-27.89 52.37) rotate(-7.73)"/>
      <rect class="cls-77" x="339.01" y="204.17" width="65.08" height="50.72" transform="translate(-27.5 52.07) rotate(-7.73)"/>
      <rect class="cls-89" x="345.22" y="214.22" width="9.63" height="12.17" transform="translate(-26.46 49.09) rotate(-7.73)"/>
      <rect class="cls-117" x="344.64" y="213.62" width="9.63" height="12.17" transform="translate(-26.38 49.01) rotate(-7.73)"/>
      <g>
        <line class="cls-75" x1="359.14" y1="222.53" x2="392.61" y2="218.08"/>
        <line class="cls-75" x1="347.31" y1="231.36" x2="393.57" y2="225.18"/>
        <line class="cls-75" x1="348.21" y1="238.01" x2="394.47" y2="231.83"/>
      </g>
    </g>
  </g>
  <g id="_图层_1" data-name="图层 1">
    <g id="memo">
      <g id="memo-2" data-name="memo">
        <polygon class="cls-100" points="311.03 179.06 279.96 172.55 276.63 188.45 278.08 191 307.25 197.11 311.03 179.06"/>
        <polygon class="cls-86" points="311.03 178.06 279.96 171.55 276.63 187.45 278.08 190 307.25 196.11 311.03 178.06"/>
        <text class="cls-30" transform="translate(281.57 186.9) rotate(9.99)"><tspan class="cls-144" x="0" y="0">G</tspan><tspan class="cls-12" x="5.22" y="0">A</tspan><tspan class="cls-130" x="10.53" y="0">N</tspan><tspan class="cls-57" x="16.24" y="0">G</tspan></text>
      </g>
      <g id="memo-3" data-name="memo">
        <polygon class="cls-100" points="135.18 119.27 105.1 120.92 105.95 136.17 107.9 138.13 136.15 136.58 135.18 119.27"/>
        <polygon class="cls-86" points="134.18 118.27 104.1 119.92 104.95 135.17 106.9 137.13 135.15 135.58 134.18 118.27"/>
        <text class="cls-29" transform="translate(113.36 131.42) rotate(11.05) skewX(-.2)"><tspan class="cls-145" x="0" y="0">P</tspan><tspan class="cls-101" x="3.59" y="0">.</tspan><tspan class="cls-103" x="5.73" y="-1">F</tspan><tspan class="cls-101" x="9.28" y="-1">.</tspan></text>
      </g>
      <g id="memo-4" data-name="memo">
        <polygon class="cls-110" points="412.43 64.79 368.93 56.33 364.58 75.33 366.65 78.41 407.5 86.36 412.43 64.79"/>
        <polygon class="cls-116" points="411.65 64.18 368.14 55.72 363.8 74.72 365.87 77.8 406.72 85.75 411.65 64.18"/>
        <text class="cls-27" transform="translate(371.64 71.47) rotate(9.23) scale(1.08 1) skewX(-1.46)"><tspan x="0" y="0">witness</tspan></text>
      </g>
      <g id="memo-5" data-name="memo">
        <polygon class="cls-100" points="228.47 193.8 201 188.04 198.05 202.1 199.33 204.35 225.12 209.76 228.47 193.8"/>
        <polygon class="cls-86" points="227.58 192.92 200.11 187.16 197.17 201.22 198.45 203.47 224.24 208.87 227.58 192.92"/>
        <text class="cls-31" transform="translate(205.44 200.84) rotate(9.99)"><tspan class="cls-66" x="0" y="0">N</tspan><tspan class="cls-23" x="3.99" y="0">aie</tspan></text>
      </g>
      <g id="memo-6" data-name="memo">
        <polygon class="cls-100" points="244.28 109.91 215.67 113.46 217.46 128.26 219.45 130.04 246.32 126.71 244.28 109.91"/>
        <polygon class="cls-86" points="243.44 108.48 214.83 112.02 216.62 126.83 218.61 128.61 245.48 125.28 243.44 108.48"/>
        <text class="cls-28" transform="translate(218.79 122.53) rotate(-2.93) scale(.99 1) skewX(-.19)"><tspan class="cls-18" x="0" y="0">i</tspan><tspan class="cls-99" x="1.46" y="0">n</tspan><tspan class="cls-69" x="4.48" y="0">v</tspan><tspan class="cls-18" x="6.99" y="0">esti</tspan><tspan class="cls-26" x="14.96" y="0">g</tspan><tspan class="cls-18" x="17.59" y="0">ate</tspan></text>
      </g>
      <g id="memo-7" data-name="memo">
        <polygon class="cls-100" points="410.91 140.64 384.55 150.29 389.49 163.78 391.77 165.01 416.52 155.95 410.91 140.64"/>
        <polygon class="cls-86" points="409.69 140.36 383.34 150.01 388.28 163.5 390.55 164.73 415.3 155.67 409.69 140.36"/>
        <text class="cls-31" transform="translate(394.99 158.93) rotate(-21.96)"><tspan class="cls-109" x="0" y="0">F</tspan><tspan class="cls-23" x="3.18" y="0">ind</tspan></text>
      </g>
    </g>
  </g>
  <g id="_图层_2" data-name="图层 2">
    <path id="filter" class="cls-33" d="M86.88,245.51V65.51H406.88V245.51H86.88Z"/>
    <g>
      <g id="portrait">
        <g>
          <path class="cls-138" d="M319.79,208.61l-4.78-20.61,20.61-4.78,4.78,20.61-20.61,4.78Z"/>
          <g>
            <path class="cls-119" d="M324.46,207.1l3.46-2.98,4.68-5.23,2.44-.78,3.95,2.91,.81,2.54-15.33,3.55Z"/>
            <path class="cls-113" d="M333.33,201.11l-3.28,3.27-1.71,.18-.97-1.85,5.71-7.87,1.24,2.99-.99,3.28Z"/>
            <path class="cls-16" d="M332.44,196.3l-.89,3.7-2.34,2.62-2.54,.81-2.26-2.21-1.4-2.73-1.09-2.8-.09-.85-.42-2.74,1.13-2.66,2.82-1.96,3.63,.14,2.22,1.56,1.41,3.71-.19,3.43Z"/>
            <path class="cls-120" d="M332.27,196.99l-.46,2.73-2.09,2.78-2.98,.8-1.4-1.31,.17-.69,1.94,1.3,1.8-2.6-.06-.75,.28,.26,1.85-.97-.41-4.6-.95-1.74-.82-.25,.18-1.57-.8-1.56-1.99-1.07,2.58-.16,2.22,1.56,1.16,3.11-1.05,1.12,.84,3.63Z"/>
            <path class="cls-98" d="M331.52,192.36l-2.64,1.81,.1,1.39-.92,.76-1.67-.16-1.3-.9-.3-.37-.7,.27,.22,.49-.08,1.55-.84,1.07-1.18-.38-.5-.76-.31,.07-.18-.29,.29-.18-.05-.21,.35-.85,4.05-1.81,2.05-.58,.87,.45,2.74-1.84,.59,.19-.24,.38-.36-.14Z"/>
            <path class="cls-16" d="M333.08,196.26l-.9-.12-.58-3.47,1.05-1.12,1.13,1.59-.7,3.11Z"/>
            <path class="cls-140" d="M332.83,205.05l-2.38,.55-.91-1.1-.54,.02-.46,1.31-.41,.1-.44-2.84,1.45,1.08,.41-.1,4.3-5.47,.36-1.28,.21-.05,.76,.92-2.34,6.87Z"/>
            <path class="cls-120" d="M326.33,199.13l-1.65,1.36,.09-1,1.47-1.21h1.86s.81,.69,.81,.69l-2.58,.16Z"/>
          </g>
          <path class="cls-80" d="M319.79,208.61l-4.78-20.61,20.61-4.78,4.78,20.61-20.61,4.78Z"/>
        </g>
        <g>
          <path class="cls-114" d="M136.62,110.01l2.56-21,21,2.56-2.56,21-21-2.56Z"/>
          <g>
            <path class="cls-43" d="M154.72,97.65l-2.16-4.23,2.6,.64,.77,.74-.74-.09,.54,.82-.59-.39,.37,.47-.12,.95-.37-.47-.3,1.57Z"/>
            <path class="cls-61" d="M143.01,105.87l.46-1.98,.14-2.88,3.92,1.23,2.44,5.44-.52,2.51-1.87,.41-1.97-.56-2.6-4.17Z"/>
            <path class="cls-36" d="M144.27,102.59v-8.89s5.8-.9,5.8-.9l3.72,1.95,.8,2.24-.06,1.38,.41,1.01-.87,.97-.02,1.07-.62,1.53-7.58,2.4-1.59-2.76Z"/>
            <path class="cls-43" d="M143.19,99.14l-.3-3.68,.55-1-.32-.04,1.01-1.27-.65,.03,1.87-1.27,4.85-.27,3.43,.85h-.86s1.15,.25,1.15,.25l1.4,.81,.77,.74-.33,.07-1.08,.94-2.12-.15-1.54-.51-3.4,.66-.48,1.33-.92,.53-.43,1.77-.84,.75-1.76-.54Z"/>
            <path class="cls-11" d="M143.9,98.58l.26,3.14,.41,1.01,.88,1.61-.24,.19-.72-1.16-.55-1.67-.29-3.78,.54-.04,1.38,1.88,1.06,.99-.06,.53-1.43-1.46-1.24-1.22Z"/>
            <path class="cls-36" d="M143.69,102.09l-.98-.76-.71-2.12,.58-1.22h.86s1.01,1.41,1.01,1.41l-.08,2.45-.67,.24Z"/>
            <path class="cls-125" d="M141.54,106.54l1.62-.98,1.72,2.57,1.97,1.42,2.23,.16,.73-1.62,.69,.51,2.96,2.07,.95,.97-17.31-2.11,.31-1.68,4.12-1.32Z"/>
            <path class="cls-9" d="M144.79,104.48l1.08-.94,.27-3.07,4.06,.07,1.86-.31,.57,.6,1.52,.72-.34,1.03,.16,1.31-.33,.92-.58,.36-.31,.82-2.5,2.05-2.65-.22-2.81-3.34Z"/>
          </g>
          <path class="cls-80" d="M136.62,110.01l2.56-21,21,2.56-2.56,21-21-2.56Z"/>
        </g>
        <g>
          <path class="cls-138" d="M115.57,163.81l5.71-20.37,20.37,5.71-5.71,20.37-20.37-5.71Z"/>
          <g>
            <path class="cls-11" d="M130.9,166.23l.54,.04,.06,.57-.6-.61Z"/>
            <path d="M133.98,157.6l-.05-.23,1.43,.4-.19,.28-.28-.19-.92-.26Z"/>
            <path class="cls-124" d="M124.24,159.28l.02-1.65,.66,.41-.15,1.72-.53-.48Z"/>
            <path class="cls-2" d="M123.92,161.18l1.13-3.66,5.29,6.34-.58,.5-.02,.88-1.22,1.2-2.84-.91-1.76-4.36Z"/>
            <path class="cls-134" d="M125.28,159.91l.29-3.78-.21-1.61,.71-1.35,1.59-1.32,7.16,3.22-.21,1.93-.57,.84-.08,1.08-.71,1.35-.88,1.96-.45,.43-.81,1.32-2.35-.66-.88-.8-1-.39-1.32-1.59-.27-.63Z"/>
            <path class="cls-124" d="M125.8,156.08l-1.55-.77,.57-2.82,3.28,.92-.36,.89-.77,.78-.55,1.17-.61-.17Z"/>
            <path class="cls-11" d="M132.82,158.6l.04-1.31,.66-.37,1.48,.63-.5,1.4-.86,.31-.81-.67Z"/>
            <path class="cls-11" d="M129.27,156.28l.55-.4,1.79,.72-.26,.92-1.05,.59-1.04-.62v-1.21Z"/>
            <path d="M125.59,155.25l-.57,.06,.06-.2,.47-.09,3.61,.9,.63-.27,2.02,.68,.09,.47,.47-.09,.38,.22,.55-.4,1.61,.56,.29,.52-.71,1.35-.96,.28-1.04-.62,.07-1.42-.38-.22-.47,.09-.59,.94-.96,.28-1.07-.52-.08-1.68-3.41-.84Zm3.78,2.27l1.04,.62,.95-.62,.26-.92-1.71-.59-.52,.29v1.21Zm4.28,1.64l.83-.21,.48-1.3-1.4-.5-.63,.27v1.21s.72,.54,.72,.54Z"/>
            <path class="cls-134" d="M124.96,159.05l-1.02-1.5-.1-2.01,.64-.7,.69,.3,.54,.82-.16,2.94-.6,.16Z"/>
            <path class="cls-122" d="M123,151.87l.32-1.13,2.96-1.49,5.24-.19,4.37,1.34,1.44,1.95-1.77,1.6-.09,.31,.09,.47-.27,.59,1.32,1.59-.11,.41-6.88-2.26-2.56-1.49-2.33,.45-.41,.66-.31-.09,.2-1.49-1.2-1.22Z"/>
            <path class="cls-11" d="M124.12,165.99l-.86-4.44,.7-.91,.47,1.46,3.17,3.65,.91-.08,1.2-1.54,.03,3.43-5.63-1.58Z"/>
            <path class="cls-93" d="M126.81,166.63l.54-.73,.85,.13,.56,1.15-1.95-.54Z"/>
            <path class="cls-122" d="M116.43,163.5l.16-.95,2.48-.19,2.06,.14,.19-.28,1.95-1.44,.67-.03-.54,.73,1.29,4.45-8.26-2.43Z"/>
            <path class="cls-122" d="M129.17,167.29l.57-2.82,.91,1.47,2.8,2.22v.44s-4.28-1.31-4.28-1.31Z"/>
            <path d="M116.14,163.75l.4-1.43,4.21-.04,.35,.32-.46,.86-2.47,.52-2.03-.24Z"/>
            <path class="cls-11" d="M119.68,162.53l.54,.04-.32,.35-.61-.17,.39-.22Z"/>
            <path d="M130.95,166.46l-.32-.42,.51,.14,2.48,1.8-.09,.31-2.58-1.83Z"/>
            <path class="cls-74" d="M124.6,153.64l.08-1.08,2.69-1.34,4.59,.18,3.67,1.47-.33,1.56-2.87-1.58-5.17-.46-2.67,1.24Z"/>
          </g>
          <path class="cls-80" d="M115.57,163.81l5.71-20.37,20.37,5.71-5.71,20.37-20.37-5.71Z"/>
        </g>
        <g>
          <path class="cls-11" d="M172.48,201.95v-21.16h21.16v21.16h-21.16Z"/>
          <g>
            <path class="cls-53" d="M183.96,199.39l-6.59-3.72,.21-1.91,8.82,3.4,.43,2.13-2.87,.11Z"/>
            <path class="cls-122" d="M173.12,198.65l3.93-2.98,.43-1.28s4.15,2.45,5.63,3.3c.96,.53,2.34,1.17,2.34,1.17l.74-.64,.53-.85,2.34,1.59,2.76,2.55-18.71,.11v-2.98Z"/>
            <path d="M187.26,188.23l-.21-.85,2.13,.74-.11,.11-.53,.21-1.28-.21Z"/>
            <path class="cls-44" d="M177.48,193.87l.85-6.7,3.72-1.28,5.1,1.06,.74,2.02-.32,1.06,.43,.96-.11,.64,.43,1.59v1.17l-.74,2.23-1.38,1.49-1.59,.53-2.87-1.28-3.51-2.34-.74-1.17Z"/>
            <path class="cls-38" d="M178.11,189.08l.32-2.34,2.76-.32v1.49l-.64,.43-.21,1.28-.53,.43-1.7-.96Z"/>
            <path class="cls-44" d="M178.75,192.7l-.74-.64-.64-1.81,.43-1.17,.64-.21,.96,.53v3.19l-.64,.11Z"/>
            <path class="cls-139" d="M183.86,193.44l-.11-.32,.43-.64,1.38-.53,.74,.21,.43-.11,.85,.85v.74l-1.28-.74-.43,.21-.74,.11-1.28,.21Z"/>
            <path d="M178.01,188.23l-.11-.85-1.38-.85v-1.06l2.76-2.34,3.83-.85,3.51,.11,1.81,1.06,.21,1.17-1.28,1.28,.21,.85,1.59,1.17-.11,.21-1.91-.64-3.93-.21-2.55-.53-2.66,1.49Z"/>
            <path d="M186.94,198.22l-.43-.85,.64,.11,2.45,1.28,.64,.74-.21,.11-1.59-.64-1.49-.74Z"/>
            <path d="M174.92,198.44l1.81-1.38h1.17l.53,.21,.53,1.06-2.02,2.98-3.4-1.38,1.38-1.49Z"/>
            <path d="M185.88,201.52v-.53l-.96-.85,.32-1.06,.96-.11,.43,.64,.11,1.06,.64,.74-1.49,.11Z"/>
            <path class="cls-11" d="M177.37,197.8l-.21-.32,.43-.11,.43,.21-.21,.32-.43-.11Z"/>
            <path class="cls-11" d="M187.26,198.01l-.21-.32h.32l.11,.11,.11,.21h-.32Z"/>
            <path class="cls-11" d="M178.11,187.81l-.21-.96,1.7-1.49,3.3-.85,3.3,.11,1.17,.64v.85l-2.66-.64-4.04,.64-2.55,1.7Z"/>
          </g>
          <path class="cls-80" d="M172.48,201.95v-21.16h21.16v21.16h-21.16Z"/>
        </g>
        <g>
          <path class="cls-138" d="M179.1,129.68l-.99-21.13,21.13-.99,.99,21.13-21.13,.99Z"/>
          <g>
            <path class="cls-41" d="M190.96,128.49l-.24-2.76,.66,.39,1.57,1.63,.88,.6-2.87,.13Z"/>
            <path class="cls-111" d="M184.32,125.29l.78-1.63,5.94,1.85,.63,1.99-.06,1.07-2.97,.25-4.32-3.52Z"/>
            <path class="cls-59" d="M185.1,123.65l.27-1.08,.12-1.92,5.51-.47,.33,4.77-.25,1.4-.49,.98-5.49-3.68Z"/>
            <path class="cls-71" d="M187.22,123.45l-.52-2.1-.35-2.86,.38-3.32,7.14,.09,.68,3.06-.48,1.09,.05,1.17-.38,.98-.17,.97-.57,1.41-.07,.75-.72,.57-1.71-.13-3.27-1.66Z"/>
            <path class="cls-48" d="M184.67,118.99l.3-2.67,3.81-.5-.67,1.52-.62,.35-.35,1.72-.43-.09-.35-.73-.61,.56-.11,2.24-.18,.75-.23-.41-.55-2.74Z"/>
            <path class="cls-71" d="M184.58,119.42l.37-1.19,.53-.13,.66,.39,.32,.09,.44,2.53-.84,.25-1-.91-.47-1.04Z"/>
            <path class="cls-56" d="M187.22,123.45l-.31-2.01,.02-1.92,.32,.09,.49,1.47,2.22,1.92,.68,.82,1.19,.48,.83-.46,.9-1.21-.57,1.41-.07,.75-.72,.46-1.82-.13-3.16-1.66Z"/>
            <path class="cls-41" d="M179.4,129.35l-.15-.84,2.67-2.04,1.24-.7-.23-.41,.7-.99,.47-1.3,1.06-.16-.08,.54-.2,.33,2.33,2.02,2.26,2.87-10.08,.68Z"/>
            <path d="M180.43,128.56l1.23-.91,1.12-1.01,1.17,.05,.46,.72-1.73,1.78-.85,.04-1.42-.68Z"/>
            <path class="cls-11" d="M183.03,127.26l-.23-.31,.53-.13,.23,.31-.53,.13Z"/>
            <path class="cls-84" d="M185.02,115.25l.8-3.44,2.4-.96,2.03,.22,2.77-.02,1.26,1.96v2.45s1.87,1.19,1.87,1.19l.27,1.26-1.04,.58-3.01-.71-3.74-.36-3.61,.28-.17,.97-1.36,.49-.6-1.46,.38-.98,1.74-1.47Z"/>
            <path class="cls-137" d="M187.06,115.69l-1.3-.58,3.73,.14,3.81-.39,.56,.61-.75-.07-2.65,.34-3.41-.05Z"/>
          </g>
          <path class="cls-80" d="M179.1,129.68l-.99-21.13,21.13-.99,.99,21.13-21.13,.99Z"/>
        </g>
        <g>
          <path class="cls-138" d="M273.27,225.52v-21.16h21.16v21.16h-21.16Z"/>
          <g>
            <path class="cls-72" d="M289.54,221.9l-5.32,3.19h-3.51l-.64-3.19,2.55-8.61h8.29l.64,2.87-2.02,5.74Z"/>
            <path class="cls-123" d="M289.11,218.92l-8.4,2.34-1.49-2.66,.11-1.91-.43-1.7,.21-1.17-.96-1.38,.64-.96,.21-1.28,.85-1.81,3.19-1.49,5,.32,2.02,2.98,.74,3.3-1.7,5.42Z"/>
            <path class="cls-20" d="M282.09,225.2l-6.27-.21,4.57-2.23,.64,2.23h2.13l6.06-4.68,2.23-5,.74,2.66,2.02,3.72-.11,3.4-12.01,.11Z"/>
            <path class="cls-67" d="M285.18,223.39l-4.04,.64-2.34-1.81,.43-3.3,2.13-.21,1.59,.21,.85-.21-.21-.96-2.34-.43-2.23,.85v-1.17l1.17-.96,1.91-.53,3.08,1.7,2.55-6.27,1.7,.32-.11,4.36,.21,3.3-4.36,4.47Z"/>
            <path class="cls-67" d="M288.37,211.59l-2.13-1.59v-2.13l-1.91-.43-3.51,1.38-.96-.11-.64,.43v-.85l2.76-2.02h4.57l3.08,1.91,.85,3.72-2.13-.32Z"/>
            <path class="cls-123" d="M289.32,215.84l-.32-3.61,.96-1.06,.96,.11,.74,2.02-1.38,2.87-.96-.32Z"/>
            <path class="cls-51" d="M280.71,218.61l-3.51,1.28-.32-1.49,3.93-.96,1.06,.43-1.17,.74Z"/>
            <path class="cls-65" d="M277.2,219.99l-.85-.53,.53-.96,1.06,.43-.74,1.06Z"/>
          </g>
          <path class="cls-80" d="M273.27,225.52v-21.16h21.16v21.16h-21.16Z"/>
        </g>
        <g>
          <path class="cls-138" d="M270.62,122.32l4.62-20.65,20.65,4.62-4.62,20.65-20.65-4.62Z"/>
          <g>
            <path class="cls-121" d="M279.9,123.2l-3.58-3.96,1.18-1.37,1.46-3.6,1.59,.68,2.93,4.9-.6,.74-.31,.91-1.09,.96,.19,1.57-1.77-.83Z"/>
            <path class="cls-91" d="M287.85,112.99l-9.57-.07-1.75-.94,.14-.62,6.77-1.54,6.72,1.61,.2,.59-2.5,.97Z"/>
            <path class="cls-90" d="M287.95,113.02l-.55-1.43,.4-.35,.78,.39,.05,.77-.68,.61Z"/>
            <path d="M287.08,114.46l.17-.29,1.14,.26,.23-.06,.5,.22-.2,.39-1.84-.52Z"/>
            <path class="cls-126" d="M283.03,120.41l-3.26-2.47-.57-6.23,2.78-2.21,5.57,.92,.47,3.26-.69,1.15-.38,2.2-1.36,2.2-.68,1.59-1.87-.42Z"/>
            <path class="cls-90" d="M279.66,112.58l-1.59-.68,.44-.99,4.39-.65-.72,1.26-.97,.44-.62,1.82-.93-1.19Z"/>
            <path class="cls-126" d="M279.09,115.61l-.98-.98-.36-1.82,.98-.98,.92,.75,.23,2.88-.8,.15Z"/>
            <path class="cls-91" d="M288.83,112.01l-2.48-1.1-6.09-.05-2.42,1.09-1.29-.07-.08-1.11,2.04-.85,.92-3.61,3.22-1.24,2.78,.73,1.19,.05,1.42,4.35,2.27,1.05-.08,.85-1.4-.09Z"/>
            <path class="cls-90" d="M285.28,117.65l-2.38-.1-.23-.92,.6,.24h2.4s.96,1.08,.96,1.08l.46-.11-.68,.61-1.13-.8Z"/>
            <path class="cls-8" d="M271.48,121.86l3.91-2.39,.58-.63h.54s.43-.44,.43-.44l1.92,1.63,2.16,2.99,.43-.45,.61,1.66-10.58-2.37Z"/>
            <path class="cls-11" d="M284.21,115.12l-.86-.52,.05-1.19,1.36-.24,.82,.73-.31,.91-1.05,.31Z"/>
            <path class="cls-11" d="M287.2,115.9l-.71-.7,.34-1.01,.92-.23,.68,.37-.26,1.14-.97,.44Z"/>
            <path d="M287.13,116.21l-1.05-.67,.28-1.25-.83-.19-.42,.89-.97,.44-1.01-.34-.46-.87,.08-.85-3.75-1.27,.07-.31,3.79,1.07,1.67-.17,1,.88,.83,.19,1.23-.16,.84,.62-.43,1.43-.89,.56Zm.91-.67l.23-1.04-.68-.37-.9,.13-.31,.91,.71,.7,.95-.33Zm-3.01-.67l.31-.91-.71-.7-1.23,.16-.05,1.19,.86,.52,.82-.25Z"/>
            <path class="cls-133" d="M284.4,109.39l-5.81,.66,.24-.6,5.91-1.08,2.88,.75,.31,1.05-3.53-.79Z"/>
          </g>
          <path class="cls-80" d="M270.62,122.32l4.62-20.65,20.65,4.62-4.62,20.65-20.65-4.62Z"/>
        </g>
        <g>
          <path class="cls-138" d="M351.94,210.48l5.93-20.31,20.31,5.93-5.93,20.31-20.31-5.93Z"/>
          <g>
            <path class="cls-136" d="M357.6,211.58l1.3-2.94,.56-3.82,2.16,.96,3.47,5.55-1.06,2.13-6.43-1.88Z"/>
            <path class="cls-85" d="M359.24,203.31l-2.02-1.81,.4-.99,10.36-.19,5.3,3.1-.12,.41-2.84,.61-11.08-1.13Z"/>
            <path class="cls-102" d="M360.37,200.98l4.13-1.23,6.11,2.23-.09,2.96-1.16,1.32-.06,.98-2.42,4.5-.82,.54-1.57-.68-3.49-3.23-.62-7.38Z"/>
            <path d="M359.71,202.45l.52-1.4,4.98-.76-.75,1.44-1.26,.52-1.3,2.17-.39-1.33-1.81-.64Z"/>
            <path class="cls-11" d="M368.75,205.64l.59-.49,1.09,.43,.26,.63-.65,.7-.98-.06-.31-1.2Z"/>
            <path class="cls-11" d="M365.46,204.02l.89-.4,.96,.5,.3,.86-1.08,.68-1.06-.53v-1.11Z"/>
            <path d="M365.26,205.07l.05-1.31-.51-.15-4.35-1.05-.11-.37,4.58,1,.58,.28,.94-.17,.99,.4,.61,.95,.54,.05,.32,.43,.94-.17,.83,.57,.29,.53,.31,.09-.12,.41-.31-.09-.71,.9-1.04,.14-.72-1.32,.24-.82-.28-.19-.54-.05-.54,.73-1.4,.25-.58-1.05Zm.31,.09l.96,.5,1.05-.58-.3-.86-.96-.5-.89,.4,.14,1.04Zm3.73,1.64l.95,.17,.51-.63-.26-.63-1.09-.43-.59,.49,.48,1.02Z"/>
            <path class="cls-102" d="M360.19,206.13l-.88-1.92-.06-1.68,.92-.51,1.41,.86-.32,3.01-1.07,.24Z"/>
            <path class="cls-85" d="M357.55,200.38l3.06-.99,.95-2.49,2.65-1.11,4-.05,2.07,1.27,.76,4.21,1.72,.94,.99,1.17-.51,.63-2.52-.85-1.73-1.28-4.3-.81-7.41,.72,.29-1.36Z"/>
            <path class="cls-96" d="M363.07,198.56l4.63,.46,2.7,1.01,.16,.6-4.26-1.35-5.42-.03,2.19-.69Z"/>
          </g>
          <path class="cls-80" d="M351.94,210.48l5.93-20.31,20.31,5.93-5.93,20.31-20.31-5.93Z"/>
        </g>
        <g>
          <path class="cls-114" d="M355.14,118.36l-7.78-19.68,19.68-7.78,7.78,19.68-19.68,7.78Z"/>
          <g>
            <path class="cls-52" d="M356.78,108.91l-2.28-2.87,.16-.75,1.82-.6,1.98,2.42,.03,1.82h-1.72Z"/>
            <path class="cls-45" d="M355.26,107.68l-.63-1.58,.99,.18,.95-.49,.49,1.52-.95,.49-.85-.12Z"/>
            <path class="cls-52" d="M364.99,103.37l-2.94-5.7,1.98-.21,1.68,.48-.05,2.19,1.34,1.07,.04,.67-2.04,1.49Z"/>
            <path class="cls-1" d="M365.71,102.29l-.53-1.05,.42-.97,1.28,1.21-1.17,.8Z"/>
            <path class="cls-45" d="M366.34,103.3l-1.06-.95,.66-.95,.85,.12,.21,.83-.66,.95Z"/>
            <path class="cls-108" d="M365.68,113.51l-1.88-3.6,5.43,.14,2.32,1.25-5.87,2.21Z"/>
            <path class="cls-108" d="M357.12,112.09v-1.15s1.53-1.06,1.53-1.06l.72,1.54-2.25,.66Z"/>
            <path class="cls-105" d="M357.99,112.55l.36-1.97-.52-2.77,3.7-2.49,3.06,4.85,.19,1.07,1,1.09,.43,1.09-4.15,1.64-4.08-2.5Z"/>
            <path class="cls-143" d="M359.44,109l-.47-1.19-.42,.39-1.06-.38-1.02-1.43,.36-1.4,1.05,.04,.67-4.95,4.03-1.37,2.34,1.59,1.21,2.49-.24,1.12,.76,1.64-.17,1.89-.56,1.48-.24,1.12-1.44,.69-2.61-.23-2.21-1.53Z"/>
            <path class="cls-108" d="M355.48,117.77l-.88-1.94,2.24-2.72-.23-.59,.48-1.68,.75,.16,3.86,2.82,1.89,.74-8.11,3.21Z"/>
            <path class="cls-52" d="M359.02,106.19l-4.32-.81-.8-1.17,.76-1.56-1.1-1.05,.64-1.28,.58-1.14,1.6-.86,.62-1.62,3.66-.87,.98,.75,1.26-.27,1.61,1.19-.23,2.03-3.48,1.03-.66,2.09-.69,.85-.43,2.68Z"/>
            <path class="cls-1" d="M357.94,98.85l-1.2-1.58,3.91-1.09,.67,.54,.04,.67-3.42,1.47Z"/>
            <path class="cls-1" d="M354.5,101.69l-.29-1.6,.95-1.06,3.15,1.04-.36,1.97-3.45-.35Z"/>
            <path class="cls-45" d="M358.72,101.97l-.97,.15-.53-1.05,1.09-1,1.04,.62-.64,1.28Z"/>
            <path class="cls-45" d="M356.4,99l-.29-1.03,.67-.61,.87,.46,.23,1.17h-1.48Z"/>
            <path class="cls-1" d="M359.32,100.02l-.76-2.21,4.55-1.23,1.14,1.15-.1,1.18-4.82,1.11Z"/>
            <path class="cls-45" d="M358.32,98.93l.34-1.16,1.01-.06,.41,1.32-.66,.95-1.1-1.05Z"/>
            <path class="cls-45" d="M365.46,100.22l-.79-.83,.02-.81,1.09-.43,.71,1.21-1.03,.86Z"/>
            <path class="cls-45" d="M353.94,102.6l-.37-1.8,.63-.14,.08,.77,.53,.48-.36,.83-.51-.14Z"/>
            <path class="cls-1" d="M354.36,105.41l-.77-1.07,.46-.87,3.55,.31-.42,2.11-2.82-.49Z"/>
            <path class="cls-45" d="M357.28,105.85l-.51-1.29,.89-.92,.73,.4-.03,1.38-1.09,.43Z"/>
          </g>
          <path class="cls-80" d="M355.14,118.36l-7.78-19.68,19.68-7.78,7.78,19.68-19.68,7.78Z"/>
        </g>
        <g>
          <path class="cls-138" d="M215.44,105.42v-21.16h21.16v21.16h-21.16Z"/>
          <g>
            <path class="cls-24" d="M227.03,104.79l.96-.74,.64,.85-1.59-.11Z"/>
            <path class="cls-59" d="M236.07,104.68l-7.65,.21-1.28-1.49-.96-2.02,4.25-8.19,2.02,3.51,1.59,3.4,2.13,2.02-.11,2.55Z"/>
            <path class="cls-71" d="M225.86,102.77l-2.13,.11-.53-1.49-1.38-2.23-.43-.43,.11-.53-.32-.64-.11-1.17-1.06-.85,.21-1.17-.21-2.76,7.65-3.19,2.23,2.34,.43,8.51-4.47,3.51Z"/>
            <path class="cls-73" d="M231.18,95.11l-.53-2.55-1.28,.74-.32,1.81-1.38-2.13-1.59-.64-.32-2.02-5.95,2.13,.11-2.02,2.66-2.87,3.83-1.17,2.98,.64,2.13,2.13,.85,3.61,.53,4.68-1.7-2.34Z"/>
            <path class="cls-71" d="M229.58,96.6l-.11-3.3,.96-.96,.96,.11,.85,1.49-1.28,2.76-1.38-.11Z"/>
            <path class="cls-24" d="M229.69,104.79l3.51-2.66,2.87-.11-.11,2.66-6.27,.11Z"/>
            <path class="cls-10" d="M226.71,96.6l-1.17-.43,1.38,.21,1.17,.64-1.38-.43Z"/>
          </g>
          <path class="cls-80" d="M215.44,105.42v-21.16h21.16v21.16h-21.16Z"/>
        </g>
        <g id="peterson">
          <path class="cls-138" d="M354.78,162.79l3.13-20.93,20.93,3.13-3.13,20.93-20.93-3.13Z"/>
          <g>
            <path class="cls-94" d="M365.96,162.84l-5.53-4.7,1.5-6.44,8.38-4.98,1.89,.28,1.27,1.59,1.09,5.65-.73,4.19-1.26,1.21,.33-1.46-1.91,2.72,.18,1.64,.81,.34-1.51,1.49-4.5-1.53Z"/>
            <path class="cls-22" d="M359.46,163.16l1.83-2.2,1.25-5.51,3.23-.05,1.49,4.42-1.24,4.01-6.57-.66Z"/>
            <path class="cls-94" d="M359.18,154.2l1.85-4.45,2.11-2.59,2.63-.36-4.04,8.32,.17,4.65,.72,.97-.2,1.37-2.42-.36-2.55-1.67,1.39-.65,.47-1,.26-3.19-.75,2.15,.37-3.17Z"/>
            <path class="cls-112" d="M363.18,157.7l-.36-2.63-.03-2.69,.63-2.81,4.48-2.66,3.9,1.98,.59,2.56-.06,2.57-.68,.97-.16,1.8-.73,1.29-1.53,1.6-.94,1.26-.77,.1-2.31-1.1-2.03-2.24Z"/>
            <path class="cls-112" d="M362.09,155.6l-.95-1.54,.13-1.59,.65-.76,.53,.08,.64,.74-.02,3.01-.98,.07Z"/>
            <path class="cls-37" d="M362.62,152.78l.18-1.91-1.07-1.45,1.41-2.26,2.6-1.55,1.91,.18,1.62-.08,2.91,1.4,1.27,1.59,.54,2.88-.29,1.25-1.05-.16-.5-1.69-2.29-1.2-2.78-.09-1.29,1.42-1.4,.76-1.39,2.8-.36-1.88Z"/>
          </g>
          <path class="cls-80" d="M354.78,162.79l3.13-20.93,20.93,3.13-3.13,20.93-20.93-3.13Z"/>
        </g>
        <g id="rowen">
          <path class="cls-138" d="M308.2,103.2v-21.16h21.16v21.16h-21.16Z"/>
          <g>
            <path class="cls-107" d="M312.24,102.67l3.51-2.13,1.28-2.13h.74v4.15l-5.53,.11Z"/>
            <path class="cls-62" d="M318.61,102.56l-1.28,.11-.21-.96,.32-1.28-.43-1.06-.21-1.59,3.61-4.36,2.23,.43,.32,2.66,.64,1.38-5,4.68Z"/>
            <path class="cls-142" d="M323.82,94.59l-.43,.21-.11,.64-.85,.21-8.51-3.51-.32-.32,.21-.43-.43-.43,.21-.64-.96-.64,.96-.64-.85-.32-.11-.85,.43,.53v-.53l.32-.43h10.31l.21,1.7-.11,.53,.53,.21-.32,.74,.11,.53-1.06,1.59v.53l.43,.96,.53-.21-.21,.53Z"/>
            <path class="cls-92" d="M318.3,98.73l-2.02-.32-.53-1.06-1.06-1.28-.74-2.13,.21-1.28-.43-.96,.32-.85,.11-1.17,.53-2.23,4.36-1.17,4.04,2.23-.64,3.08,.64-.74,.53,.11,.43,1.28-.85,2.02-.64,.43-.43-.43-.43,2.02-3.4,2.45Z"/>
            <path class="cls-142" d="M321.48,92.99l-.21-2.23-.85-.64,.11-1.81-.53-.21-.85,.21-.64-.85-.74-.11-.85,.53-1.06-.11-1.28,.64-1.06-1.17v-1.28h1.28l.21-1.17,1.28,.11,1.06-.96,1.06,.64,1.49-.43,.96,.85,1.38,.11,.21,1.06,1.28,1.17-.96,3.61,.21,.43-.74,.64-.11,.96h-.64Z"/>
            <path class="cls-107" d="M318.19,102.67v-1.06l1.06-.43,3.83-4.04-.11-.74,.64,.21,.85,1.7,.74,.21,3.61,2.34-.11,1.91-10.53-.11Z"/>
          </g>
          <path class="cls-80" d="M308.2,103.2v-21.16h21.16v21.16h-21.16Z"/>
        </g>
        <g id="william">
          <path class="cls-114" d="M132.12,220.61l-6.26-20.21,20.21-6.26,6.26,20.21-20.21,6.26Z"/>
          <g>
            <path class="cls-15" d="M141.24,217.34l-1.04-3.35,1.39-.54,2.42,1.7-.32,.77,.8,.42-3.25,1.01Z"/>
            <path class="cls-15" d="M134.09,211.88l.02-1.01,1.46-.67,.55,1.05-2.03,.63Z"/>
            <path class="cls-40" d="M144.7,205.14l-.59-.48-.15,.94-2.19-3.11,.82-.59,1.88,1.76-.77-.32,1,1.8Z"/>
            <path class="cls-40" d="M135.36,210.93l-.59-.48-.3-.24-.11,.37-.92-1.16,.78-.35-.54-1.39-.45,.7,.14-2.05-.58,.29-.35-.78,1.54-2.59,1.69-1.75,1.95,8.08-2.25,1.36Z"/>
            <path class="cls-50" d="M135.23,212.3l.35-2.45h1.78s4.84,3.07,4.84,3.07l-1.01,1.76,.71,1.56-.97-.26-5.71-3.69Z"/>
            <path class="cls-123" d="M137.43,211.51l-2.59-4.76,.35-3.56,2.86-1.55,3.26,.1,1.65,1.38,.9,2.17,.35,.78-.33,1.1,.2,1.72-.68,1.77-.18,2.28-1.42,.44-2.38-.49-1.99-1.39Z"/>
            <path class="cls-40" d="M136.85,208.91l-1.72-1.25-.48-1.19-.38-2.66,1.22-2.16-1.97,.83,1.24-1.39,1.52-.47,1.99-.39-1.61-.17,2.1-.76,1.33,.7,.68-.32,.6,.15,.15,.84,1.14,.09,.9,.39-1.38,.21,1.17,.19,.76,.66h-1.78s-.51,.49-.51,.49l-3.76-.28-1.82,1.68,.62,.92-.02,3.9Z"/>
            <path class="cls-123" d="M136.34,210.51l-1.62-1.28-.57-1.83,.51-.49,.6,.15,.09,.3-.11,.37,.43,.31,1.2,2.08-.55,.39Z"/>
            <path class="cls-5" d="M132.24,219.91l-1.01-3.25,2.37-3.85-.23-.37,.59-.63,.26-.97,2.5,1.23,4.7,3.67,.09,.3,1.08-.11,.25,.81-10.59,3.17Z"/>
          </g>
          <path class="cls-80" d="M132.12,220.61l-6.26-20.21,20.21-6.26,6.26,20.21-20.21,6.26Z"/>
        </g>
        <g id="marco">
          <path class="cls-138" d="M236.11,168.1v-21.16h21.16v21.16h-21.16Z"/>
          <g>
            <path class="cls-34" d="M251.74,156.3l-.11-1.91,2.98-.53-.96,1.28-1.91,1.17Z"/>
            <path class="cls-129" d="M250.36,163.96l-7.23,3.72,.32-1.17,1.81-2.02,4.89-2.87,1.81,.32,.43,1.38-2.02,.64Z"/>
            <path class="cls-13" d="M246,164.81l.85-4.68,3.72-.21,.21,3.08,.21,1.49-2.23,2.87-2.87,.74,.11-3.3Z"/>
            <path class="cls-129" d="M243.23,167.89l2.66-3.3,.96,2.34,4.04-3.72,1.49-.21,.21,.53,1.17,.96-.21,.64,2.13,1.28,1.17,1.17-13.61,.32Z"/>
            <path class="cls-123" d="M250.04,162.15l-1.28,1.06-1.49,1.49-1.91,.11-.53-.96-.74-.85-.64-1.81-.64-.74-.11-1.49-.43-1.17,2.02-3.51,3.93-.32,2.45,4.15,.53,1.28-.85,1.17-.32,1.59Z"/>
            <path class="cls-64" d="M250.25,158.96l-.74-2.02-1.17-.85,2.13-1.91,2.34,2.55h-.53v.32l-.64,.11-1.06,.74-.32,1.06Z"/>
            <path class="cls-123" d="M250.68,157.79l.53-.85,.74-.43,.43,1.06v1.17l-.74,.85-.32,.74-.96-.11,.32-2.45Z"/>
            <path class="cls-34" d="M238.56,157.9l.21-.74,3.19-1.59,9.89-2.02,1.81-.85,1.06,.32-.11,1.06-7.23,3.08-6.7,1.17-2.13-.43Z"/>
            <path class="cls-131" d="M241.53,156.2l.21-2.23,.32-.32,.43-1.49-.11-1.59,.96-1.17,1.59,.32,3.51-.96,1.7,.96,.32,1.7,.64,1.59,.53,.11,.11,.53-2.23,1.38-5.74,1.28-2.23-.11Z"/>
          </g>
          <path class="cls-80" d="M236.11,168.1v-21.16h21.16v21.16h-21.16Z"/>
        </g>
        <g id="naie">
          <path class="cls-138" d="M215.86,236.88l-4.69-20.63,20.63-4.69,4.69,20.63-20.63,4.69Z"/>
          <g>
            <path class="cls-21" d="M218.72,236.01l.59-2.21,.16-5.05-.48-4.03,.2-2.01,6.88-3.31,3.25,3.73-.26,1.26,.25,1.58,1.18,2.78,.46,2.51-.84-2.75-.55-.97,.79,3.96,.94,1.75-1.89,.32-.82-2.65-.62-2.26,.2,1.37,1.49,3.69-10.93,2.27Z"/>
            <path class="cls-22" d="M220.68,232.19l.97-1.97,.61-2.1-.44-2.41,3.95,2.04-.37,1.72,.08,.85,1.25,.7-.38,.74-5.68,.42Z"/>
            <path class="cls-115" d="M220.07,235.71l-.14-2.04,.99-1.86,.86-.52,2.27-.08,2.26,.36,.26-.28-1.04-.74,1.31,.47,2.47,2.71-9.25,2Z"/>
            <path class="cls-112" d="M226.56,228.78l-.85,.08-1.69-.71-1.42-.98-.72-1.25-.84-2.75,.43-3.37,5.13-.95,1.99,2.05,.32,1.89-.39,1.18-.17,2.11-.51,1.1-1.27,1.6Z"/>
            <path class="cls-21" d="M221.55,230.24l-1.35-2.09-1.33-6.79,4.98-2.55,4.88,.85,.97,2.83-.13,1.34-.59-.19-.32-.91-.32,.51-.41-1.32-.28,1.15-1.19,.05,.35-.84-.08-.85-.51,1.1-.57,.35,.41-1.07-.08-.85-1.04,1.65-2.12,.26,.61-.68,.33-.95-1.49,2.08-.65,.48-.51,2.08,2.5,3.79,2.53,2.48,1.46,1.63-1.43,.43-1.51-1.84-3.1-2.13Z"/>
            <path class="cls-112" d="M221.48,226.12l-.87-.46-.8-1.13-.03-1.08,.42-.53,.57,.09,.33,.47,.25,.16,.62,2.26-.49,.22Z"/>
            <path class="cls-60" d="M219.32,223.34l-1.37-1.22-.33-1.45,.96-1.53,.51-1.1,1.02-.78,1.22-.39,1.05-.67,1.73-.07,1.05,.31,.42-.53,.46,.11-.32,.51,1.57,.19,.89,.56,.8,1.13,1.07,.85,.74,1.36-.31,1.05-.82,.73-.79-1.56-1.65-1.04-2.13-.28-2.41,.44-2.32,1.29-1.14,1.24,.09,.85Z"/>
            <path class="cls-39" d="M221.28,226.16l-.05-.21,.03-.33,.1-.02-.03,.33,.15,.18,.15,.18-.16,.25-.25-.16,.06-.23Z"/>
          </g>
          <path class="cls-80" d="M215.86,236.88l-4.69-20.63,20.63-4.69,4.69,20.63-20.63,4.69Z"/>
        </g>
      </g>
      <g id="lines" class="cls-3">
        <path class="cls-81" d="M227.24,214.5l12.1-53.38-54.42,21.16-58.19-34.55c-.53-.32-.48-1.1,.09-1.34l52.85-22.83"/>
        <polyline class="cls-81" points="365.75 193.1 327.33 185.15 282.65 211.95 252.78 164.91 288.27 125.52 309.78 100.33"/>
        <path class="cls-81" d="M245.04,190.34s-51.57-4.36-61.01-9.55c-2.12,1.94-44.65,17.03-44.65,17.03"/>
        <path class="cls-81" d="M245.04,190.34l82.94-4.07s.26-.27,.13-.42l-40.14-61.56-67.66-23.08"/>
        <line class="cls-81" x1="239.34" y1="161.12" x2="148.42" y2="252.7"/>
        <polyline class="cls-81" points="139.1 197.82 180.09 124.14 157.27 108.93"/>
        <polyline class="cls-81" points="366.81 144.26 245.04 190.34 253.94 252.16"/>
        <path class="cls-81" d="M196.85,111.04c.72,8.57,2.5,17.87,6.01,27.45,17.72,48.37,66.48,68.46,79.79,73.46-1.24-35.64-4.1-71.96-5.34-107.6"/>
        <polyline class="cls-81" points="219.88 101.21 184.92 181.46 180.09 124.14"/>
        <line class="cls-81" x1="184.92" y1="182.28" x2="276.18" y2="103.98"/>
        <path class="cls-81" d="M352.56,107.53l-24.58,78.92c-.19,.62-1.08,.57-1.21-.06l-16.99-86.05"/>
        <path class="cls-81" d="M245.04,190.34l43.23-64.82c.41-.56,.07-1.36-.61-1.46-5.79,.52-11.88,.81-18.25,.8-29.71-.09-53.36-6.26-72.57-13.81"/>
        <line class="cls-81" x1="239.34" y1="161.12" x2="221" y2="101.7"/>
        <path class="cls-81" d="M253.86,149.64c26.8,2.48,50.99,3.14,85.85-1.99,10.17-1.5,17.66-2.14,26.84-4.21"/>
        <polyline class="cls-81" points="321.68 252.7 295.41 176.93 253.34 149.64 273.79 57.37"/>
        <polyline class="cls-81" points="186.34 139.74 120.22 120.21 184.03 180.79"/>
        <path class="cls-81" d="M78.69,99.98l41.54,20.23,20.81-28.33c-6.86-18.09-12.95-28.37-12.95-28.37"/>
        <line class="cls-81" x1="227.24" y1="214.5" x2="139.1" y2="197.82"/>
        <line class="cls-81" x1="227.24" y1="214.5" x2="268.17" y2="252.16"/>
        <path class="cls-81" d="M162.92,264.76l76.42-103.64c-3.23-1.45-53.68-95.61-53.68-95.61"/>
        <path class="cls-81" d="M347.36,58.8c-1.44,0-21.24,25.15-21.24,25.15l.67,44.65-39.5-3.48"/>
        <path class="cls-81" d="M351.94,106.77l-25,21.23c-.91,.68-.69,2.11,.39,2.47l39.22,13.45,50.2-10.59"/>
        <line class="cls-81" x1="253.86" y1="149.64" x2="424.56" y2="193.91"/>
        <polyline class="cls-81" points="282.65 211.95 227.24 214.5 173.12 256"/>
        <path class="cls-81" d="M78.69,203.75c2.72-.26,60.41-5.93,60.41-5.93l-53.94,55.5"/>
        <path class="cls-81" d="M273.27,256l-20.49-91.08c-.13-.56,.67-.82,.9-.29l40.16,95.73"/>
        <polyline class="cls-81" points="253.86 149.64 276.41 104.63 250.79 54.91"/>
        <polyline class="cls-81" points="405.48 51.62 383.26 69.45 370.03 101.01 398.97 106.06 420.47 95.54"/>
        <polyline class="cls-81" points="424.56 177.81 365.29 192.34 325.74 263.42"/>
        <line class="cls-81" x1="365.75" y1="193.1" x2="409.41" y2="235.71"/>
        <path class="cls-81" d="M237.75,161.12c-12.15,2.7-25.21,4.96-39.13,6.51-51.38,5.73-96.19-.21-130.49-8.39"/>
        <line class="cls-81" x1="276.41" y1="104.63" x2="320.21" y2="58.8"/>
        <path class="cls-81" d="M253.34,149.27c-.06-.2-32.29-47.98-32.29-47.98l-66.64-38.31"/>
        <line class="cls-81" x1="276.41" y1="104.63" x2="186.34" y2="139.74"/>
      </g>
      <g id="pins">
        <circle class="cls-58" cx="239.34" cy="161.12" r="1.59"/>
        <circle class="cls-58" cx="227.24" cy="214.5" r="1.59"/>
        <circle class="cls-58" cx="282.65" cy="211.95" r="1.59"/>
        <circle class="cls-58" cx="184.92" cy="181.46" r="1.59"/>
        <circle class="cls-58" cx="126.51" cy="147.17" r="1.59"/>
        <circle class="cls-58" cx="180.09" cy="124.14" r="1.59"/>
        <circle class="cls-58" cx="253.86" cy="149.64" r="1.59"/>
        <circle class="cls-58" cx="287.29" cy="125.12" r="1.59"/>
        <circle class="cls-58" cx="276.41" cy="104.63" r="1.59"/>
        <circle class="cls-58" cx="326.13" cy="83.95" r="1.59"/>
        <circle class="cls-58" cx="309.78" cy="100.33" r="1.59"/>
        <circle class="cls-58" cx="220.32" cy="102.02" r="1.59"/>
        <circle class="cls-58" cx="327.33" cy="185.82" r="1.59"/>
        <circle class="cls-58" cx="365.75" cy="193.1" r="1.59"/>
        <circle class="cls-58" cx="245.04" cy="190.34" r="1.59"/>
        <circle class="cls-58" cx="141.04" cy="91.87" r="1.59"/>
        <circle class="cls-58" cx="157.27" cy="108.93" r="1.59"/>
        <circle class="cls-58" cx="196.85" cy="111.04" r="1.59"/>
        <circle class="cls-58" cx="139.1" cy="197.82" r="1.59"/>
        <circle class="cls-58" cx="366.55" cy="143.93" r="1.59"/>
        <circle class="cls-58" cx="351.94" cy="107.8" r="1.59"/>
        <circle class="cls-58" cx="370.03" cy="101.01" r="1.59"/>
        <circle class="cls-58" cx="186.34" cy="139.74" r="1.59"/>
        <circle class="cls-58" cx="326.79" cy="128.61" r="1.59"/>
        <circle class="cls-58" cx="295.41" cy="176.93" r="1.59"/>
        <circle class="cls-58" cx="120.22" cy="120.21" r="1.59"/>
        <circle class="cls-58" cx="193.56" cy="197.4" r="1.59"/>
        <circle class="cls-58" cx="383.26" cy="69.45" r="1.59"/>
        <circle class="cls-58" cx="253.12" cy="164.81" r="1.59"/>
        <circle class="cls-58" cx="398.34" cy="105.3" r="1.59"/>
        <circle class="cls-58" cx="232.88" cy="84.89" r="1.59"/>
      </g>
      <path id="clip" class="cls-78" d="M353.79,208.98l3.17,4.23c.43,.58,.32,1.4-.26,1.83h0c-.58,.43-1.4,.32-1.83-.26l-4.47-5.96c-.6-.8-.44-1.93,.36-2.53h0c.49-.37,1.11-.45,1.66-.27"/>
      <path id="clip-2" data-name="clip" class="cls-79" d="M226.01,112.59l4.58,2.62c.63,.36,.84,1.16,.49,1.78h0c-.36,.63-1.16,.84-1.78,.49l-6.47-3.7c-.87-.5-1.17-1.6-.67-2.46h0c.31-.54,.84-.85,1.42-.9"/>
    </g>
    <rect class="cls-49" x="87.2" y="65.61" width="319.8" height="180.09"/>
    <path id="filter-2" data-name="filter" class="cls-95" d="M86.88,245.51V65.51H406.88V245.51H86.88Z"/>
    <rect id="filter2" class="cls-47" x="86.88" y="131.41" width="320" height="50.3"/>
    <g>
      <path class="cls-11" d="M184.03,166.5s2.41,1.94,3.85,3.28c-.11,.4-.47,.58-.97,.58h-26.49l-1.15,1.8-3.56-2.2c.25-.29,.65-.65,1.04-.94v-28.73l3.85,1.51h20.55l1.91-2.52s2.12,1.73,3.42,2.99c-.11,.4-.47,.58-.97,.58h-25.38v26.46h21.78l2.12-2.81Zm-12.31-11.27c-.72,.97-1.48,1.87-2.34,2.77l.72,.29h7.92l1.58-1.66,3.38,2.52c-.22,.25-.72,.54-1.37,.68v6.3c-.04,.22-1.66,.86-2.7,.86h-.58v-1.87h-8.71v1.33c0,.25-1.01,1.01-2.63,1.01h-.58v-6.66c-1.62,1.22-3.35,2.34-5.22,3.2l-.36-.43c2.95-1.98,5.65-5.04,7.56-8.35h-6.66l-.29-1.04h7.49c.79-1.4,1.4-2.88,1.87-4.28l4.61,.97c-.14,.4-.43,.58-1.37,.5-.43,.97-.97,1.87-1.62,2.81h8.53l1.94-2.41s2.16,1.66,3.49,2.88c-.11,.4-.47,.58-.97,.58h-13.71Zm-1.01-11.37c-.04,.47-.36,.83-1.19,.9v3.02h6.95v-4.36l4.28,.43c-.07,.47-.36,.83-1.22,.9v3.02h1.66l1.58-2.3s1.8,1.51,3.02,2.77c-.11,.4-.47,.58-.97,.58h-5.29v2.41c0,.22-.83,.72-2.59,.72h-.47v-3.13h-6.95v2.56c0,.22-.9,.68-2.52,.68h-.54v-3.24h-4.72l-.25-1.04h4.97v-4.36l4.25,.43Zm-1.08,15.48v4.75h8.71v-4.75h-8.71Z"/>
      <path class="cls-11" d="M229.68,159.23c-.25,.32-.79,.65-1.58,.79v11.05c-.04,.25-1.8,1.04-2.99,1.04h-.58v-2.74h-13.35v1.98c0,.25-1.12,1.08-2.88,1.08h-.65v-12.02c-2.99,1.26-6.3,2.34-9.83,3.13l-.29-.54c10.55-3.74,19.69-10.44,24.19-18.29h-10.55c-.79,.97-1.66,1.94-2.52,2.88,8.13,2.63,5.18,8.46,2.05,6.12-.32-1.8-1.55-3.82-2.81-5.36-2.81,2.88-6.12,5.44-9.43,7.2l-.36-.4c4.86-3.74,9.9-10.58,12.31-16.31l5,1.48c-.18,.4-.47,.58-1.4,.47-.61,.94-1.26,1.91-2.02,2.88h9.79l2.38-2.09,3.49,3.38c-.32,.4-.72,.5-1.69,.54-3.28,5.11-8.03,9.5-14.11,12.81h12.27l1.8-1.98,3.74,2.88Zm-5.15,9.11v-8.96h-13.35v8.96h13.35Z"/>
      <path class="cls-11" d="M295.5,144.87c-.07,.5-.36,.86-1.33,1.01v25.31c0,.36-1.51,1.15-2.81,1.15h-.65v-3.42h-22.5l-1.22,1.69-3.82-2.09c.32-.36,.86-.76,1.37-1.04v-23.04l4.75,.5c-.07,.54-.4,.9-1.33,1.04v21.89h22.75v-23.51l4.79,.5Zm-26.82,21.06c4-3.53,7.27-8.1,9.79-12.85-2.95-3.96-6.41-7.7-9.47-10.58l.54-.36c4.36,2.7,7.78,5.36,10.47,7.81,1.62-3.49,2.84-7.06,3.67-10.22l5.11,1.69c-.18,.43-.54,.65-1.48,.61-1.19,3.24-2.81,6.8-4.93,10.33,8.21,8.93,6.26,15.19,2.59,12.42-.86-2.84-2.59-6.01-4.72-9.18-2.88,4.03-6.55,7.81-11.16,10.69l-.43-.36Z"/>
      <path class="cls-11" d="M325.2,161.61c3.28,3.2,9.18,5.44,14.51,6.26l-.04,.43c-1.37,.32-2.45,1.48-2.84,3.2-5.44-1.8-9.83-5.08-12.53-9.72v9.65c0,.29-1.55,.94-2.95,.94h-.65v-8.24c-3.74,3.28-8.96,5.8-14.83,7.42l-.29-.5c5.22-2.27,9.79-5.83,12.63-9.43h-11.66l-.29-1.04h14.43v-3.42c-3.49,.94-7.88,1.48-13.5,1.76l-.11-.58c6.26-.83,11.09-1.87,14.65-3.74-2.81-.58-5.9-1.04-9.25-1.4,.83-.94,1.91-2.34,2.99-3.82h-7.42l-.32-1.04h8.46c1.22-1.73,2.34-3.38,2.88-4.43l4.61,1.76c-.14,.4-.5,.68-1.66,.54-.47,.58-1.01,1.33-1.66,2.12h12.31l1.73-2.2c-.65,.32-1.26,.58-1.8,.79l-.4-.25c.5-.76,1.08-1.91,1.51-2.88h-22.61c.04,1.84-.76,3.06-1.76,3.6-.97,.47-2.34,.25-2.7-.86-.29-1.04,.4-1.8,1.3-2.2,1.12-.5,2.16-1.87,2.05-3.35h.58c.22,.61,.36,1.22,.47,1.76h11.55c-.25-.07-.54-.22-.83-.43-.07-1.26-1.01-2.66-2.02-3.38l.29-.25c6.05,0,5.58,3.53,3.63,4.07h10.08l1.84-1.8,3.2,3.06c-.29,.29-.65,.36-1.37,.4-.72,.54-1.76,1.15-2.84,1.66,.4,.29,2.23,1.69,3.38,2.74-.07,.4-.43,.58-.94,.58h-5.72c-.86,1.62-1.87,2.95-3.13,4.03,11.37,1.87,7.77,5.72,4.64,4.61-1.94-.94-4.5-1.8-7.56-2.59-1.04,.54-2.2,1.04-3.49,1.44l3.85,.36c-.07,.5-.36,.83-1.33,.97v2.38h9.18l1.94-2.52s2.2,1.73,3.53,2.99c-.11,.4-.43,.58-.94,.58h-12.81Zm-5.65-12.24c-.86,1.08-1.8,2.23-2.66,3.17,2.88,.07,5.36,.22,7.45,.43,1.22-1.01,2.2-2.2,2.92-3.6h-7.7Z"/>
    </g>
    <path class="cls-25" d="M0,0V317.62H492.26V0H0ZM406.88,245.7H86.76V65.51H406.88V245.7Z"/>
  </g>
</svg>